<?xml version='1.0' encoding='UTF-8' standalone='no'?>
<!-- Created with Fritzing (http://www.fritzing.org/) -->
<svg xmlns="http://www.w3.org/2000/svg" width="2.71089in" baseProfile="tiny" viewBox="0 0 195.184 152.025"  x="0in" y="0in" height="2.11146in" xmlns:svg="http://www.w3.org/2000/svg" version="1.2">
 <g partID="854221201">
  <g id="silkscreen0">
   <path stroke-linecap="round" stroke="black" d="M183.208,0.818l4.308,4.304l0,32.276l7.182,7.172l0,92.526l-7.182,7.172l0,4.35c0.164,1.396,-0.839,2.66,-2.234,2.824c-0.191,0.021,-0.395,0.021,-0.592,0L3.65,151.442c-1.397,0.164,-2.663,-0.836,-2.827,-2.229c-0.023,-0.196,-0.023,-0.396,0,-0.596L0.823,3.642C0.66,2.245,1.661,0.98,3.058,0.818c0.196,-0.023,0.396,-0.023,0.592,0L183.208,0.818" id="outline_1_" stroke-linejoin="round" stroke-miterlimit="10" fill="none"/>
  </g>
 </g>
 <g partID="854221200">
  <g id="board">
   <path stroke-width="0.5" d="M183.208,0.818l4.308,4.304l0,32.276l7.182,7.172l0,92.526l-7.182,7.172l0,4.35c0.164,1.396,-0.839,2.66,-2.234,2.824c-0.191,0.021,-0.395,0.021,-0.592,0L3.65,151.442c-1.397,0.164,-2.663,-0.836,-2.827,-2.229c-0.023,-0.196,-0.023,-0.396,0,-0.596L0.823,3.642C0.66,2.245,1.661,0.98,3.058,0.818c0.196,-0.023,0.396,-0.023,0.592,0L183.208,0.818" stroke="black" id="boardoutline" fill-opacity="0.5" fill="none"/>
  </g>
 </g>
 <g partID="854195980">
  <g transform="translate(147.38,35.1735)">
   <g transform="matrix(-1, 0, 0, 1, 38.1364, 0)">
    <g _flipped_="1" id="silkscreen0">
     <path d="M224.981,104.292l-1.74129,-0.323753c-0.443843,-0.0811412,-1.16762,-0.216647,-1.61147,-0.296977l-14.8302,-2.75718c-0.443843,-0.0843868,-0.929879,-0.498207,-1.07512,-0.927444l-5.57521,-13.0021c-0.208533,-0.401649,-0.167151,-1.03293,0.0860097,-1.40618L208.901,72.9459c0.253972,-0.372438,0.672661,-0.98262,0.928256,-1.35506l1.00128,-1.45811c0.253972,-0.372438,0.202042,-0.936369,-0.118466,-1.25931l-1.25039,-1.25039l-1.16032,-1.16032l-3.6262,-3.62863l-1.16194,-1.16032l-3.62458,-3.62701l-1.16275,-1.16113l-1.2512,-1.25039c-0.321319,-0.321319,-0.88444,-0.372438,-1.25688,-0.118466l-1.46135,0.999659c-0.372438,0.253972,-0.980998,0.671849,-1.35344,0.929878L180.507,66.2997c-0.371627,0.254783,-1.00696,0.301034,-1.41105,0.103049l-12.6069,-5.15815c-0.426803,-0.14362,-0.846303,-0.623164,-0.929879,-1.06538l-2.87646,-15.4566c-0.0843869,-0.446277,-0.219893,-1.16762,-0.299411,-1.61228l-0.322131,-1.74129c-0.0843869,-0.443842,-0.521738,-0.804109,-0.968826,-0.804109l-1.76969,0l-1.63986,0l-5.12813,0l-1.63986,0l-5.12732,0l-1.63986,0l-1.76726,0c-0.45358,0,-0.890119,0.360267,-0.969638,0.805732l-0.322131,1.74048c-0.0843869,0.444654,-0.219893,1.16681,-0.2986,1.61228l-2.87727,15.4566c-0.0843869,0.443842,-0.498207,0.92501,-0.929879,1.06538l-12.6061,5.15815c-0.404083,0.197985,-1.03942,0.152545,-1.41105,-0.103049L110.065,57.448c-0.372438,-0.253972,-0.980998,-0.673472,-1.35344,-0.929878l-1.45973,-0.999659c-0.372438,-0.253972,-0.93637,-0.202853,-1.25688,0.118466l-1.2512,1.25039l-1.16194,1.16113l-3.62701,3.62863l-1.16032,1.16032l-3.6262,3.62701l-1.16194,1.16032l-1.25039,1.25039c-0.321319,0.321319,-0.372438,0.886873,-0.118466,1.25931l0.998849,1.45811c0.253972,0.372438,0.671849,0.98262,0.929879,1.35506l8.66832,12.628c0.253972,0.373249,0.294543,1.00453,0.0868211,1.40537l-5.57359,13.0045c-0.150111,0.423557,-0.63209,0.840623,-1.07593,0.925821l-14.8294,2.7588c-0.444654,0.082764,-1.16843,0.21827,-1.61309,0.295354l-1.74129,0.322131c-0.443843,0.0843868,-0.805733,0.521738,-0.805733,0.97126l0,1.77131l0,1.63986l0,5.1265l0,1.63986l0,5.12325l0,1.63986l0,1.7705c0,0.452768,0.363513,0.889307,0.807355,0.969637l1.74048,0.321319c0.445465,0.0843868,1.16762,0.219893,1.61309,0.301034l14.3855,2.67766c0.443843,0.082764,0.917707,0.500641,1.05402,0.929878l5.53546,13.8346c0.197985,0.404895,0.152546,1.04023,-0.104672,1.41267l-8.14577,11.8701c-0.254784,0.373249,-0.673472,0.981808,-0.929879,1.35181l-0.99966,1.46135c-0.253972,0.371627,-0.202853,0.936369,0.118466,1.25769l1.25201,1.25039l1.16113,1.16113l3.62864,3.62945l1.16032,1.16032l3.6262,3.6262l1.16194,1.16032l1.25201,1.25039c0.320508,0.320508,0.886062,0.370815,1.2585,0.117655l1.45811,-0.998037c0.370815,-0.253972,0.979375,-0.673472,1.35181,-0.929878l11.6129,-7.96644c0.371627,-0.253972,0.996414,-0.276691,1.38265,-0.0494961l2.41233,1.35668c0.395158,0.215836,1.05078,0.558251,1.45324,0.761104l2.4959,1.27879c0.402461,0.204476,0.871457,0.0316451,1.04429,-0.387855l1.07106,-2.5884c0.172831,-0.4195,0.456825,-1.09865,0.627222,-1.51653l10.0729,-24.344c0.174454,-0.416254,0.456825,-1.09865,0.62641,-1.51491l0.714043,-1.72425c0.172831,-0.417066,-0.00243424,-0.950975,-0.388667,-1.18547l-1.59118,-0.972883c-0.294543,-0.180945,-0.692946,-0.490093,-1.00615,-0.77003c-5.74318,-3.67732,-9.55114,-10.111,-9.55114,-17.434c0,-11.4328,9.26714,-20.6999,20.6983,-20.6999s20.6991,9.26632,20.6991,20.6999c0,7.3238,-3.80796,13.7567,-9.55114,17.434c-0.314017,0.283994,-0.711609,0.591519,-1.00534,0.77003l-1.59118,0.972883c-0.386232,0.234498,-0.558252,0.768407,-0.387855,1.18547l0.714043,1.72425c0.173642,0.418689,0.456825,1.09865,0.625599,1.51491l10.0729,24.344c0.174454,0.417877,0.456825,1.09865,0.625599,1.51653l1.07431,2.5884c0.172831,0.4195,0.641827,0.591519,1.04429,0.387855l2.4959,-1.27879c0.402461,-0.206099,1.05727,-0.546892,1.45324,-0.761104l2.41071,-1.35668c0.388667,-0.227195,1.01264,-0.207721,1.38346,0.0494961l11.6137,7.96644c0.370815,0.253972,0.981809,0.673472,1.351,0.929878l1.46217,0.998037c0.370815,0.253972,0.935559,0.202853,1.25526,-0.117655l1.25039,-1.25039l1.16275,-1.16032l3.62539,-3.62782l1.16194,-1.16032l3.62945,-3.62782l1.16032,-1.16113l1.25201,-1.25039c0.320508,-0.321319,0.370815,-0.886062,0.117655,-1.25769l-1.00047,-1.46135c-0.253972,-0.370004,-0.672661,-0.978563,-0.929879,-1.351l-8.14739,-11.871c-0.253972,-0.372438,-0.302657,-1.00696,-0.103049,-1.41267l5.53464,-13.8346c0.136317,-0.429237,0.610994,-0.851171,1.05484,-0.929878l14.3855,-2.67766c0.444654,-0.0843868,1.17006,-0.219893,1.6139,-0.300222l1.73886,-0.321319c0.444654,-0.0843868,0.805733,-0.521738,0.805733,-0.969637l0,-1.7705l0,-1.63986l0,-5.12325l0,-1.63986l0.00162282,-5.1265l0,-1.63986l0,-1.77131C225.788,104.811,225.425,104.375,224.981,104.292" display="none" id="path3024" fill="black"/>
     <path d="M28.2307,12.9866c-0.253972,-1.17006,-0.72946,-2.25735,-1.38184,-3.21725l1.97741,-2.88051l-0.849549,-0.849548l-0.849549,-0.847925l-2.91865,2.00256c-0.94773,-0.612616,-2.01311,-1.05808,-3.15802,-1.29096l0,0l-0.651564,-3.498l-1.20008,0l-1.20089,0L17.348,5.90302l0,0c-1.14328,0.232875,-2.20948,0.67834,-3.15802,1.29096l-2.91784,-2.00256l-0.849549,0.847925L9.57386,6.88889l1.9766,2.88051c-0.651564,0.9599,-1.12705,2.04638,-1.38102,3.21725L6.78746,13.6155l0,1.20008l0,1.20089l3.31787,0.617484c0.22395,1.22604,0.690512,2.36689,1.34613,3.37223l-1.87842,2.73689l0.85036,0.848737l0.847926,0.85036l2.702,-1.85408c0.326188,0.22395,0.668604,0.427614,1.024,0.610182l1.89871,-4.5861c-1.27067,-0.778144,-2.1186,-2.17945,-2.1186,-3.77631c0,-2.44235,1.97903,-4.42219,4.42301,-4.42219c2.44235,0,4.42057,1.97985,4.42057,4.42219c0,1.59929,-0.847926,2.99817,-2.11779,3.77631l1.89871,4.5861c0.355399,-0.181756,0.696192,-0.386232,1.02481,-0.610182l2.702,1.85408l0.849549,-0.85036l0.847926,-0.848737l-1.8768,-2.73689c0.657244,-1.00534,1.12299,-2.147,1.34613,-3.37223l3.31868,-0.617484l0,-1.20089L31.6143,13.6155L28.2307,12.9866z" id="path3028" fill="black"/>
     <path d="M15.5037,29.9703l0,-3.56859l0.397592,-0.173642l0,1.13273c0.15498,-0.110352,0.333491,-0.165528,0.534721,-0.165528c0.258029,0,0.479545,0.0908781,0.661301,0.272634c0.184191,0.183379,0.27588,0.40246,0.27588,0.659678l0,1.67151l-0.396781,0.172831l0,-1.83704c-0.00324565,-0.152545,-0.0559875,-0.28156,-0.159037,-0.381364c-0.104672,-0.103861,-0.22963,-0.155791,-0.374061,-0.155791c-0.153357,0,-0.282372,0.0519304,-0.387044,0.155791c-0.102238,0.102238,-0.153357,0.22395,-0.15498,0.366758l0,0.0146054l0,1.66421L15.5037,29.9703z" fill="black"/>
     <path d="M18.3744,29.2392c0,0.055176,0.0219081,0.111975,0.064913,0.169585c0.0803298,0.106295,0.206099,0.159848,0.37893,0.159848c0.106295,0,0.199607,-0.0243424,0.280749,-0.0746499l0.1493,0.374061c-0.128203,0.0681586,-0.272635,0.101426,-0.429237,0.101426c-0.247481,0,-0.467374,-0.0900667,-0.659678,-0.272634c-0.128203,-0.131449,-0.193116,-0.285617,-0.193116,-0.456825c0,-0.00730271,0,-0.013794,0,-0.0178511c0,-0.309148,0.157414,-0.525795,0.475488,-0.656432l1.00696,-0.418689c0,-0.154168,-0.051119,-0.28724,-0.155791,-0.392723s-0.236121,-0.159037,-0.394346,-0.159037c-0.13794,0,-0.260463,0.0511189,-0.366758,0.15498c-0.101427,0.100615,-0.155791,0.225573,-0.157414,0.381364l0,0.0357021l-0.397592,0.176888l0,-0.219893c0,-0.230441,0.0998037,-0.454391,0.297788,-0.663735c0.169585,-0.178511,0.382987,-0.265332,0.640204,-0.265332c0.256406,0,0.477111,0.0884439,0.659678,0.271012c0.183379,0.183379,0.272635,0.400837,0.272635,0.659678l0,1.67232l-0.396781,0.172831l0,-1.38995l-0.817092,0.331867C18.4596,28.9934,18.3744,29.1037,18.3744,29.2392z" fill="black"/>
     <path d="M20.4435,29.9703l0,-1.84272c0,-0.257218,0.0900668,-0.47711,0.273446,-0.659678c0.181756,-0.181756,0.400026,-0.272634,0.659678,-0.272634c0.260463,0,0.483602,0.0908781,0.659678,0.272634c0.185813,0.188248,0.27588,0.408952,0.27588,0.659678l0,0.0105484l-0.396781,0.174454l0,-0.177699c-0.00324565,-0.153357,-0.0543646,-0.28156,-0.157414,-0.382175c-0.106295,-0.103049,-0.22963,-0.15498,-0.374061,-0.15498c-0.151734,0,-0.279937,0.0519304,-0.385421,0.15498c-0.106295,0.104672,-0.156603,0.228007,-0.156603,0.374872c0,0.00324565,0,0.00567988,0,0.00730271l0,1.66421L20.4435,29.9703z" fill="black"/>
     <path d="M24.7822,26.2248l0,2.81398c0,0.255595,-0.0908782,0.47711,-0.275069,0.659678c-0.184191,0.181756,-0.403272,0.271012,-0.66049,0.271012c-0.255595,0,-0.477111,-0.0892553,-0.659678,-0.271012c-0.182568,-0.183379,-0.272635,-0.40246,-0.272635,-0.659678l0,-0.912027c0,-0.256406,0.0900668,-0.47711,0.272635,-0.659678c0.181756,-0.183379,0.400838,-0.272634,0.659678,-0.272634c0.202853,0,0.383798,0.0543646,0.540401,0.167962l0,-0.963957L24.7822,26.2248zM23.3111,29.0299c0,0.152545,0.0543646,0.280749,0.16634,0.382986c0.113598,0.103049,0.239367,0.154168,0.385421,0.154168c0.138752,0,0.259652,-0.0511189,0.364324,-0.154168c0.103049,-0.101426,0.15498,-0.228007,0.159848,-0.382986l0,-0.89661c-0.00486847,-0.152545,-0.0567989,-0.280749,-0.159848,-0.381364c-0.104672,-0.103861,-0.237744,-0.15498,-0.394346,-0.15498c-0.138752,0,-0.259652,0.0511189,-0.364324,0.15498c-0.102238,0.102238,-0.153357,0.225573,-0.15498,0.366758l0,0.0146054l0,0.89661L23.3111,29.0299z" fill="black"/>
     <path d="M25.1651,29.2952L25.1651,27.3689l0.395969,-0.174454l-0.00243424,2.08857c0,0.0843868,0.027588,0.152545,0.0835755,0.21259c0.0527418,0.055176,0.118466,0.0843868,0.192305,0.0843868c0.078707,0,0.145243,-0.0283994,0.197985,-0.0843868c0.0559875,-0.0600445,0.0843869,-0.129826,0.0843869,-0.210967L26.1169,29.2839l0.00324565,-1.91412l0.395969,-0.174454l-0.00405706,2.08857c0,0.0843868,0.027588,0.152545,0.0835755,0.210967s0.118466,0.0860097,0.193116,0.0860097c0.0762728,0,0.142809,-0.0283994,0.197173,-0.0860097c0.055176,-0.0559874,0.0843869,-0.12658,0.0843869,-0.210967l0.00405706,-1.91412l0.395158,-0.174454l0,2.10156c0,0.185813,-0.064913,0.345661,-0.197985,0.475487c-0.130637,0.133072,-0.290486,0.197985,-0.477111,0.197985c-0.193116,0,-0.354587,-0.064913,-0.478733,-0.190682c-0.131449,0.125769,-0.290486,0.190682,-0.475488,0.190682c-0.197985,0,-0.359456,-0.064913,-0.485225,-0.190682C25.2317,29.6466,25.1668,29.4859,25.1651,29.2952z" fill="black"/>
     <path d="M28.2518,29.2392c0,0.055176,0.0194739,0.111975,0.0632902,0.169585c0.0803298,0.106295,0.206099,0.159848,0.380552,0.159848c0.105484,0,0.199607,-0.0243424,0.280749,-0.0746499l0.1493,0.374061c-0.129826,0.0681586,-0.272635,0.101426,-0.427614,0.101426c-0.249104,0,-0.467374,-0.0900667,-0.659678,-0.272634c-0.128203,-0.131449,-0.193116,-0.285617,-0.193116,-0.456825c0,-0.00730271,0,-0.013794,0,-0.0178511c0,-0.309148,0.156603,-0.525795,0.473865,-0.656432l1.00777,-0.418689c0,-0.154168,-0.0519304,-0.28724,-0.156603,-0.392723c-0.103049,-0.106295,-0.234498,-0.159037,-0.392724,-0.159037c-0.138752,0,-0.261275,0.0511189,-0.365947,0.15498c-0.103049,0.100615,-0.15498,0.225573,-0.158225,0.381364l0,0.0357021l-0.395969,0.176888l0,-0.219893c0,-0.230441,0.0989923,-0.454391,0.296166,-0.663735c0.167962,-0.178511,0.382987,-0.265332,0.638582,-0.265332c0.258029,0,0.479545,0.0884439,0.659678,0.271012c0.181756,0.183379,0.272635,0.400837,0.272635,0.659678l0,1.67232l-0.396781,0.172831l0,-1.38995l-0.816281,0.331867C28.337,28.9934,28.2518,29.1037,28.2518,29.2392z" fill="black"/>
     <path d="M30.3217,29.9703l0,-1.84272c0,-0.257218,0.0900668,-0.47711,0.272635,-0.659678c0.182568,-0.181756,0.401649,-0.272634,0.659678,-0.272634c0.262086,0,0.483602,0.0908781,0.661301,0.272634c0.183379,0.188248,0.275069,0.408952,0.275069,0.659678l0,0.0105484l-0.395969,0.174454l0,-0.177699c-0.00324565,-0.153357,-0.0543646,-0.28156,-0.158225,-0.382175c-0.106295,-0.103049,-0.22963,-0.15498,-0.374061,-0.15498c-0.151734,0,-0.279126,0.0519304,-0.385421,0.15498c-0.106295,0.104672,-0.158225,0.228007,-0.158225,0.374872c0,0.00324565,0,0.00567988,0,0.00730271l0,1.66421L30.3217,29.9703z" fill="black"/>
     <path d="M33.7385,29.5687c0.138752,0,0.259652,-0.0519304,0.366758,-0.15498c0.102238,-0.101426,0.154168,-0.228007,0.157414,-0.382175l0,-0.0365135l0.395969,-0.174454l0,0.21827c0,0.230441,-0.0989923,0.454391,-0.296166,0.662924c-0.167962,0.180133,-0.382987,0.267766,-0.638582,0.267766c-0.258029,0,-0.478733,-0.0900667,-0.659678,-0.272634s-0.271823,-0.400837,-0.271823,-0.659678l0,-0.912027c0,-0.256406,0.0900668,-0.47711,0.271823,-0.659678c0.181756,-0.183379,0.401649,-0.274257,0.659678,-0.274257c0.247481,0,0.467374,0.0908781,0.659678,0.274257c0.185813,0.171208,0.275069,0.390289,0.275069,0.659678l0,0.232875L33.1868,29.0128c0,0.156602,0.051119,0.288051,0.15498,0.395158C33.4472,29.5143,33.5803,29.5687,33.7385,29.5687zM33.7093,27.5969c-0.138752,0,-0.260463,0.0511189,-0.363513,0.15498c-0.104672,0.104672,-0.156603,0.228818,-0.156603,0.374872c0,0.00324565,0,0.00567988,0,0.00730271l0,0.446277l1.07269,-0.47711c-0.00811412,-0.139563,-0.0600445,-0.254783,-0.154168,-0.35053C33.9982,27.648,33.8667,27.5969,33.7093,27.5969z" fill="black"/>
     <path stroke-width="0.162282" d="M4.40759,27.1166c-0.256406,0,-0.477922,0.0908781,-0.659678,0.272634c-0.182568,0.181756,-0.272635,0.401649,-0.272635,0.659678l0,0.911216c0,0.255595,0.0900668,0.477922,0.272635,0.659678c0.181756,0.182568,0.400838,0.271823,0.659678,0.271823c0.258841,0,0.478733,-0.0892553,0.661301,-0.271823c0.183379,-0.181756,0.275069,-0.401649,0.275069,-0.659678l0,-0.911216c0,-0.258029,-0.0916896,-0.478733,-0.275069,-0.659678C4.88551,27.2083,4.66481,27.1166,4.40759,27.1166zM4.94799,28.9544c-0.00324565,0.152545,-0.055176,0.28156,-0.158225,0.382986c-0.106295,0.103861,-0.228007,0.154168,-0.366758,0.154168c-0.14362,0,-0.271823,-0.0511189,-0.384609,-0.154168c-0.111164,-0.103861,-0.16634,-0.230441,-0.16634,-0.382986l0,0l0,-0.895799l0,-0.0170396c0.00162282,-0.142808,0.0527418,-0.262897,0.15498,-0.365947c0.103861,-0.104672,0.225573,-0.15498,0.364324,-0.15498c0.158225,0,0.289674,0.0511189,0.395969,0.15498c0.103049,0.101426,0.155791,0.228007,0.159848,0.382986L4.94799,28.9544L4.94799,28.9544z" stroke="black" fill="black"/>
     <path stroke-width="0.162282" d="M7.00979,27.1166c-0.258029,0,-0.478733,0.0908781,-0.662113,0.272634c-0.183379,0.181756,-0.274257,0.401649,-0.274257,0.659678l0,2.81317l0.395969,-0.174454l0,-0.963957c0.155791,0.113598,0.337548,0.167962,0.540401,0.167962c0.257218,0,0.477111,-0.0892553,0.659678,-0.271823c0.182568,-0.181756,0.272635,-0.401649,0.272635,-0.659678l0,-0.911216c0,-0.258029,-0.0908782,-0.478733,-0.272635,-0.659678C7.4869,27.2075,7.2662,27.1166,7.00979,27.1166zM7.5437,28.9544c-0.00324565,0.152545,-0.055176,0.28156,-0.158225,0.382986c-0.106295,0.103861,-0.228007,0.154168,-0.36757,0.154168c-0.142809,0,-0.271012,-0.0511189,-0.384609,-0.154168c-0.111164,-0.103861,-0.165528,-0.230441,-0.165528,-0.382986l0,0l0,-0.895799l0,-0.0170396c0.00162282,-0.142808,0.0535532,-0.262897,0.155791,-0.365947c0.103861,-0.104672,0.22395,-0.15498,0.363513,-0.15498c0.159848,0,0.291297,0.0511189,0.397592,0.15498c0.101427,0.101426,0.154168,0.228007,0.157414,0.382986L7.5437,28.9544L7.5437,28.9544z" stroke="black" fill="black"/>
     <path stroke-width="0.162282" d="M9.60063,27.1166c-0.256406,0,-0.477922,0.0908781,-0.659678,0.272634c-0.183379,0.181756,-0.272635,0.401649,-0.272635,0.659678l0,0.911216c0,0.255595,0.0900668,0.477922,0.272635,0.659678c0.180945,0.182568,0.400838,0.271823,0.659678,0.271823s0.470619,-0.0876325,0.639393,-0.267766c0.198796,-0.210967,0.296977,-0.431671,0.296977,-0.662924l0,-0.219893l-0.395969,0.176888l0,0.0348907c-0.00243424,0.153357,-0.055176,0.282371,-0.158225,0.382175c-0.106295,0.105484,-0.228007,0.155791,-0.36757,0.155791c-0.158225,0,-0.288863,-0.0527418,-0.392724,-0.159037c-0.104672,-0.106295,-0.156603,-0.239367,-0.156603,-0.394346l1.4719,-0.656432l0,-0.232875c0,-0.267766,-0.0908782,-0.48847,-0.274257,-0.659678C10.0688,27.2075,9.84811,27.1166,9.60063,27.1166zM9.0651,28.5025l0,-0.446277c0,-0.00162282,0,-0.00567988,0,-0.00892553c0,-0.144431,0.0519304,-0.269389,0.15498,-0.374061c0.104672,-0.104672,0.226384,-0.15498,0.364324,-0.15498c0.159037,0,0.290486,0.0511189,0.397592,0.15498c0.0957467,0.0949352,0.147677,0.21259,0.15498,0.351341L9.0651,28.5025z" stroke="black" fill="black"/>
     <path stroke-width="0.162282" d="M12.8593,27.3892c-0.185002,-0.181756,-0.405706,-0.271823,-0.661301,-0.271823c-0.257218,0,-0.477922,0.0900667,-0.659678,0.271823c-0.181756,0.181756,-0.271823,0.401649,-0.271823,0.659678l0,1.84272l0.396781,-0.173642l0,-1.66339c0,-0.00162282,0,-0.00405706,0,-0.00730271c0,-0.147677,0.0519304,-0.269389,0.158225,-0.372438c0.107918,-0.106295,0.236121,-0.157414,0.383798,-0.157414c0.14362,0,0.268578,0.0511189,0.374873,0.155791c0.101427,0.0998037,0.154168,0.225573,0.158225,0.381364l0,1.83704l0.396781,-0.173642l0,-1.6707C13.1335,27.7909,13.0418,27.571,12.8593,27.3892z" stroke="black" fill="black"/>
    </g>
   </g>
  </g>
 </g>
 <g partID="854196030">
  <g transform="translate(150.751,83.3933)">
   <g transform="matrix(-1, 0, 0, 1, 34.3889, 0)">
    <g _flipped_="1" id="silkscreen0">
     <rect width="29.164" x="2.61245" y="29.1561" height="2.62031" fill="black"/>
     <g>
      <circle r="1.10184" cx="16.1555" cy="22.1101" fill="black"/>
      <path d="M2.61245,2.61244l0,24.8929l29.164,0l0,-24.8929L2.61245,2.61244zM22.2215,8.77278c-0.298715,0.17163,-0.68259,0.26072,-1.13197,0.26072l-1.83684,0c-0.348501,0,-0.641976,0.0117914,-0.875183,0.0327538c-0.176871,0.0183421,-0.322298,0.0851599,-0.445452,0.212245l-0.00524062,0.00262031l-0.00524062,0.00393046c-0.176871,0.166389,-0.286924,0.351121,-0.33933,0.569916c-0.0576468,0.250239,-0.08516,0.547644,-0.08516,0.884353L17.4971,11.7914l1.62066,0c0.454624,0,0.838499,0.0890904,1.13328,0.25941c0.352431,0.201764,0.525372,0.571227,0.525372,1.0966c0,0.638044,-0.286924,0.935449,-0.525372,1.07302c-0.298715,0.17163,-0.68259,0.26072,-1.13328,0.26072l-1.62066,0l0,4.92486c0.997027,0.496548,1.69141,1.51716,1.69141,2.70285c0,1.67175,-1.36125,3.03038,-3.0317,3.03038c-1.66914,0,-3.0317,-1.35863,-3.0317,-3.03038c0,-1.18307,0.690451,-2.20499,1.68486,-2.70153l0,-4.92879l-0.943311,0c-0.452003,0,-0.834568,-0.0877802,-1.13197,-0.25941c-0.239758,-0.138876,-0.527992,-0.436281,-0.527992,-1.07433c0,-0.525371,0.178181,-0.894834,0.527992,-1.0966C13.0295,11.8805,13.412,11.7914,13.8641,11.7914l0.943311,0L14.8074,10.7393c0,-0.644595,0.0746788,-1.24333,0.220106,-1.7805c0.153288,-0.562056,0.491308,-1.09136,1.01013,-1.57742c0.248929,-0.247619,0.497859,-0.446762,0.742857,-0.589569c0.248929,-0.146737,0.50703,-0.251549,0.76775,-0.313127c0.247619,-0.0576467,0.51227,-0.094331,0.783472,-0.111363c0.267271,-0.0157218,0.562056,-0.0235827,0.871253,-0.0235827l1.884,0c0.453313,0,0.834568,0.0877802,1.13197,0.25941c0.349811,0.200453,0.525372,0.571227,0.525372,1.09529C22.7469,8.3365,22.4613,8.63522,22.2215,8.77278z" fill="black"/>
     </g>
    </g>
   </g>
  </g>
 </g>
 <g partID="854273740">
  <g transform="translate(-25.4382,14.551)">
   <g transform="matrix(-1, 0, 0, 1, 237.963, 0)">
    <g _flipped_="1" id="silkscreen0">
     <text text-anchor="middle" xml:space="preserve" stroke-width="0" id="label" xmlns:xml="http://www.w3.org/XML/1998/namespace" x="118.981" y="6.29901" font-family="OCRA" font-size="6.99891" fill="black">github.com/NehenemiLabs/hotspot-1d</text>
    </g>
   </g>
  </g>
 </g>
 <g partID="854221201">
  <g id="silkscreen0">
   <path stroke-linecap="round" stroke="black" d="M183.208,0.818l4.308,4.304l0,32.276l7.182,7.172l0,92.526l-7.182,7.172l0,4.35c0.164,1.396,-0.839,2.66,-2.234,2.824c-0.191,0.021,-0.395,0.021,-0.592,0L3.65,151.442c-1.397,0.164,-2.663,-0.836,-2.827,-2.229c-0.023,-0.196,-0.023,-0.396,0,-0.596L0.823,3.642C0.66,2.245,1.661,0.98,3.058,0.818c0.196,-0.023,0.396,-0.023,0.592,0L183.208,0.818" id="outline_1_" stroke-linejoin="round" stroke-miterlimit="10" fill="none"/>
  </g>
 </g>
 <g partID="854220620">
  <g transform="translate(52.9868,62.3069)">
   <g id="copper0">
    <g id="copper1">
     <!-- <rect width="55" x="10" y="15.5" fill="none" height="55" stroke="rgb(255, 191, 0)" stroke-width="20" />  -->
     <circle r="1.98" stroke-width="2.16" stroke="white" id="connector0pin" cx="2.7" cy="3.096" fill="white"/>
     <circle r="1.98" stroke-width="2.16" stroke="white" id="connector1pin" cx="31.5" cy="3.096" fill="white"/>
    </g>
   </g>
  </g>
 </g>
 <g partID="854220300">
  <g transform="translate(80.3468,120.627)">
   <g id="copper0">
    <g id="copper1">
     <!-- <rect width="55" x="10" y="15.5" fill="none" height="55" stroke="rgb(255, 191, 0)" stroke-width="20" />  -->
     <circle r="1.98" stroke-width="2.16" stroke="white" id="connector0pin" cx="2.7" cy="3.096" fill="white"/>
     <circle r="1.98" stroke-width="2.16" stroke="white" id="connector1pin" cx="31.5" cy="3.096" fill="white"/>
    </g>
   </g>
  </g>
 </g>
 <g partID="854219980">
  <g transform="translate(80.3468,110.547)">
   <g id="copper0">
    <g id="copper1">
     <!-- <rect width="55" x="10" y="15.5" fill="none" height="55" stroke="rgb(255, 191, 0)" stroke-width="20" />  -->
     <circle r="1.98" stroke-width="2.16" stroke="white" id="connector0pin" cx="2.7" cy="3.096" fill="white"/>
     <circle r="1.98" stroke-width="2.16" stroke="white" id="connector1pin" cx="31.5" cy="3.096" fill="white"/>
    </g>
   </g>
  </g>
 </g>
 <g partID="854239060">
  <g transform="translate(88.0604,41.3604)">
   <g id="copper0">
    <circle r="0.992124" stroke-width="1.57039" stroke="white" id="connector0pin" cx="3.01733" cy="3.01733" fill="white"/>
   </g>
  </g>
 </g>
 <g partID="854244970">
  <g transform="translate(33.8882,139.399)">
   <g transform="matrix(-1,0,0,-1,0,0)">
    <g id="copper0">
     <circle r="1.98" stroke-width="2.16" stroke="white" id="connector0pad" cx="20.8462" cy="15.6024" fill="white"/>
     <circle r="1.98" stroke-width="2.16" stroke="white" id="connector1pad" cx="2.42064" cy="15.6024" fill="white"/>
     <circle r="1.98" stroke-width="2.16" stroke="white" id="connector2pad" cx="20.8462" cy="2.84616" fill="white"/>
     <circle r="1.98" stroke-width="2.16" stroke="white" id="connector3pad" cx="2.42064" cy="2.84616" fill="white"/>
    </g>
   </g>
  </g>
 </g>
 <g partID="854246120">
  <g transform="translate(65.0696,139.399)">
   <g transform="matrix(-1,0,0,-1,0,0)">
    <g id="copper0">
     <circle r="1.98" stroke-width="2.16" stroke="white" id="connector0pad" cx="20.8462" cy="15.6024" fill="white"/>
     <circle r="1.98" stroke-width="2.16" stroke="white" id="connector1pad" cx="2.42064" cy="15.6024" fill="white"/>
     <circle r="1.98" stroke-width="2.16" stroke="white" id="connector2pad" cx="20.8462" cy="2.84616" fill="white"/>
     <circle r="1.98" stroke-width="2.16" stroke="white" id="connector3pad" cx="2.42064" cy="2.84616" fill="white"/>
    </g>
   </g>
  </g>
 </g>
 <g partID="854246380">
  <g transform="translate(19.1257,3.31232)">
   <g id="copper0">
    <circle r="1.98" stroke-width="2.16" stroke="white" id="connector0pad" cx="20.8462" cy="15.6024" fill="white"/>
    <circle r="1.98" stroke-width="2.16" stroke="white" id="connector1pad" cx="2.42064" cy="15.6024" fill="white"/>
    <circle r="1.98" stroke-width="2.16" stroke="white" id="connector2pad" cx="20.8462" cy="2.84616" fill="white"/>
    <circle r="1.98" stroke-width="2.16" stroke="white" id="connector3pad" cx="2.42064" cy="2.84616" fill="white"/>
   </g>
  </g>
 </g>
 <g partID="854258380">
  <g transform="translate(140.136,75.1413)">
   <g id="copper0">
    <circle r="3.11811" stroke-width="0.72" stroke="white" id="nonconn0" cx="4.71811" cy="4.71811" fill="white"/>
   </g>
  </g>
 </g>
 <g partID="854258410">
  <g transform="translate(183.448,75.0845)">
   <g id="copper0">
    <circle r="3.11811" stroke-width="0.72" stroke="white" id="nonconn0" cx="4.71811" cy="4.71811" fill="white"/>
   </g>
  </g>
 </g>
 <g partID="854117410">
  <g transform="translate(82.1724,34.2439)">
   <g id="copper0">
    <g id="copper1">
     <!-- <rect width="55" x="10" y="15.5" fill="none" height="55" stroke="rgb(255, 191, 0)" stroke-width="20" />  -->
     <circle r="1.98" stroke-width="2.16" stroke="white" id="connector0pin" cx="2.7" cy="3.096" fill="white"/>
     <circle r="1.98" stroke-width="2.16" stroke="white" id="connector1pin" cx="31.5" cy="3.096" fill="white"/>
    </g>
   </g>
  </g>
 </g>
 <g partID="854117380">
  <g transform="translate(82.1724,24.3226)">
   <g id="copper0">
    <g id="copper1">
     <!-- <rect width="55" x="10" y="15.5" fill="none" height="55" stroke="rgb(255, 191, 0)" stroke-width="20" />  -->
     <circle r="1.98" stroke-width="2.16" stroke="white" id="connector0pin" cx="2.7" cy="3.096" fill="white"/>
     <circle r="1.98" stroke-width="2.16" stroke="white" id="connector1pin" cx="31.5" cy="3.096" fill="white"/>
    </g>
   </g>
  </g>
 </g>
 <g partID="854135150">
  <g transform="translate(70.4476,27.135)">
   <g transform="matrix(0,1,-1,0,0,0)">
    <g id="copper0">
     <g id="copper1">
      <circle r="1.7008" stroke-width="1.85384" stroke="white" id="connector1pad" cx="8.7876" cy="10.6336" fill="white"/>
      <rect width="3.4016" stroke-width="1.85384" stroke="white" x="7.0868" y="8.9328" height="3.4016" fill="white"/>
      <circle r="1.7008" stroke-width="1.85384" stroke="white" id="connector0pad" cx="8.7876" cy="3.5464" fill="white"/>
     </g>
    </g>
   </g>
  </g>
 </g>
 <g partID="854134920">
  <g transform="translate(42.1012,27.135)">
   <g transform="matrix(0,1,-1,0,0,0)">
    <g id="copper0">
     <g id="copper1">
      <circle r="1.7008" stroke-width="1.85384" stroke="white" id="connector1pad" cx="8.7876" cy="10.6336" fill="white"/>
      <rect width="3.4016" stroke-width="1.85384" stroke="white" x="7.0868" y="8.9328" height="3.4016" fill="white"/>
      <circle r="1.7008" stroke-width="1.85384" stroke="white" id="connector0pad" cx="8.7876" cy="3.5464" fill="white"/>
     </g>
    </g>
   </g>
  </g>
 </g>
 <g partID="854270680">
  <g transform="translate(0.7816,0.60288)">
   <g id="copper0">
    <circle r="1.883" stroke-width="1.72" stroke="white" id="connector1pad" cx="151.384" cy="144" fill="white"/>
    <circle r="1.883" stroke-width="1.72" stroke="white" id="connector2pad" cx="158.583" cy="144" fill="white"/>
    <circle r="1.883" stroke-width="1.72" stroke="white" id="connector3pad" cx="165.786" cy="144" fill="white"/>
    <circle r="1.883" stroke-width="1.72" stroke="white" id="connector4pad" cx="172.985" cy="144" fill="white"/>
    <circle r="1.883" stroke-width="1.72" stroke="white" id="connector5pad" cx="180.185" cy="144" fill="white"/>
    <circle r="1.884" stroke-width="1.72" stroke="white" id="connector51pad" cx="118.263" cy="7.2" fill="white"/>
    <circle r="1.884" stroke-width="1.72" stroke="white" id="connector52pad" cx="111.065" cy="7.2" fill="white"/>
    <circle r="1.884" stroke-width="1.72" stroke="white" id="connector53pad" cx="103.864" cy="7.2" fill="white"/>
    <circle r="1.884" stroke-width="1.72" stroke="white" id="connector54pad" cx="96.664" cy="7.2" fill="white"/>
    <circle r="1.884" stroke-width="1.72" stroke="white" id="connector55pad" cx="89.464" cy="7.2" fill="white"/>
    <circle r="1.884" stroke-width="1.72" stroke="white" id="connector56pad" cx="82.264" cy="7.2" fill="white"/>
    <circle r="1.884" stroke-width="1.72" stroke="white" id="connector57pad" cx="75.064" cy="7.2" fill="white"/>
    <circle r="1.884" stroke-width="1.72" stroke="white" id="connector58pad" cx="67.864" cy="7.2" fill="white"/>
    <circle r="1.884" stroke-width="1.72" stroke="white" id="connector59pad" cx="60.664" cy="7.2" fill="white"/>
    <circle r="1.884" stroke-width="1.72" stroke="white" id="connector60pad" cx="53.463" cy="7.2" fill="white"/>
    <circle r="1.884" stroke-width="1.72" stroke="white" id="connector61pad" cx="180.185" cy="7.2" fill="white"/>
    <circle r="1.884" stroke-width="1.72" stroke="white" id="connector62pad" cx="172.985" cy="7.2" fill="white"/>
    <circle r="1.884" stroke-width="1.72" stroke="white" id="connector63pad" cx="165.786" cy="7.2" fill="white"/>
    <circle r="1.884" stroke-width="1.72" stroke="white" id="connector64pad" cx="158.583" cy="7.2" fill="white"/>
    <circle r="1.884" stroke-width="1.72" stroke="white" id="connector65pad" cx="151.384" cy="7.2" fill="white"/>
    <circle r="1.884" stroke-width="1.72" stroke="white" id="connector66pad" cx="144.185" cy="7.2" fill="white"/>
    <circle r="1.884" stroke-width="1.72" stroke="white" id="connector67pad" cx="136.985" cy="7.2" fill="white"/>
    <circle r="1.884" stroke-width="1.72" stroke="white" id="connector68pad" cx="129.784" cy="7.2" fill="white"/>
    <circle r="1.883" stroke-width="1.72" stroke="white" id="connector84pad" cx="86.584" cy="144" fill="white"/>
    <circle r="1.883" stroke-width="1.72" stroke="white" id="connector91pin" cx="79.384" cy="144" fill="white"/>
    <circle r="1.883" stroke-width="1.72" stroke="white" id="connector85pad" cx="93.784" cy="144" fill="white"/>
    <circle r="1.883" stroke-width="1.72" stroke="white" id="connector86pad" cx="100.985" cy="144" fill="white"/>
    <circle r="1.883" stroke-width="1.72" stroke="white" id="connector87pad" cx="108.185" cy="144" fill="white"/>
    <circle r="1.883" stroke-width="1.72" stroke="white" id="connector88pad" cx="115.384" cy="144" fill="white"/>
    <circle r="1.883" stroke-width="1.72" stroke="white" id="connector89pad" cx="122.583" cy="144" fill="white"/>
    <circle r="1.883" stroke-width="1.72" stroke="white" id="connector90pad" cx="129.784" cy="144" fill="white"/>
    <circle r="1.883" stroke-width="1.72" stroke="white" id="connector0pad" cx="144.185" cy="144" fill="white"/>
   </g>
  </g>
 </g>
 <g partID="239640">
  <g transform="translate(137.767,72.6029)">
   <g id="copper0" gorn="0.3.0">
    <circle r="4.26331" stroke-width="2.16" stroke="white" connectorname="P$1" id="connector21pad" cx="50.4" gorn="0.3.0.0" cy="7.2" fill="white"/>
    <circle r="2.07666" stroke-width="2.03868" stroke="white" connectorname="VCC" id="connector4pad" cx="7.2" gorn="0.3.0.1" cy="50.4" fill="white"/>
    <circle r="2.07666" stroke-width="2.03868" stroke="white" connectorname="GND" id="connector5pad" cx="14.4" gorn="0.3.0.2" cy="50.4" fill="white"/>
    <circle r="2.07666" stroke-width="2.03868" stroke="white" connectorname="SDA" id="connector6pad" cx="21.6" gorn="0.3.0.3" cy="50.4" fill="white"/>
    <circle r="2.07666" stroke-width="2.03868" stroke="white" connectorname="SCL" id="connector7pad" cx="28.8" gorn="0.3.0.4" cy="50.4" fill="white"/>
    <circle r="2.07666" stroke-width="2.03868" stroke="white" connectorname="DRDY" id="connector8pad" cx="36" gorn="0.3.0.5" cy="50.4" fill="white"/>
    <circle r="2.07666" stroke-width="2.03868" stroke="white" connectorname="ADDR1" id="connector9pad" cx="43.2" gorn="0.3.0.6" cy="50.4" fill="white"/>
    <circle r="2.07666" stroke-width="2.03868" stroke="white" connectorname="ADDR0" id="connector10pad" cx="50.4" gorn="0.3.0.7" cy="50.4" fill="white"/>
    <circle r="4.26331" stroke-width="2.16" stroke="white" connectorname="P$1" id="connector22pad" cx="7.2" gorn="0.3.0.8" cy="7.2" fill="white"/>
   </g>
  </g>
 </g>
 <g partID="241150">
  <g transform="translate(139.013,55.0036)">
   <g transform="matrix(0,1,-1,0,0,0)">
    <g id="copper0">
     <circle r="1.96979" stroke-width="2.10841" stroke="white" id="connector2pad" connectorname="3" cx="11.4481" cy="8.064" fill="white"/>
     <circle r="1.96979" stroke-width="2.10841" stroke="white" id="connector1pad" connectorname="2" cx="7.84813" cy="2.664" fill="white"/>
     <circle r="1.96979" stroke-width="2.10841" stroke="white" id="connector0pad" connectorname="1" cx="4.24813" cy="8.064" fill="white"/>
    </g>
   </g>
  </g>
 </g>
 <g partID="242340">
  <g transform="translate(122.12,49.8422)">
   <g transform="matrix(0,1,-1,0,0,0)">
    <g id="copper0">
     <path stroke-width="1.97" stroke="white" d="M15.503,9.532c-0.966,0,-1.75,0.783,-1.75,1.75s0.784,1.75,1.75,1.75c0.966,0,1.75,-0.782,1.75,-1.75C17.252,10.316,16.469,9.532,15.503,9.532z" id="connector13pad" stroke-miterlimit="10" fill="white"/>
     <path stroke-width="1.97" stroke="white" d="M22.702,9.532c-0.966,0,-1.75,0.783,-1.75,1.75s0.783,1.75,1.75,1.75c0.966,0,1.75,-0.783,1.75,-1.75C24.452,10.315,23.668,9.532,22.702,9.532z" id="connector12pad" stroke-miterlimit="10" fill="white"/>
     <path stroke-width="1.97" stroke="white" d="M29.902,9.532c-0.965,0,-1.75,0.783,-1.75,1.75s0.783,1.75,1.75,1.75s1.75,-0.783,1.75,-1.75C31.653,10.315,30.869,9.532,29.902,9.532z" id="connector11pad" stroke-miterlimit="10" fill="white"/>
     <path stroke-width="1.97" stroke="white" d="M37.103,9.532c-0.965,0,-1.749,0.783,-1.749,1.75s0.784,1.75,1.749,1.75c0.967,0,1.751,-0.783,1.751,-1.75C38.853,10.315,38.07,9.532,37.103,9.532z" id="connector10pad" stroke-miterlimit="10" fill="white"/>
     <path stroke-width="1.97" stroke="white" d="M44.302,9.531c-0.966,0,-1.75,0.784,-1.75,1.75s0.783,1.75,1.75,1.75s1.75,-0.783,1.75,-1.75C46.052,10.315,45.269,9.531,44.302,9.531z" id="connector9pad" stroke-miterlimit="10" fill="white"/>
     <path stroke-width="1.97" stroke="white" d="M51.502,9.532c-0.966,0,-1.75,0.783,-1.75,1.75s0.783,1.75,1.75,1.75s1.75,-0.783,1.75,-1.75C53.252,10.315,52.469,9.532,51.502,9.532z" id="connector8pad" stroke-miterlimit="10" fill="white"/>
    </g>
   </g>
  </g>
 </g>
</svg>
