; NON-PLATED HOLES START AT T1
; THROUGH (PLATED) HOLES START AT T100
M48
INCH
T1C0.086614
T100C0.038417
T101C0.035000
T102C0.038445
T103C0.035433
T104C0.031497
T105C0.031250
T106C0.060350
T107C0.039370
T108C0.015748
T109C0.098425
%
T1
X026149Y009338
X020134Y009330
T100
X015134Y001030
X016134Y001030
X017134Y001030
X025134Y001030
X018134Y001030
X011134Y001030
X012134Y001030
X020134Y001030
X021134Y001030
X022134Y001030
X013134Y001030
X014134Y001030
X023134Y001030
X024134Y001030
T101
X018734Y014230
X015787Y015928
X005551Y018487
X002992Y018487
X011787Y017306
X017634Y018230
X005551Y020259
X007734Y012030
X011787Y015928
X002992Y020259
X018734Y018230
X017634Y014230
X011734Y012030
X015787Y017306
T102
X010534Y020030
X025134Y020030
X011534Y020030
X009534Y020030
X018134Y020030
X019134Y020030
X012534Y020030
X013534Y020030
X020134Y020030
X014534Y020030
X021134Y020030
X022134Y020030
X015534Y020030
X016534Y020030
X023134Y020030
X024134Y020030
X007533Y020030
X008534Y020030
T103
X019734Y012730
X018734Y012730
X019234Y011980
T104
X008307Y016125
X009291Y016125
X004370Y016125
X005354Y016125
T105
X015394Y010039
X015394Y007039
X015394Y011039
X015394Y008039
X015394Y012038
X015394Y009038
T106
X023766Y011846
X023766Y010862
X023766Y013814
X025734Y012830
X023766Y014798
T107
X025134Y003330
X024134Y003330
X023134Y003330
X022134Y003330
X021134Y003330
X020134Y003330
X026134Y003330
T108
X012649Y014951
T109
X026134Y009330
X020134Y009330
T00
M30
