999
dxflib 3.17.0.0
  0
SECTION
  2
HEADER
  9
$ACADVER
  1
AC1015
  9
$HANDSEED
  5
FFFF
  9
$DIMADEC
 70
0
  9
$DIMASZ
 40
2.5
  9
$DIMAUNIT
 70
0
  9
$DIMAZIN
 70
0
  9
$DIMDEC
 70
4
  9
$DIMDLI
 40
0.36
  9
$DIMDSEP
 70
46
  9
$DIMEXE
 40
1.25
  9
$DIMEXO
 40
0.625
  9
$DIMGAP
 40
0.625
  9
$DIMLUNIT
 70
2
  9
$DIMSCALE
 40
1.0
  9
$DIMTSZ
 40
0.0
  9
$DIMTXT
 40
2.5
  9
$DIMZIN
 70
0
  9
$DWGCODEPAGE
  3
ANSI_1252
  9
$INSUNITS
 70
4
  9
$LTSCALE
 40
1.0
  9
$MAXACTVP
 70
64
  9
$MEASUREMENT
 70
1
  9
$PDMODE
 70
0
  9
$PDSIZE
 40
0.0
  9
$PLIMMAX
 10
210.0
 20
297.0
  9
$PLIMMIN
 10
0.0
 20
0.0
  0
ENDSEC
  0
SECTION
  2
TABLES
  0
TABLE
  2
VPORT
  5
8
100
AcDbSymbolTable
 70
1
  0
VPORT
  5
30
100
AcDbSymbolTableRecord
100
AcDbViewportTableRecord
  2
*Active
 70
0
 10
0.0
 20
0.0
 11
1.0
 21
1.0
 12
286.3055555555554861
 22
148.5
 13
0.0
 23
0.0
 14
10.0
 24
10.0
 15
10.0
 25
10.0
 16
0.0
 26
0.0
 36
1.0
 17
0.0
 27
0.0
 37
0.0
 40
297.0
 41
1.92798353909465
 42
50.0
 43
0.0
 44
0.0
 50
0.0
 51
0.0
 71
0
 72
100
 73
1
 74
3
 75
1
 76
1
 77
0
 78
0
281
0
 65
1
110
0.0
120
0.0
130
0.0
111
1.0
121
0.0
131
0.0
112
0.0
122
1.0
132
0.0
 79
0
146
0.0
  0
ENDTAB
  0
TABLE
  2
LTYPE
  5
5
100
AcDbSymbolTable
 70
41
  0
LTYPE
  5
16
100
AcDbSymbolTableRecord
100
AcDbLinetypeTableRecord
  2
CONTINUOUS
 70
0
  3
Solid line
 72
65
 73
0
 40
0.0
  0
LTYPE
  5
14
100
AcDbSymbolTableRecord
100
AcDbLinetypeTableRecord
  2
ByBlock
 70
0
  3

 72
65
 73
0
 40
0.0
  0
LTYPE
  5
31
100
AcDbSymbolTableRecord
100
AcDbLinetypeTableRecord
  2
ACAD_ISO15W100
 70
0
  3
ISO double-dash triple-dot __ __ . . . __ __ . .
 72
65
 73
10
 40
39.0000000000000071
 49
12.0
 74
0
 49
-3.0
 74
0
 49
12.0
 74
0
 49
-2.9500000000000002
 74
0
 49
0.1
 74
0
 49
-2.9000000000000004
 74
0
 49
0.1
 74
0
 49
-2.9000000000000004
 74
0
 49
0.1
 74
0
 49
-2.9500000000000002
 74
0
  0
LTYPE
  5
32
100
AcDbSymbolTableRecord
100
AcDbLinetypeTableRecord
  2
DASHDOT2
 70
0
  3
Dash dot (.5x) _._._._._._._._._._._._._._._.
 72
65
 73
4
 40
12.6999999999999993
 49
6.3499999999999996
 74
0
 49
-3.125
 74
0
 49
0.1
 74
0
 49
-3.125
 74
0
  0
LTYPE
  5
33
100
AcDbSymbolTableRecord
100
AcDbLinetypeTableRecord
  2
ACAD_ISO07W100
 70
0
  3
ISO dot . . . . . . . . . . . . . . . . . . . . 
 72
65
 73
2
 40
3.0
 49
0.1
 74
0
 49
-2.8999999999999999
 74
0
  0
LTYPE
  5
34
100
AcDbSymbolTableRecord
100
AcDbLinetypeTableRecord
  2
DASHED2
 70
0
  3
Dashed (.5x) _ _ _ _ _ _ _ _ _ _ _ _ _ _ _ _ _
 72
65
 73
2
 40
9.5249999999999986
 49
6.3499999999999996
 74
0
 49
-3.1749999999999998
 74
0
  0
LTYPE
  5
35
100
AcDbSymbolTableRecord
100
AcDbLinetypeTableRecord
  2
PHANTOM2
 70
0
  3
Phantom (.5x) ___ _ _ ___ _ _ ___ _ _ ___ _ _
 72
65
 73
6
 40
31.7500000000000036
 49
15.875
 74
0
 49
-3.1749999999999998
 74
0
 49
3.1749999999999998
 74
0
 49
-3.1749999999999998
 74
0
 49
3.1749999999999998
 74
0
 49
-3.1749999999999998
 74
0
  0
LTYPE
  5
36
100
AcDbSymbolTableRecord
100
AcDbLinetypeTableRecord
  2
ACAD_ISO14W100
 70
0
  3
ISO dash triple-dot __ . . . __ . . . __ . . . _
 72
65
 73
8
 40
24.0000000000000036
 49
12.0
 74
0
 49
-2.9500000000000002
 74
0
 49
0.1
 74
0
 49
-2.9000000000000004
 74
0
 49
0.1
 74
0
 49
-2.9000000000000004
 74
0
 49
0.1
 74
0
 49
-2.9500000000000002
 74
0
  0
LTYPE
  5
37
100
AcDbSymbolTableRecord
100
AcDbLinetypeTableRecord
  2
DOT
 70
0
  3
Dot . . . . . . . . . . . . . . . . . . . . . .
 72
65
 73
2
 40
6.3499999999999996
 49
0.1
 74
0
 49
-6.25
 74
0
  0
LTYPE
  5
38
100
AcDbSymbolTableRecord
100
AcDbLinetypeTableRecord
  2
ACAD_ISO06W100
 70
0
  3
ISO long-dash triple-dot ____ ... ____ ... ____
 72
65
 73
8
 40
36.0000000000000071
 49
24.0
 74
0
 49
-2.9500000000000002
 74
0
 49
0.1
 74
0
 49
-2.9000000000000004
 74
0
 49
0.1
 74
0
 49
-2.9000000000000004
 74
0
 49
0.1
 74
0
 49
-2.9500000000000002
 74
0
  0
LTYPE
  5
39
100
AcDbSymbolTableRecord
100
AcDbLinetypeTableRecord
  2
HIDDENX2
 70
0
  3
Hidden (2x) ____ ____ ____ ____ ____ ____ ____ 
 72
65
 73
2
 40
19.0499999999999972
 49
12.6999999999999993
 74
0
 49
-6.3499999999999996
 74
0
  0
LTYPE
  5
3A
100
AcDbSymbolTableRecord
100
AcDbLinetypeTableRecord
  2
DOTX2
 70
0
  3
Dot (2x) .  .  .  .  .  .  .  .  .  .  .  .  .
 72
65
 73
2
 40
12.6999999999999993
 49
0.1
 74
0
 49
-12.5999999999999996
 74
0
  0
LTYPE
  5
3B
100
AcDbSymbolTableRecord
100
AcDbLinetypeTableRecord
  2
ACAD_ISO13W100
 70
0
  3
ISO double-dash double-dot __ __ . . __ __ . . _
 72
65
 73
8
 40
36.0000000000000071
 49
12.0
 74
0
 49
-3.0
 74
0
 49
12.0
 74
0
 49
-2.9500000000000002
 74
0
 49
0.1
 74
0
 49
-2.9000000000000004
 74
0
 49
0.1
 74
0
 49
-2.9500000000000002
 74
0
  0
LTYPE
  5
3C
100
AcDbSymbolTableRecord
100
AcDbLinetypeTableRecord
  2
CENTER2
 70
0
  3
Center (.5x) ___ _ ___ _ ___ _ ___ _ ___ _ ___
 72
65
 73
4
 40
28.5750000000000028
 49
19.0500000000000007
 74
0
 49
-3.1749999999999998
 74
0
 49
3.1749999999999998
 74
0
 49
-3.1749999999999998
 74
0
  0
LTYPE
  5
3D
100
AcDbSymbolTableRecord
100
AcDbLinetypeTableRecord
  2
ACAD_ISO05W100
 70
0
  3
ISO long-dash double-dot ____ .. ____ .. ____ . 
 72
65
 73
6
 40
33.0000000000000071
 49
24.0
 74
0
 49
-2.9500000000000002
 74
0
 49
0.1
 74
0
 49
-2.9000000000000004
 74
0
 49
0.1
 74
0
 49
-2.9500000000000002
 74
0
  0
LTYPE
  5
3E
100
AcDbSymbolTableRecord
100
AcDbLinetypeTableRecord
  2
CENTER
 70
0
  3
Center ____ _ ____ _ ____ _ ____ _ ____ _ ____
 72
65
 73
4
 40
50.8000000000000043
 49
31.75
 74
0
 49
-6.3499999999999996
 74
0
 49
6.3499999999999996
 74
0
 49
-6.3499999999999996
 74
0
  0
LTYPE
  5
3F
100
AcDbSymbolTableRecord
100
AcDbLinetypeTableRecord
  2
DIVIDE
 70
0
  3
Divide ____ . . ____ . . ____ . . ____ . . ____
 72
65
 73
6
 40
31.7500000000000036
 49
12.6999999999999993
 74
0
 49
-6.2999999999999998
 74
0
 49
0.1
 74
0
 49
-6.25
 74
0
 49
0.1
 74
0
 49
-6.2999999999999998
 74
0
  0
LTYPE
  5
40
100
AcDbSymbolTableRecord
100
AcDbLinetypeTableRecord
  2
ACAD_ISO12W100
 70
0
  3
ISO dash double-dot __ . . __ . . __ . . __ . . 
 72
65
 73
6
 40
21.0
 49
12.0
 74
0
 49
-2.9500000000000002
 74
0
 49
0.1
 74
0
 49
-2.9000000000000004
 74
0
 49
0.1
 74
0
 49
-2.9500000000000002
 74
0
  0
LTYPE
  5
41
100
AcDbSymbolTableRecord
100
AcDbLinetypeTableRecord
  2
DASHED
 70
0
  3
Dashed __ __ __ __ __ __ __ __ __ __ __ __ __ _
 72
65
 73
2
 40
19.0499999999999972
 49
12.6999999999999993
 74
0
 49
-6.3499999999999996
 74
0
  0
LTYPE
  5
42
100
AcDbSymbolTableRecord
100
AcDbLinetypeTableRecord
  2
DASHDOT
 70
0
  3
Dash dot __ . __ . __ . __ . __ . __ . __ . __
 72
65
 73
4
 40
25.4000000000000021
 49
12.6999999999999993
 74
0
 49
-6.2999999999999998
 74
0
 49
0.1
 74
0
 49
-6.2999999999999998
 74
0
  0
LTYPE
  5
43
100
AcDbSymbolTableRecord
100
AcDbLinetypeTableRecord
  2
ACAD_ISO04W100
 70
0
  3
ISO long-dash dot ____ . ____ . ____ . ____ . _
 72
65
 73
4
 40
30.0
 49
24.0
 74
0
 49
-2.9500000000000002
 74
0
 49
0.1
 74
0
 49
-2.9500000000000002
 74
0
  0
LTYPE
  5
15
100
AcDbSymbolTableRecord
100
AcDbLinetypeTableRecord
  2
ByLayer
 70
0
  3

 72
65
 73
0
 40
0.0
  0
LTYPE
  5
44
100
AcDbSymbolTableRecord
100
AcDbLinetypeTableRecord
  2
DIVIDEX2
 70
0
  3
Divide (2x) ________  .  .  ________  .  .  _
 72
65
 73
6
 40
63.5
 49
25.3999999999999986
 74
0
 49
-12.6499999999999986
 74
0
 49
0.1
 74
0
 49
-12.5999999999999979
 74
0
 49
0.1
 74
0
 49
-12.6499999999999986
 74
0
  0
LTYPE
  5
45
100
AcDbSymbolTableRecord
100
AcDbLinetypeTableRecord
  2
ACAD_ISO11W100
 70
0
  3
ISO double-dash dot __ __ . __ __ . __ __ . __ _
 72
65
 73
6
 40
33.0
 49
12.0
 74
0
 49
-3.0
 74
0
 49
12.0
 74
0
 49
-2.9500000000000002
 74
0
 49
0.1
 74
0
 49
-2.9500000000000002
 74
0
  0
LTYPE
  5
46
100
AcDbSymbolTableRecord
100
AcDbLinetypeTableRecord
  2
ACAD_ISO03W100
 70
0
  3
ISO dash space __    __    __    __    __    __
 72
65
 73
2
 40
30.0
 49
12.0
 74
0
 49
-18.0
 74
0
  0
LTYPE
  5
47
100
AcDbSymbolTableRecord
100
AcDbLinetypeTableRecord
  2
DASHDOTX2
 70
0
  3
Dash dot (2x) ____  .  ____  .  ____  .  ___
 72
65
 73
4
 40
50.7999999999999972
 49
25.3999999999999986
 74
0
 49
-12.6499999999999986
 74
0
 49
0.1
 74
0
 49
-12.6499999999999986
 74
0
  0
LTYPE
  5
48
100
AcDbSymbolTableRecord
100
AcDbLinetypeTableRecord
  2
PHANTOM
 70
0
  3
Phantom ______  __  __  ______  __  __  ______ 
 72
65
 73
6
 40
63.5000000000000071
 49
31.75
 74
0
 49
-6.3499999999999996
 74
0
 49
6.3499999999999996
 74
0
 49
-6.3499999999999996
 74
0
 49
6.3499999999999996
 74
0
 49
-6.3499999999999996
 74
0
  0
LTYPE
  5
49
100
AcDbSymbolTableRecord
100
AcDbLinetypeTableRecord
  2
BORDERX2
 70
0
  3
Border (2x) ____  ____  .  ____  ____  .  ___
 72
65
 73
6
 40
88.8999999999999773
 49
25.3999999999999986
 74
0
 49
-12.6999999999999993
 74
0
 49
25.3999999999999986
 74
0
 49
-12.6499999999999986
 74
0
 49
0.1
 74
0
 49
-12.6499999999999986
 74
0
  0
LTYPE
  5
4A
100
AcDbSymbolTableRecord
100
AcDbLinetypeTableRecord
  2
DOT2
 70
0
  3
Dot (.5x) .....................................
 72
65
 73
2
 40
3.1749999999999998
 49
0.1
 74
0
 49
-3.0749999999999997
 74
0
  0
LTYPE
  5
4B
100
AcDbSymbolTableRecord
100
AcDbLinetypeTableRecord
  2
ACAD_ISO10W100
 70
0
  3
ISO dash dot __ . __ . __ . __ . __ . __ . __ . 
 72
65
 73
4
 40
18.0
 49
12.0
 74
0
 49
-2.9500000000000002
 74
0
 49
0.1
 74
0
 49
-2.9500000000000002
 74
0
  0
LTYPE
  5
4C
100
AcDbSymbolTableRecord
100
AcDbLinetypeTableRecord
  2
BORDER
 70
0
  3
Border __ __ . __ __ . __ __ . __ __ . __ __ .
 72
65
 73
6
 40
44.4499999999999957
 49
12.6999999999999993
 74
0
 49
-6.3499999999999996
 74
0
 49
12.6999999999999993
 74
0
 49
-6.2999999999999998
 74
0
 49
0.1
 74
0
 49
-6.2999999999999998
 74
0
  0
LTYPE
  5
4D
100
AcDbSymbolTableRecord
100
AcDbLinetypeTableRecord
  2
BORDER2
 70
0
  3
Border (.5x) __.__.__.__.__.__.__.__.__.__.__.
 72
65
 73
6
 40
22.2250000000000014
 49
6.3499999999999996
 74
0
 49
-3.1749999999999998
 74
0
 49
6.3499999999999996
 74
0
 49
-3.125
 74
0
 49
0.1
 74
0
 49
-3.125
 74
0
  0
LTYPE
  5
4E
100
AcDbSymbolTableRecord
100
AcDbLinetypeTableRecord
  2
ACAD_ISO02W100
 70
0
  3
ISO dash __ __ __ __ __ __ __ __ __ __ __ __ __
 72
65
 73
2
 40
15.0
 49
12.0
 74
0
 49
-3.0
 74
0
  0
LTYPE
  5
4F
100
AcDbSymbolTableRecord
100
AcDbLinetypeTableRecord
  2
DIVIDE2
 70
0
  3
Divide (.5x) __..__..__..__..__..__..__..__.._
 72
65
 73
6
 40
15.8749999999999982
 49
6.3499999999999996
 74
0
 49
-3.125
 74
0
 49
0.1
 74
0
 49
-3.0750000000000002
 74
0
 49
0.1
 74
0
 49
-3.125
 74
0
  0
LTYPE
  5
50
100
AcDbSymbolTableRecord
100
AcDbLinetypeTableRecord
  2
PHANTOMX2
 70
0
  3
Phantom (2x) ____________    ____    ____   _
 72
65
 73
6
 40
127.0000000000000142
 49
63.5
 74
0
 49
-12.6999999999999993
 74
0
 49
12.6999999999999993
 74
0
 49
-12.6999999999999993
 74
0
 49
12.6999999999999993
 74
0
 49
-12.6999999999999993
 74
0
  0
LTYPE
  5
51
100
AcDbSymbolTableRecord
100
AcDbLinetypeTableRecord
  2
HIDDEN
 70
0
  3
Hidden __ __ __ __ __ __ __ __ __ __ __ __ __ __
 72
65
 73
2
 40
9.5249999999999986
 49
6.3499999999999996
 74
0
 49
-3.1749999999999998
 74
0
  0
LTYPE
  5
52
100
AcDbSymbolTableRecord
100
AcDbLinetypeTableRecord
  2
HIDDEN2
 70
0
  3
Hidden (.5x) _ _ _ _ _ _ _ _ _ _ _ _ _ _ _ _ _ 
 72
65
 73
2
 40
4.7624999999999993
 49
3.1749999999999998
 74
0
 49
-1.5874999999999999
 74
0
  0
LTYPE
  5
53
100
AcDbSymbolTableRecord
100
AcDbLinetypeTableRecord
  2
DASHEDX2
 70
0
  3
Dashed (2x) ____  ____  ____  ____  ____  ___
 72
65
 73
2
 40
38.0999999999999943
 49
25.3999999999999986
 74
0
 49
-12.6999999999999993
 74
0
  0
LTYPE
  5
54
100
AcDbSymbolTableRecord
100
AcDbLinetypeTableRecord
  2
ACAD_ISO09W100
 70
0
  3
ISO long-dash double-short-dash ____ __ __ ____
 72
65
 73
6
 40
45.0
 49
24.0
 74
0
 49
-3.0
 74
0
 49
6.0
 74
0
 49
-3.0
 74
0
 49
6.0
 74
0
 49
-3.0
 74
0
  0
LTYPE
  5
55
100
AcDbSymbolTableRecord
100
AcDbLinetypeTableRecord
  2
CENTERX2
 70
0
  3
Center (2x) ________  __  ________  __  _____
 72
65
 73
4
 40
101.6000000000000085
 49
63.5
 74
0
 49
-12.6999999999999993
 74
0
 49
12.6999999999999993
 74
0
 49
-12.6999999999999993
 74
0
  0
LTYPE
  5
56
100
AcDbSymbolTableRecord
100
AcDbLinetypeTableRecord
  2
ACAD_ISO08W100
 70
0
  3
ISO long-dash short-dash ____ __ ____ __ ____ _
 72
65
 73
4
 40
36.0
 49
24.0
 74
0
 49
-3.0
 74
0
 49
6.0
 74
0
 49
-3.0
 74
0
  0
ENDTAB
  0
TABLE
  2
LAYER
  5
2
100
AcDbSymbolTable
 70
3
  0
LAYER
  5
57
100
AcDbSymbolTableRecord
100
AcDbLayerTableRecord
  2
Dimensions
 70
0
 62
3
420
65280
  6
CONTINUOUS
370
5
390
F
  0
LAYER
  5
10
100
AcDbSymbolTableRecord
100
AcDbLayerTableRecord
  2
0
 70
0
 62
7
420
0
  6
CONTINUOUS
370
25
390
F
  0
LAYER
  5
58
100
AcDbSymbolTableRecord
100
AcDbLayerTableRecord
  2
Grabado
 70
0
 62
1
420
16711680
  6
CONTINUOUS
370
25
390
F
  0
ENDTAB
  0
TABLE
  2
STYLE
  5
3
100
AcDbSymbolTable
 70
4
  0
STYLE
  5
59
100
AcDbSymbolTableRecord
100
AcDbTextStyleTableRecord
  2
Standard
 70
0
 40
0.0
 41
1.0
 50
0.0
 71
0
 42
2.5
  3

  4

1001
ACAD
1000
txt
1071
0
  0
STYLE
  5
5A
100
AcDbSymbolTableRecord
100
AcDbTextStyleTableRecord
  2
textstyle0
 70
0
 40
0.0
 41
1.0
 50
0.0
 71
0
 42
1.0
  3

  4

1001
ACAD
1000
Liberation Sans
1071
0
  0
STYLE
  5
5B
100
AcDbSymbolTableRecord
100
AcDbTextStyleTableRecord
  2
textstyle1
 70
0
 40
0.0
 41
1.0
 50
0.0
 71
0
 42
1.0
  3

  4

1001
ACAD
1000
Liberation Sans
1071
0
  0
STYLE
  5
5C
100
AcDbSymbolTableRecord
100
AcDbTextStyleTableRecord
  2
textstyle2
 70
0
 40
0.0
 41
1.0
 50
0.0
 71
0
 42
1.0
  3

  4

1001
ACAD
1000
Liberation Sans
1071
0
  0
ENDTAB
  0
TABLE
  2
VIEW
  5
6
100
AcDbSymbolTable
 70
0
  0
ENDTAB
  0
TABLE
  2
UCS
  5
7
100
AcDbSymbolTable
 70
0
  0
ENDTAB
  0
TABLE
  2
APPID
  5
9
100
AcDbSymbolTable
 70
1
  0
APPID
  5
12
100
AcDbSymbolTableRecord
100
AcDbRegAppTableRecord
  2
ACAD
 70
0
  0
APPID
  5
5D
100
AcDbSymbolTableRecord
100
AcDbRegAppTableRecord
  2
QCAD
 70
0
  0
ENDTAB
  0
TABLE
  2
DIMSTYLE
  5
A
100
AcDbSymbolTable
 70
1
100
AcDbDimStyleTable
 71
0
  0
DIMSTYLE
105
27
100
AcDbSymbolTableRecord
100
AcDbDimStyleTableRecord
  2
Standard
 41
2.5
 42
0.625
 43
3.75
 44
1.25
 70
0
 73
0
 74
0
 77
1
 78
8
140
2.5
141
2.5
143
0.03937007874016
147
0.625
171
3
172
1
271
2
272
2
274
3
278
44
283
0
284
8
340
59
  0
ENDTAB
  0
TABLE
  2
BLOCK_RECORD
  5
1
100
AcDbSymbolTable
 70
1
  0
BLOCK_RECORD
  5
1F
100
AcDbSymbolTableRecord
100
AcDbBlockTableRecord
  2
*Model_Space
340
22
  0
BLOCK_RECORD
  5
1B
100
AcDbSymbolTableRecord
100
AcDbBlockTableRecord
  2
*Paper_Space
340
1E
  0
BLOCK_RECORD
  5
23
100
AcDbSymbolTableRecord
100
AcDbBlockTableRecord
  2
*Paper_Space0
340
26
  0
BLOCK_RECORD
  5
5E
100
AcDbSymbolTableRecord
100
AcDbBlockTableRecord
  2
osh
340
0
  0
ENDTAB
  0
ENDSEC
  0
SECTION
  2
BLOCKS
  0
BLOCK
  5
20
100
AcDbEntity
  8
0
100
AcDbBlockBegin
  2
*Model_Space
 70
0
 10
0.0
 20
0.0
 30
0.0
  3
*Model_Space
  1

  0
ENDBLK
  5
21
100
AcDbEntity
  8
0
100
AcDbBlockEnd
  0
BLOCK
  5
1C
100
AcDbEntity
 67
1
  8
0
100
AcDbBlockBegin
  2
*Paper_Space
 70
0
 10
0.0
 20
0.0
 30
0.0
  3
*Paper_Space
  1

  0
ENDBLK
  5
1D
100
AcDbEntity
 67
1
  8
0
100
AcDbBlockEnd
  0
BLOCK
  5
24
100
AcDbEntity
  8
0
100
AcDbBlockBegin
  2
*Paper_Space0
 70
0
 10
0.0
 20
0.0
 30
0.0
  3
*Paper_Space0
  1

  0
ENDBLK
  5
25
100
AcDbEntity
  8
0
100
AcDbBlockEnd
  0
BLOCK
  5
5F
100
AcDbEntity
  8
0
100
AcDbBlockBegin
  2
osh
 70
0
 10
0.0
 20
0.0
 30
0.0
  3
osh
  1

  0
ENDBLK
  5
60
100
AcDbEntity
  8
0
100
AcDbBlockEnd
  0
ENDSEC
  0
SECTION
  2
ENTITIES
  0
LINE
  5
61
100
AcDbEntity
  8
0
 62
256
370
-1
 48
1.0
  6
ByLayer
100
AcDbLine
 10
-242.3457895888744247
 20
92.5969470908721917
 30
0.0
 11
-242.0655301393518357
 21
92.3002865873492055
 31
0.0
  0
LINE
  5
62
100
AcDbEntity
  8
0
 62
256
370
-1
 48
1.0
  6
ByLayer
100
AcDbLine
 10
-244.5991498285954435
 20
118.2073741092901997
 30
0.0
 11
-244.7930782807094374
 21
118.5664626343891968
 31
0.0
  0
LINE
  5
63
100
AcDbEntity
  8
0
 62
256
370
-1
 48
1.0
  6
ByLayer
100
AcDbLine
 10
-244.8874598318844278
 20
118.9635078915011945
 30
0.0
 11
-244.8758625353824527
 21
119.3714519025022014
 31
0.0
  0
LINE
  5
64
100
AcDbEntity
  8
0
 62
256
370
-1
 48
1.0
  6
ByLayer
100
AcDbLine
 10
-244.8758625353824527
 20
91.6322430177432068
 30
0.0
 11
-244.7590767277924328
 21
92.0232850724422065
 31
0.0
  0
LINE
  5
65
100
AcDbEntity
  8
0
 62
256
370
-1
 48
1.0
  6
ByLayer
100
AcDbLine
 10
-243.5803570957770319
 20
89.8407033545321951
 30
0.0
 11
-243.9713991504764294
 21
89.9574891621211918
 31
0.0
  0
LINE
  5
66
100
AcDbEntity
  8
0
 62
256
370
-1
 48
1.0
  6
ByLayer
100
AcDbLine
 10
-241.9056032401545338
 20
118.4843756241961898
 30
0.0
 11
-242.119618799041433
 21
118.1368843955991963
 31
0.0
  0
LINE
  5
67
100
AcDbEntity
  8
0
 62
256
370
-1
 48
1.0
  6
ByLayer
100
AcDbLine
 10
-244.8874598318844278
 20
91.2242990067431947
 30
0.0
 11
-244.8758625353824527
 21
91.6322430177432068
 31
0.0
  0
LINE
  5
68
100
AcDbEntity
  8
0
 62
256
370
-1
 48
1.0
  6
ByLayer
100
AcDbLine
 10
-242.7753678276644393
 20
89.9234876092041873
 30
0.0
 11
-243.1724130847764513
 21
89.8291060580291969
 31
0.0
  0
LINE
  5
69
100
AcDbEntity
  8
0
 62
256
370
-1
 48
1.0
  6
ByLayer
100
AcDbLine
 10
-243.9713991504764294
 20
117.6966980468801864
 30
0.0
 11
-244.3188903790724282
 21
117.9107136057662046
 31
0.0
  0
LINE
  5
6A
100
AcDbEntity
  8
0
 62
256
370
-1
 48
1.0
  6
ByLayer
100
AcDbLine
 10
-194.5758625353822708
 20
76.6868148384971846
 30
0.0
 11
-194.4590767277927625
 21
77.0778568931961843
 31
0.0
  0
LINE
  5
6B
100
AcDbEntity
  8
0
 62
256
370
-1
 48
1.0
  6
ByLayer
100
AcDbLine
 10
-242.119618799041433
 20
118.1368843955991963
 30
0.0
 11
-242.416279302564817
 21
117.85662494607719
 31
0.0
  0
LINE
  5
6C
100
AcDbEntity
  8
0
 62
256
370
-1
 48
1.0
  6
ByLayer
100
AcDbLine
 10
-192.8724130847763831
 20
74.8836778787832031
 30
0.0
 11
-193.2803570957770489
 21
74.8952751752852066
 31
0.0
  0
LINE
  5
6D
100
AcDbEntity
  8
0
 62
256
370
-1
 48
1.0
  6
ByLayer
100
AcDbLine
 10
-244.5450611689054199
 20
92.3707763010392
 30
0.0
 11
-244.2484006653824338
 21
92.6510357505621869
 31
0.0
  0
LINE
  5
6E
100
AcDbEntity
  8
0
 62
256
370
-1
 48
1.0
  6
ByLayer
100
AcDbLine
 10
-243.0843228721702189
 20
120.6669573421071959
 30
0.0
 11
-242.693280817471333
 21
120.5501715345182134
 31
0.0
  0
LINE
  5
6F
100
AcDbEntity
  8
0
 62
256
370
-1
 48
1.0
  6
ByLayer
100
AcDbLine
 10
-194.5874598318848712
 20
76.2788708274972009
 30
0.0
 11
-194.5758625353822708
 21
76.6868148384971846
 31
0.0
  0
LINE
  5
70
100
AcDbEntity
  8
0
 62
256
370
-1
 48
1.0
  6
ByLayer
100
AcDbLine
 10
-194.245061168905977
 20
77.4253481217932062
 30
0.0
 11
-193.9484006653825645
 21
77.7056075713161931
 31
0.0
  0
LINE
  5
71
100
AcDbEntity
  8
0
 62
256
370
-1
 48
1.0
  6
ByLayer
100
AcDbLine
 10
-192.475367827664428
 20
74.9780594299581935
 30
0.0
 11
-192.8724130847763831
 21
74.8836778787832031
 31
0.0
  0
LINE
  5
72
100
AcDbEntity
  8
0
 62
256
370
-1
 48
1.0
  6
ByLayer
100
AcDbLine
 10
-193.6713991504759349
 20
75.0120609828751981
 30
0.0
 11
-194.0188903790729285
 21
75.2260765417621826
 31
0.0
  0
LINE
  5
73
100
AcDbEntity
  8
0
 62
256
370
-1
 48
1.0
  6
ByLayer
100
AcDbLine
 10
-193.5893121402829706
 20
77.899536023430187
 30
0.0
 11
-193.1922668831709586
 21
77.9939175746052058
 31
0.0
  0
LINE
  5
74
100
AcDbEntity
  8
0
 62
256
370
-1
 48
1.0
  6
ByLayer
100
AcDbLine
 10
-194.4590767277927625
 20
77.0778568931961843
 30
0.0
 11
-194.245061168905977
 21
77.4253481217932062
 31
0.0
  0
LINE
  5
75
100
AcDbEntity
  8
0
 62
256
370
-1
 48
1.0
  6
ByLayer
100
AcDbLine
 10
-194.0188903790729285
 20
75.2260765417621826
 30
0.0
 11
-194.2991498285956027
 21
75.5227370452851972
 31
0.0
  0
LINE
  5
76
100
AcDbEntity
  8
0
 62
256
370
-1
 48
1.0
  6
ByLayer
100
AcDbLine
 10
-244.7590767277924328
 20
119.7624939572011868
 30
0.0
 11
-244.5450611689054199
 21
120.1099851857982088
 31
0.0
  0
LINE
  5
77
100
AcDbEntity
  8
0
 62
256
370
-1
 48
1.0
  6
ByLayer
100
AcDbLine
 10
-244.8758625353824527
 20
119.3714519025022014
 30
0.0
 11
-244.7590767277924328
 21
119.7624939572011868
 31
0.0
  0
LINE
  5
78
100
AcDbEntity
  8
0
 62
256
370
-1
 48
1.0
  6
ByLayer
100
AcDbLine
 10
-191.6056032401546929
 20
75.7997385601921962
 30
0.0
 11
-191.8196187990414217
 21
75.4522473315952027
 31
0.0
  0
LINE
  5
79
100
AcDbEntity
  8
0
 62
256
370
-1
 48
1.0
  6
ByLayer
100
AcDbLine
 10
-191.7655301393518528
 20
77.3548584081031834
 30
0.0
 11
-191.5716016872380294
 21
76.9957698830031916
 31
0.0
  0
LINE
  5
7A
100
AcDbEntity
  8
0
 62
256
370
-1
 48
1.0
  6
ByLayer
100
AcDbLine
 10
-193.9484006653825645
 20
77.7056075713161931
 30
0.0
 11
-193.5893121402829706
 21
77.899536023430187
 31
0.0
  0
LINE
  5
7B
100
AcDbEntity
  8
0
 62
256
370
-1
 48
1.0
  6
ByLayer
100
AcDbLine
 10
-191.8196187990414217
 20
75.4522473315952027
 30
0.0
 11
-192.1162793025648341
 21
75.1719878820721874
 31
0.0
  0
LINE
  5
7C
100
AcDbEntity
  8
0
 62
256
370
-1
 48
1.0
  6
ByLayer
100
AcDbLine
 10
-244.7930782807094374
 20
90.8272537496311827
 30
0.0
 11
-244.8874598318844278
 21
91.2242990067431947
 31
0.0
  0
LINE
  5
7D
100
AcDbEntity
  8
0
 62
256
370
-1
 48
1.0
  6
ByLayer
100
AcDbLine
 10
-244.5450611689054199
 20
120.1099851857982088
 30
0.0
 11
-244.2484006653824338
 21
120.3902446353212099
 31
0.0
  0
LINE
  5
7E
100
AcDbEntity
  8
0
 62
256
370
-1
 48
1.0
  6
ByLayer
100
AcDbLine
 10
-241.7772201360625388
 20
91.544152805137216
 30
0.0
 11
-241.7888174325651391
 21
91.1362087941371897
 31
0.0
  0
LINE
  5
7F
100
AcDbEntity
  8
0
 62
256
370
-1
 48
1.0
  6
ByLayer
100
AcDbLine
 10
-191.4772201360625559
 20
76.5987246258911796
 30
0.0
 11
-191.4888174325651846
 21
76.1907806148902012
 31
0.0
  0
LINE
  5
80
100
AcDbEntity
  8
0
 62
256
370
-1
 48
1.0
  6
ByLayer
100
AcDbLine
 10
-243.5803570957770319
 20
117.579912239290195
 30
0.0
 11
-243.9713991504764294
 21
117.6966980468801864
 31
0.0
  0
LINE
  5
81
100
AcDbEntity
  8
0
 62
256
370
-1
 48
1.0
  6
ByLayer
100
AcDbLine
 10
-242.0655301393518357
 20
92.3002865873492055
 30
0.0
 11
-241.8716016872380408
 21
91.9411980622491853
 31
0.0
  0
LINE
  5
82
100
AcDbEntity
  8
0
 62
256
370
-1
 48
1.0
  6
ByLayer
100
AcDbLine
 10
-241.8716016872380408
 20
91.9411980622491853
 30
0.0
 11
-241.7772201360625388
 21
91.544152805137216
 31
0.0
  0
LINE
  5
83
100
AcDbEntity
  8
0
 62
256
370
-1
 48
1.0
  6
ByLayer
100
AcDbLine
 10
-244.3188903790724282
 20
117.9107136057662046
 30
0.0
 11
-244.5991498285954435
 21
118.2073741092901997
 31
0.0
  0
LINE
  5
84
100
AcDbEntity
  8
0
 62
256
370
-1
 48
1.0
  6
ByLayer
100
AcDbLine
 10
-242.416279302564817
 20
90.1174160613181812
 30
0.0
 11
-242.7753678276644393
 21
89.9234876092041873
 31
0.0
  0
LINE
  5
85
100
AcDbEntity
  8
0
 62
256
370
-1
 48
1.0
  6
ByLayer
100
AcDbLine
 10
-191.4888174325651846
 20
76.1907806148902012
 30
0.0
 11
-191.6056032401546929
 21
75.7997385601921962
 31
0.0
  0
LINE
  5
86
100
AcDbEntity
  8
0
 62
256
370
-1
 48
1.0
  6
ByLayer
100
AcDbLine
 10
-242.119618799041433
 20
90.3976755108412107
 30
0.0
 11
-242.416279302564817
 21
90.1174160613181812
 31
0.0
  0
LINE
  5
87
100
AcDbEntity
  8
0
 62
256
370
-1
 48
1.0
  6
ByLayer
100
AcDbLine
 10
-192.39328081747135
 20
77.8655344705131824
 30
0.0
 11
-192.0457895888743849
 21
77.6515189116261979
 31
0.0
  0
LINE
  5
88
100
AcDbEntity
  8
0
 62
256
370
-1
 48
1.0
  6
ByLayer
100
AcDbLine
 10
-244.3188903790724282
 20
90.171504721008219
 30
0.0
 11
-244.5991498285954435
 21
90.4681652245311909
 31
0.0
  0
LINE
  5
89
100
AcDbEntity
  8
0
 62
256
370
-1
 48
1.0
  6
ByLayer
100
AcDbLine
 10
-244.5991498285954435
 20
90.4681652245311909
 30
0.0
 11
-244.7930782807094374
 21
90.8272537496311827
 31
0.0
  0
LINE
  5
8A
100
AcDbEntity
  8
0
 62
256
370
-1
 48
1.0
  6
ByLayer
100
AcDbLine
 10
-243.0843228721702189
 20
92.9277484573492103
 30
0.0
 11
-242.693280817471333
 21
92.8109626497592046
 31
0.0
  0
LINE
  5
8B
100
AcDbEntity
  8
0
 62
256
370
-1
 48
1.0
  6
ByLayer
100
AcDbLine
 10
-242.0655301393518357
 20
120.0394954721082001
 30
0.0
 11
-242.3457895888744247
 21
120.3361559756311863
 31
0.0
  0
LINE
  5
8C
100
AcDbEntity
  8
0
 62
256
370
-1
 48
1.0
  6
ByLayer
100
AcDbLine
 10
-242.3457895888744247
 20
120.3361559756311863
 30
0.0
 11
-242.693280817471333
 21
120.5501715345182134
 31
0.0
  0
LINE
  5
8D
100
AcDbEntity
  8
0
 62
256
370
-1
 48
1.0
  6
ByLayer
100
AcDbLine
 10
-242.119618799041433
 20
90.3976755108412107
 30
0.0
 11
-241.9056032401545338
 21
90.74516673943819
 31
0.0
  0
LINE
  5
8E
100
AcDbEntity
  8
0
 62
256
370
-1
 48
1.0
  6
ByLayer
100
AcDbLine
 10
-241.9056032401545338
 20
90.74516673943819
 30
0.0
 11
-241.7888174325651391
 21
91.1362087941371897
 31
0.0
  0
LINE
  5
8F
100
AcDbEntity
  8
0
 62
256
370
-1
 48
1.0
  6
ByLayer
100
AcDbLine
 10
-242.3457895888744247
 20
92.5969470908721917
 30
0.0
 11
-242.693280817471333
 21
92.8109626497592046
 31
0.0
  0
LINE
  5
90
100
AcDbEntity
  8
0
 62
256
370
-1
 48
1.0
  6
ByLayer
100
AcDbLine
 10
-243.0843228721702189
 20
92.9277484573492103
 30
0.0
 11
-243.4922668831709416
 21
92.9393457538511996
 31
0.0
  0
LINE
  5
91
100
AcDbEntity
  8
0
 62
256
370
-1
 48
1.0
  6
ByLayer
100
AcDbLine
 10
-243.4922668831709416
 20
92.9393457538511996
 30
0.0
 11
-243.8893121402824136
 21
92.844964202676195
 31
0.0
  0
LINE
  5
92
100
AcDbEntity
  8
0
 62
256
370
-1
 48
1.0
  6
ByLayer
100
AcDbLine
 10
-243.8893121402824136
 20
92.844964202676195
 30
0.0
 11
-244.2484006653824338
 21
92.6510357505621869
 31
0.0
  0
LINE
  5
93
100
AcDbEntity
  8
0
 62
256
370
-1
 48
1.0
  6
ByLayer
100
AcDbLine
 10
-244.5450611689054199
 20
92.3707763010392
 30
0.0
 11
-244.7590767277924328
 21
92.0232850724422065
 31
0.0
  0
LINE
  5
94
100
AcDbEntity
  8
0
 62
256
370
-1
 48
1.0
  6
ByLayer
100
AcDbLine
 10
-244.3188903790724282
 20
90.171504721008219
 30
0.0
 11
-243.9713991504764294
 21
89.9574891621211918
 31
0.0
  0
LINE
  5
95
100
AcDbEntity
  8
0
 62
256
370
-1
 48
1.0
  6
ByLayer
100
AcDbLine
 10
-243.5803570957770319
 20
89.8407033545321951
 30
0.0
 11
-243.1724130847764513
 21
89.8291060580291969
 31
0.0
  0
LINE
  5
96
100
AcDbEntity
  8
0
 62
256
370
-1
 48
1.0
  6
ByLayer
100
AcDbLine
 10
-241.9056032401545338
 20
118.4843756241961898
 30
0.0
 11
-241.7888174325651391
 21
118.8754176788951895
 31
0.0
  0
LINE
  5
97
100
AcDbEntity
  8
0
 62
256
370
-1
 48
1.0
  6
ByLayer
100
AcDbLine
 10
-241.7888174325651391
 20
118.8754176788951895
 30
0.0
 11
-241.7772201360625388
 21
119.2833616898962106
 31
0.0
  0
LINE
  5
98
100
AcDbEntity
  8
0
 62
256
370
-1
 48
1.0
  6
ByLayer
100
AcDbLine
 10
-241.7772201360625388
 20
119.2833616898962106
 30
0.0
 11
-241.8716016872380408
 21
119.6804069470081799
 31
0.0
  0
LINE
  5
99
100
AcDbEntity
  8
0
 62
256
370
-1
 48
1.0
  6
ByLayer
100
AcDbLine
 10
-241.8716016872380408
 20
119.6804069470081799
 30
0.0
 11
-242.0655301393518357
 21
120.0394954721082001
 31
0.0
  0
LINE
  5
9A
100
AcDbEntity
  8
0
 62
256
370
-1
 48
1.0
  6
ByLayer
100
AcDbLine
 10
-194.5874598318848712
 20
76.2788708274972009
 30
0.0
 11
-194.4930782807093124
 21
75.8818255703851889
 31
0.0
  0
LINE
  5
9B
100
AcDbEntity
  8
0
 62
256
370
-1
 48
1.0
  6
ByLayer
100
AcDbLine
 10
-194.4930782807093124
 20
75.8818255703851889
 30
0.0
 11
-194.2991498285956027
 21
75.5227370452851972
 31
0.0
  0
LINE
  5
9C
100
AcDbEntity
  8
0
 62
256
370
-1
 48
1.0
  6
ByLayer
100
AcDbLine
 10
-193.6713991504759349
 20
75.0120609828751981
 30
0.0
 11
-193.2803570957770489
 21
74.8952751752852066
 31
0.0
  0
LINE
  5
9D
100
AcDbEntity
  8
0
 62
256
370
-1
 48
1.0
  6
ByLayer
100
AcDbLine
 10
-192.475367827664428
 20
74.9780594299581935
 30
0.0
 11
-192.1162793025648341
 21
75.1719878820721874
 31
0.0
  0
LINE
  5
9E
100
AcDbEntity
  8
0
 62
256
370
-1
 48
1.0
  6
ByLayer
100
AcDbLine
 10
-191.4772201360625559
 20
76.5987246258911796
 30
0.0
 11
-191.5716016872380294
 21
76.9957698830031916
 31
0.0
  0
LINE
  5
9F
100
AcDbEntity
  8
0
 62
256
370
-1
 48
1.0
  6
ByLayer
100
AcDbLine
 10
-191.7655301393518528
 20
77.3548584081031834
 30
0.0
 11
-192.0457895888743849
 21
77.6515189116261979
 31
0.0
  0
LINE
  5
A0
100
AcDbEntity
  8
0
 62
256
370
-1
 48
1.0
  6
ByLayer
100
AcDbLine
 10
-192.39328081747135
 20
77.8655344705131824
 30
0.0
 11
-192.7843228721702076
 21
77.9823202781022076
 31
0.0
  0
LINE
  5
A1
100
AcDbEntity
  8
0
 62
256
370
-1
 48
1.0
  6
ByLayer
100
AcDbLine
 10
-192.7843228721702076
 20
77.9823202781022076
 30
0.0
 11
-193.1922668831709586
 21
77.9939175746052058
 31
0.0
  0
LINE
  5
A2
100
AcDbEntity
  8
0
 62
256
370
-1
 48
1.0
  6
ByLayer
100
AcDbLine
 10
-243.0843228721702189
 20
120.6669573421071959
 30
0.0
 11
-243.4922668831709416
 21
120.6785546386101942
 31
0.0
  0
LINE
  5
A3
100
AcDbEntity
  8
0
 62
256
370
-1
 48
1.0
  6
ByLayer
100
AcDbLine
 10
-243.4922668831709416
 20
120.6785546386101942
 30
0.0
 11
-243.8893121402824136
 21
120.5841730874341806
 31
0.0
  0
LINE
  5
A4
100
AcDbEntity
  8
0
 62
256
370
-1
 48
1.0
  6
ByLayer
100
AcDbLine
 10
-243.8893121402824136
 20
120.5841730874341806
 30
0.0
 11
-244.2484006653824338
 21
120.3902446353212099
 31
0.0
  0
LINE
  5
A5
100
AcDbEntity
  8
0
 62
256
370
-1
 48
1.0
  6
ByLayer
100
AcDbLine
 10
-244.8874598318844278
 20
118.9635078915011945
 30
0.0
 11
-244.7930782807094374
 21
118.5664626343891968
 31
0.0
  0
LINE
  5
A6
100
AcDbEntity
  8
0
 62
256
370
-1
 48
1.0
  6
ByLayer
100
AcDbLine
 10
-243.5803570957770319
 20
117.579912239290195
 30
0.0
 11
-243.1724130847764513
 21
117.5683149427881915
 31
0.0
  0
LINE
  5
A7
100
AcDbEntity
  8
0
 62
256
370
-1
 48
1.0
  6
ByLayer
100
AcDbLine
 10
-243.1724130847764513
 20
117.5683149427881915
 30
0.0
 11
-242.7753678276644393
 21
117.6626964939631819
 31
0.0
  0
LINE
  5
A8
100
AcDbEntity
  8
0
 62
256
370
-1
 48
1.0
  6
ByLayer
100
AcDbLine
 10
-242.7753678276644393
 20
117.6626964939631819
 30
0.0
 11
-242.416279302564817
 21
117.85662494607719
 31
0.0
  0
LINE
  5
A9
100
AcDbEntity
  8
0
 62
256
370
-1
 48
1.0
  6
ByLayer
100
AcDbLine
 10
-255.9745211556144397
 20
64.7797201767141786
 30
0.0
 11
-256.2742224231284354
 21
65.5032630414071946
 31
0.0
  0
LINE
  5
AA
100
AcDbEntity
  8
0
 62
256
370
-1
 48
1.0
  6
ByLayer
100
AcDbLine
 10
-163.8480762113529465
 20
64.4680631465554796
 30
0.0
 11
-164.1477774788669421
 21
65.1916060112484956
 31
0.0
  0
LINE
  5
AB
100
AcDbEntity
  8
0
 62
256
370
-1
 48
1.0
  6
ByLayer
100
AcDbLine
 10
-256.3764449442614364
 20
66.2797201767141928
 30
0.0
 11
-256.2742224231284354
 21
65.5032630414071946
 31
0.0
  0
LINE
  5
AC
100
AcDbEntity
  8
0
 62
256
370
-1
 48
1.0
  6
ByLayer
100
AcDbLine
 10
-164.2499999999999432
 20
65.9680631465554939
 30
0.0
 11
-164.1477774788669421
 21
65.1916060112484956
 31
0.0
  0
LINE
  5
AD
100
AcDbEntity
  8
0
 62
256
370
-1
 48
1.0
  6
ByLayer
100
AcDbLine
 10
-256.3764449442614364
 20
66.2797201767141928
 30
0.0
 11
-256.3764449442614364
 21
134.3435938836032335
 31
0.0
  0
LINE
  5
AE
100
AcDbEntity
  8
0
 62
256
370
-1
 48
1.0
  6
ByLayer
100
AcDbLine
 10
-164.2499999999999432
 20
65.9680631465554939
 30
0.0
 11
-164.2499999999999432
 21
134.0319368534445346
 31
0.0
  0
LINE
  5
AF
100
AcDbEntity
  8
0
 62
256
370
-1
 48
1.0
  6
ByLayer
100
AcDbLine
 10
-256.2742224231284354
 20
135.1200510189111981
 30
0.0
 11
-256.3764449442614364
 21
134.3435938836032335
 31
0.0
  0
LINE
  5
B0
100
AcDbEntity
  8
0
 62
256
370
-1
 48
1.0
  6
ByLayer
100
AcDbLine
 10
-164.1477774788669421
 20
134.8083939887524991
 30
0.0
 11
-164.2499999999999432
 21
134.0319368534445346
 31
0.0
  0
LINE
  5
B1
100
AcDbEntity
  8
0
 62
256
370
-1
 48
1.0
  6
ByLayer
100
AcDbLine
 10
-255.9745211556144397
 20
135.8435938836032051
 30
0.0
 11
-256.2742224231284354
 21
135.1200510189111981
 31
0.0
  0
LINE
  5
B2
100
AcDbEntity
  8
0
 62
256
370
-1
 48
1.0
  6
ByLayer
100
AcDbLine
 10
-163.8480762113529465
 20
135.5319368534445061
 30
0.0
 11
-164.1477774788669421
 21
134.8083939887524991
 31
0.0
  0
LINE
  5
B3
100
AcDbEntity
  8
0
 62
256
370
-1
 48
1.0
  6
ByLayer
100
AcDbLine
 10
-255.4977652878214371
 20
136.4649142271632059
 30
0.0
 11
-255.9745211556144397
 21
135.8435938836032051
 31
0.0
  0
LINE
  5
B4
100
AcDbEntity
  8
0
 62
256
370
-1
 48
1.0
  6
ByLayer
100
AcDbLine
 10
-163.3713203435599439
 20
136.1532571970045069
 30
0.0
 11
-163.8480762113529465
 21
135.5319368534445061
 31
0.0
  0
LINE
  5
B5
100
AcDbEntity
  8
0
 62
256
370
-1
 48
1.0
  6
ByLayer
100
AcDbLine
 10
-254.8764449442614364
 20
136.9416700949572032
 30
0.0
 11
-255.4977652878214371
 21
136.4649142271632059
 31
0.0
  0
LINE
  5
B6
100
AcDbEntity
  8
0
 62
256
370
-1
 48
1.0
  6
ByLayer
100
AcDbLine
 10
-162.7499999999999432
 20
136.6300130647985043
 30
0.0
 11
-163.3713203435599439
 21
136.1532571970045069
 31
0.0
  0
LINE
  5
B7
100
AcDbEntity
  8
0
 62
256
370
-1
 48
1.0
  6
ByLayer
100
AcDbLine
 10
-254.1529020795694294
 20
137.2413713624711988
 30
0.0
 11
-254.8764449442614364
 21
136.9416700949572032
 31
0.0
  0
LINE
  5
B8
100
AcDbEntity
  8
0
 62
256
370
-1
 48
1.0
  6
ByLayer
100
AcDbLine
 10
-162.0264571353079361
 20
136.9297143323124999
 30
0.0
 11
-162.7499999999999432
 21
136.6300130647985043
 31
0.0
  0
LINE
  5
B9
100
AcDbEntity
  8
0
 62
256
370
-1
 48
1.0
  6
ByLayer
100
AcDbLine
 10
-253.3764449442614364
 20
137.3435938836032051
 30
0.0
 11
-254.1529020795694294
 21
137.2413713624711988
 31
0.0
  0
LINE
  5
BA
100
AcDbEntity
  8
0
 62
256
370
-1
 48
1.0
  6
ByLayer
100
AcDbLine
 10
-161.2499999999999432
 20
137.0319368534445061
 30
0.0
 11
-162.0264571353079361
 21
136.9297143323124999
 31
0.0
  0
LINE
  5
BB
100
AcDbEntity
  8
0
 62
256
370
-1
 48
1.0
  6
ByLayer
100
AcDbLine
 10
-253.3764449442614364
 20
137.3435938836032051
 30
0.0
 11
-170.8764449442614364
 21
137.3435938836031767
 31
0.0
  0
LINE
  5
BC
100
AcDbEntity
  8
0
 62
256
370
-1
 48
1.0
  6
ByLayer
100
AcDbLine
 10
-161.2499999999999432
 20
137.0319368534445061
 30
0.0
 11
-78.7499999999999432
 21
137.0319368534444777
 31
0.0
  0
LINE
  5
BD
100
AcDbEntity
  8
0
 62
256
370
-1
 48
1.0
  6
ByLayer
100
AcDbLine
 10
-170.0999878089539266
 20
137.2413713624711704
 30
0.0
 11
-170.8764449442614364
 21
137.3435938836031767
 31
0.0
  0
LINE
  5
BE
100
AcDbEntity
  8
0
 62
256
370
-1
 48
1.0
  6
ByLayer
100
AcDbLine
 10
-77.9735428646924333
 20
136.9297143323124715
 30
0.0
 11
-78.7499999999999432
 21
137.0319368534444777
 31
0.0
  0
LINE
  5
BF
100
AcDbEntity
  8
0
 62
256
370
-1
 48
1.0
  6
ByLayer
100
AcDbLine
 10
-169.3764449442614364
 20
136.9416700949571748
 30
0.0
 11
-170.0999878089539266
 21
137.2413713624711704
 31
0.0
  0
LINE
  5
C0
100
AcDbEntity
  8
0
 62
256
370
-1
 48
1.0
  6
ByLayer
100
AcDbLine
 10
-77.2499999999999432
 20
136.6300130647984759
 30
0.0
 11
-77.9735428646924333
 21
136.9297143323124715
 31
0.0
  0
LINE
  5
C1
100
AcDbEntity
  8
0
 62
256
370
-1
 48
1.0
  6
ByLayer
100
AcDbLine
 10
-168.7551246007018335
 20
136.4649142271632059
 30
0.0
 11
-169.3764449442614364
 21
136.9416700949571748
 31
0.0
  0
LINE
  5
C2
100
AcDbEntity
  8
0
 62
256
370
-1
 48
1.0
  6
ByLayer
100
AcDbLine
 10
-76.6286796564403403
 20
136.1532571970045069
 30
0.0
 11
-77.2499999999999432
 21
136.6300130647984759
 31
0.0
  0
LINE
  5
C3
100
AcDbEntity
  8
0
 62
256
370
-1
 48
1.0
  6
ByLayer
100
AcDbLine
 10
-168.2783687329081204
 20
135.8435938836032051
 30
0.0
 11
-168.7551246007018335
 21
136.4649142271632059
 31
0.0
  0
LINE
  5
C4
100
AcDbEntity
  8
0
 62
256
370
-1
 48
1.0
  6
ByLayer
100
AcDbLine
 10
-76.1519237886466271
 20
135.5319368534445061
 30
0.0
 11
-76.6286796564403403
 21
136.1532571970045069
 31
0.0
  0
LINE
  5
C5
100
AcDbEntity
  8
0
 62
256
370
-1
 48
1.0
  6
ByLayer
100
AcDbLine
 10
-167.9786674653942384
 20
135.1200510189111981
 30
0.0
 11
-168.2783687329081204
 21
135.8435938836032051
 31
0.0
  0
LINE
  5
C6
100
AcDbEntity
  8
0
 62
256
370
-1
 48
1.0
  6
ByLayer
100
AcDbLine
 10
-75.8522225211327452
 20
134.8083939887524991
 30
0.0
 11
-76.1519237886466271
 21
135.5319368534445061
 31
0.0
  0
LINE
  5
C7
100
AcDbEntity
  8
0
 62
256
370
-1
 48
1.0
  6
ByLayer
100
AcDbLine
 10
-167.8764449442615501
 20
134.3435938836032051
 30
0.0
 11
-167.9786674653942384
 21
135.1200510189111981
 31
0.0
  0
LINE
  5
C8
100
AcDbEntity
  8
0
 62
256
370
-1
 48
1.0
  6
ByLayer
100
AcDbLine
 10
-75.7500000000000568
 20
134.0319368534445061
 30
0.0
 11
-75.8522225211327452
 21
134.8083939887524991
 31
0.0
  0
LINE
  5
C9
100
AcDbEntity
  8
0
 62
256
370
-1
 48
1.0
  6
ByLayer
100
AcDbLine
 10
-167.8764449442615501
 20
134.3435938836032051
 30
0.0
 11
-167.8764449442615501
 21
66.2797201767141928
 31
0.0
  0
LINE
  5
CA
100
AcDbEntity
  8
0
 62
256
370
-1
 48
1.0
  6
ByLayer
100
AcDbLine
 10
-75.7500000000000568
 20
134.0319368534445061
 30
0.0
 11
-75.7500000000000568
 21
65.9680631465554939
 31
0.0
  0
LINE
  5
CB
100
AcDbEntity
  8
0
 62
256
370
-1
 48
1.0
  6
ByLayer
100
AcDbLine
 10
-167.9786674653944942
 20
65.5032630414071662
 30
0.0
 11
-167.8764449442615501
 21
66.2797201767141928
 31
0.0
  0
LINE
  5
CC
100
AcDbEntity
  8
0
 62
256
370
-1
 48
1.0
  6
ByLayer
100
AcDbLine
 10
-75.852222521133001
 20
65.1916060112484672
 30
0.0
 11
-75.7500000000000568
 21
65.9680631465554939
 31
0.0
  0
LINE
  5
CD
100
AcDbEntity
  8
0
 62
256
370
-1
 48
1.0
  6
ByLayer
100
AcDbLine
 10
-168.2783687329081772
 20
64.7797201767141786
 30
0.0
 11
-167.9786674653944942
 21
65.5032630414071662
 31
0.0
  0
LINE
  5
CE
100
AcDbEntity
  8
0
 62
256
370
-1
 48
1.0
  6
ByLayer
100
AcDbLine
 10
-76.151923788646684
 20
64.4680631465554796
 30
0.0
 11
-75.852222521133001
 21
65.1916060112484672
 31
0.0
  0
LINE
  5
CF
100
AcDbEntity
  8
0
 62
256
370
-1
 48
1.0
  6
ByLayer
100
AcDbLine
 10
-168.7551246007017767
 20
64.1583998331551442
 30
0.0
 11
-168.2783687329081772
 21
64.7797201767141786
 31
0.0
  0
LINE
  5
D0
100
AcDbEntity
  8
0
 62
256
370
-1
 48
1.0
  6
ByLayer
100
AcDbLine
 10
-76.6286796564402835
 20
63.8467428029964452
 30
0.0
 11
-76.151923788646684
 21
64.4680631465554796
 31
0.0
  0
LINE
  5
D1
100
AcDbEntity
  8
0
 62
256
370
-1
 48
1.0
  6
ByLayer
100
AcDbLine
 10
-169.3764449442615785
 20
63.6816439653612036
 30
0.0
 11
-168.7551246007017767
 21
64.1583998331551442
 31
0.0
  0
LINE
  5
D2
100
AcDbEntity
  8
0
 62
256
370
-1
 48
1.0
  6
ByLayer
100
AcDbLine
 10
-77.2500000000000853
 20
63.3699869352025047
 30
0.0
 11
-76.6286796564402835
 21
63.8467428029964452
 31
0.0
  0
LINE
  5
D3
100
AcDbEntity
  8
0
 62
256
370
-1
 48
1.0
  6
ByLayer
100
AcDbLine
 10
-170.099987808953955
 20
63.3819426978471938
 30
0.0
 11
-169.3764449442615785
 21
63.6816439653612036
 31
0.0
  0
LINE
  5
D4
100
AcDbEntity
  8
0
 62
256
370
-1
 48
1.0
  6
ByLayer
100
AcDbLine
 10
-77.9735428646924618
 20
63.0702856676884949
 30
0.0
 11
-77.2500000000000853
 21
63.3699869352025047
 31
0.0
  0
LINE
  5
D5
100
AcDbEntity
  8
0
 62
256
370
-1
 48
1.0
  6
ByLayer
100
AcDbLine
 10
-170.8764449442615216
 20
63.2797201767141928
 30
0.0
 11
-170.099987808953955
 21
63.3819426978471938
 31
0.0
  0
LINE
  5
D6
100
AcDbEntity
  8
0
 62
256
370
-1
 48
1.0
  6
ByLayer
100
AcDbLine
 10
-78.7500000000000284
 20
62.9680631465554939
 30
0.0
 11
-77.9735428646924618
 21
63.0702856676884949
 31
0.0
  0
LINE
  5
D7
100
AcDbEntity
  8
0
 62
256
370
-1
 48
1.0
  6
ByLayer
100
AcDbLine
 10
-170.8764449442615216
 20
63.2797201767141928
 30
0.0
 11
-253.376444944261408
 21
63.2797201767141786
 31
0.0
  0
LINE
  5
D8
100
AcDbEntity
  8
0
 62
256
370
-1
 48
1.0
  6
ByLayer
100
AcDbLine
 10
-78.7500000000000284
 20
62.9680631465554939
 30
0.0
 11
-161.2499999999999147
 21
62.9680631465554796
 31
0.0
  0
LINE
  5
D9
100
AcDbEntity
  8
0
 62
256
370
-1
 48
1.0
  6
ByLayer
100
AcDbLine
 10
-254.1529020795694578
 20
63.381942697847208
 30
0.0
 11
-253.376444944261408
 21
63.2797201767141786
 31
0.0
  0
LINE
  5
DA
100
AcDbEntity
  8
0
 62
256
370
-1
 48
1.0
  6
ByLayer
100
AcDbLine
 10
-162.0264571353079646
 20
63.0702856676885091
 30
0.0
 11
-161.2499999999999147
 21
62.9680631465554796
 31
0.0
  0
LINE
  5
DB
100
AcDbEntity
  8
0
 62
256
370
-1
 48
1.0
  6
ByLayer
100
AcDbLine
 10
-254.876444944261408
 20
63.6816439653612179
 30
0.0
 11
-254.1529020795694578
 21
63.381942697847208
 31
0.0
  0
LINE
  5
DC
100
AcDbEntity
  8
0
 62
256
370
-1
 48
1.0
  6
ByLayer
100
AcDbLine
 10
-162.7499999999999147
 20
63.3699869352025189
 30
0.0
 11
-162.0264571353079646
 21
63.0702856676885091
 31
0.0
  0
LINE
  5
DD
100
AcDbEntity
  8
0
 62
256
370
-1
 48
1.0
  6
ByLayer
100
AcDbLine
 10
-255.4977652878214656
 20
64.1583998331551584
 30
0.0
 11
-254.876444944261408
 21
63.6816439653612179
 31
0.0
  0
LINE
  5
DE
100
AcDbEntity
  8
0
 62
256
370
-1
 48
1.0
  6
ByLayer
100
AcDbLine
 10
-163.3713203435599723
 20
63.8467428029964594
 30
0.0
 11
-162.7499999999999147
 21
63.3699869352025189
 31
0.0
  0
LINE
  5
DF
100
AcDbEntity
  8
0
 62
256
370
-1
 48
1.0
  6
ByLayer
100
AcDbLine
 10
-255.9745211556144397
 20
64.7797201767141786
 30
0.0
 11
-255.4977652878214656
 21
64.1583998331551584
 31
0.0
  0
LINE
  5
E0
100
AcDbEntity
  8
0
 62
256
370
-1
 48
1.0
  6
ByLayer
100
AcDbLine
 10
-163.8480762113529465
 20
64.4680631465554796
 30
0.0
 11
-163.3713203435599723
 21
63.8467428029964594
 31
0.0
  0
LINE
  5
E1
100
AcDbEntity
  8
0
 62
256
370
-1
 48
1.0
  6
ByLayer
100
AcDbLine
 10
-251.8764449442614364
 20
69.2797201767141928
 30
0.0
 11
-252.2646735119154187
 21
69.2286089161482323
 31
0.0
  0
LINE
  5
E2
100
AcDbEntity
  8
0
 62
256
370
-1
 48
1.0
  6
ByLayer
100
AcDbLine
 10
-159.7499999999999432
 20
68.9680631465554939
 30
0.0
 11
-160.1382285676539254
 21
68.9169518859895334
 31
0.0
  0
LINE
  5
E3
100
AcDbEntity
  8
0
 62
256
370
-1
 48
1.0
  6
ByLayer
100
AcDbLine
 10
-252.2646735119154187
 20
69.2286089161482323
 30
0.0
 11
-252.6264449442614364
 21
69.0787582823911634
 31
0.0
  0
LINE
  5
E4
100
AcDbEntity
  8
0
 62
256
370
-1
 48
1.0
  6
ByLayer
100
AcDbLine
 10
-160.1382285676539254
 20
68.9169518859895334
 30
0.0
 11
-160.4999999999999432
 21
68.7671012522324645
 31
0.0
  0
LINE
  5
E5
100
AcDbEntity
  8
0
 62
256
370
-1
 48
1.0
  6
ByLayer
100
AcDbLine
 10
-252.6264449442614364
 20
69.0787582823911634
 30
0.0
 11
-252.9371051160414368
 21
68.8403803484941932
 31
0.0
  0
LINE
  5
E6
100
AcDbEntity
  8
0
 62
256
370
-1
 48
1.0
  6
ByLayer
100
AcDbLine
 10
-160.4999999999999432
 20
68.7671012522324645
 30
0.0
 11
-160.8106601717799435
 21
68.5287233183354942
 31
0.0
  0
LINE
  5
E7
100
AcDbEntity
  8
0
 62
256
370
-1
 48
1.0
  6
ByLayer
100
AcDbLine
 10
-252.9371051160414368
 20
68.8403803484941932
 30
0.0
 11
-253.1754830499384354
 21
68.5297201767141928
 31
0.0
  0
LINE
  5
E8
100
AcDbEntity
  8
0
 62
256
370
-1
 48
1.0
  6
ByLayer
100
AcDbLine
 10
-160.8106601717799435
 20
68.5287233183354942
 30
0.0
 11
-161.0490381056769422
 21
68.2180631465554939
 31
0.0
  0
LINE
  5
E9
100
AcDbEntity
  8
0
 62
256
370
-1
 48
1.0
  6
ByLayer
100
AcDbLine
 10
-253.1754830499384354
 20
68.5297201767141928
 30
0.0
 11
-253.325333683695419
 21
68.1679487443682603
 31
0.0
  0
LINE
  5
EA
100
AcDbEntity
  8
0
 62
256
370
-1
 48
1.0
  6
ByLayer
100
AcDbLine
 10
-161.0490381056769422
 20
68.2180631465554939
 30
0.0
 11
-161.1988887394339258
 21
67.8562917142095614
 31
0.0
  0
LINE
  5
EB
100
AcDbEntity
  8
0
 62
256
370
-1
 48
1.0
  6
ByLayer
100
AcDbLine
 10
-253.325333683695419
 20
68.1679487443682603
 30
0.0
 11
-253.3764449442614364
 21
67.7797201767141928
 31
0.0
  0
LINE
  5
EC
100
AcDbEntity
  8
0
 62
256
370
-1
 48
1.0
  6
ByLayer
100
AcDbLine
 10
-161.1988887394339258
 20
67.8562917142095614
 30
0.0
 11
-161.2499999999999432
 21
67.4680631465554939
 31
0.0
  0
LINE
  5
ED
100
AcDbEntity
  8
0
 62
256
370
-1
 48
1.0
  6
ByLayer
100
AcDbLine
 10
-253.3764449442614364
 20
67.7797201767141928
 30
0.0
 11
-253.3253336836953906
 21
67.3914916090601537
 31
0.0
  0
LINE
  5
EE
100
AcDbEntity
  8
0
 62
256
370
-1
 48
1.0
  6
ByLayer
100
AcDbLine
 10
-161.2499999999999432
 20
67.4680631465554939
 30
0.0
 11
-161.1988887394338974
 21
67.0798345789014547
 31
0.0
  0
LINE
  5
EF
100
AcDbEntity
  8
0
 62
256
370
-1
 48
1.0
  6
ByLayer
100
AcDbLine
 10
-253.3253336836953906
 20
67.3914916090601537
 30
0.0
 11
-253.175483049938407
 21
67.0297201767141786
 31
0.0
  0
LINE
  5
F0
100
AcDbEntity
  8
0
 62
256
370
-1
 48
1.0
  6
ByLayer
100
AcDbLine
 10
-161.1988887394338974
 20
67.0798345789014547
 30
0.0
 11
-161.0490381056769138
 21
66.7180631465554796
 31
0.0
  0
LINE
  5
F1
100
AcDbEntity
  8
0
 62
256
370
-1
 48
1.0
  6
ByLayer
100
AcDbLine
 10
-253.175483049938407
 20
67.0297201767141786
 30
0.0
 11
-252.9371051160414368
 21
66.7190600049341924
 31
0.0
  0
LINE
  5
F2
100
AcDbEntity
  8
0
 62
256
370
-1
 48
1.0
  6
ByLayer
100
AcDbLine
 10
-161.0490381056769138
 20
66.7180631465554796
 30
0.0
 11
-160.8106601717799435
 21
66.4074029747754935
 31
0.0
  0
LINE
  5
F3
100
AcDbEntity
  8
0
 62
256
370
-1
 48
1.0
  6
ByLayer
100
AcDbLine
 10
-252.9371051160414368
 20
66.7190600049341924
 30
0.0
 11
-252.6264449442614364
 21
66.4806820710381885
 31
0.0
  0
LINE
  5
F4
100
AcDbEntity
  8
0
 62
256
370
-1
 48
1.0
  6
ByLayer
100
AcDbLine
 10
-160.8106601717799435
 20
66.4074029747754935
 30
0.0
 11
-160.4999999999999432
 21
66.1690250408794896
 31
0.0
  0
LINE
  5
F5
100
AcDbEntity
  8
0
 62
256
370
-1
 48
1.0
  6
ByLayer
100
AcDbLine
 10
-252.6264449442614364
 20
66.4806820710381885
 30
0.0
 11
-252.2646735119154187
 21
66.3308314372811765
 31
0.0
  0
LINE
  5
F6
100
AcDbEntity
  8
0
 62
256
370
-1
 48
1.0
  6
ByLayer
100
AcDbLine
 10
-160.4999999999999432
 20
66.1690250408794896
 30
0.0
 11
-160.1382285676539254
 21
66.0191744071224775
 31
0.0
  0
LINE
  5
F7
100
AcDbEntity
  8
0
 62
256
370
-1
 48
1.0
  6
ByLayer
100
AcDbLine
 10
-252.2646735119154187
 20
66.3308314372811765
 30
0.0
 11
-251.876444944261408
 21
66.2797201767141644
 31
0.0
  0
LINE
  5
F8
100
AcDbEntity
  8
0
 62
256
370
-1
 48
1.0
  6
ByLayer
100
AcDbLine
 10
-160.1382285676539254
 20
66.0191744071224775
 30
0.0
 11
-159.7499999999999147
 21
65.9680631465554654
 31
0.0
  0
LINE
  5
F9
100
AcDbEntity
  8
0
 62
256
370
-1
 48
1.0
  6
ByLayer
100
AcDbLine
 10
-251.876444944261408
 20
66.2797201767141644
 30
0.0
 11
-251.4882163766074541
 21
66.3308314372811765
 31
0.0
  0
LINE
  5
FA
100
AcDbEntity
  8
0
 62
256
370
-1
 48
1.0
  6
ByLayer
100
AcDbLine
 10
-159.7499999999999147
 20
65.9680631465554654
 30
0.0
 11
-159.3617714323459609
 21
66.0191744071224775
 31
0.0
  0
LINE
  5
FB
100
AcDbEntity
  8
0
 62
256
370
-1
 48
1.0
  6
ByLayer
100
AcDbLine
 10
-251.4882163766074541
 20
66.3308314372811765
 30
0.0
 11
-251.1264449442614648
 21
66.4806820710382027
 31
0.0
  0
LINE
  5
FC
100
AcDbEntity
  8
0
 62
256
370
-1
 48
1.0
  6
ByLayer
100
AcDbLine
 10
-159.3617714323459609
 20
66.0191744071224775
 30
0.0
 11
-158.9999999999999716
 21
66.1690250408795038
 31
0.0
  0
LINE
  5
FD
100
AcDbEntity
  8
0
 62
256
370
-1
 48
1.0
  6
ByLayer
100
AcDbLine
 10
-251.1264449442614648
 20
66.4806820710382027
 30
0.0
 11
-250.8157847724814928
 21
66.7190600049342208
 31
0.0
  0
LINE
  5
FE
100
AcDbEntity
  8
0
 62
256
370
-1
 48
1.0
  6
ByLayer
100
AcDbLine
 10
-158.9999999999999716
 20
66.1690250408795038
 30
0.0
 11
-158.6893398282199996
 21
66.4074029747755219
 31
0.0
  0
LINE
  5
FF
100
AcDbEntity
  8
0
 62
256
370
-1
 48
1.0
  6
ByLayer
100
AcDbLine
 10
-250.8157847724814928
 20
66.7190600049342208
 30
0.0
 11
-250.5774068385844657
 21
67.0297201767142212
 31
0.0
  0
LINE
  5
100
100
AcDbEntity
  8
0
 62
256
370
-1
 48
1.0
  6
ByLayer
100
AcDbLine
 10
-158.6893398282199996
 20
66.4074029747755219
 30
0.0
 11
-158.4509618943229725
 21
66.7180631465555223
 31
0.0
  0
LINE
  5
101
100
AcDbEntity
  8
0
 62
256
370
-1
 48
1.0
  6
ByLayer
100
AcDbLine
 10
-250.5774068385844657
 20
67.0297201767142212
 30
0.0
 11
-250.4275562048274537
 21
67.3914916090601395
 31
0.0
  0
LINE
  5
102
100
AcDbEntity
  8
0
 62
256
370
-1
 48
1.0
  6
ByLayer
100
AcDbLine
 10
-158.4509618943229725
 20
66.7180631465555223
 30
0.0
 11
-158.3011112605659605
 21
67.0798345789014405
 31
0.0
  0
LINE
  5
103
100
AcDbEntity
  8
0
 62
256
370
-1
 48
1.0
  6
ByLayer
100
AcDbLine
 10
-250.4275562048274537
 20
67.3914916090601395
 30
0.0
 11
-250.3764449442614364
 21
67.7797201767142212
 31
0.0
  0
LINE
  5
104
100
AcDbEntity
  8
0
 62
256
370
-1
 48
1.0
  6
ByLayer
100
AcDbLine
 10
-158.3011112605659605
 20
67.0798345789014405
 30
0.0
 11
-158.2499999999999432
 21
67.4680631465555223
 31
0.0
  0
LINE
  5
105
100
AcDbEntity
  8
0
 62
256
370
-1
 48
1.0
  6
ByLayer
100
AcDbLine
 10
-250.3764449442614364
 20
67.7797201767142212
 30
0.0
 11
-250.4275562048274537
 21
68.1679487443682319
 31
0.0
  0
LINE
  5
106
100
AcDbEntity
  8
0
 62
256
370
-1
 48
1.0
  6
ByLayer
100
AcDbLine
 10
-158.2499999999999432
 20
67.4680631465555223
 30
0.0
 11
-158.3011112605659605
 21
67.856291714209533
 31
0.0
  0
LINE
  5
107
100
AcDbEntity
  8
0
 62
256
370
-1
 48
1.0
  6
ByLayer
100
AcDbLine
 10
-250.4275562048274537
 20
68.1679487443682319
 30
0.0
 11
-250.5774068385844089
 21
68.5297201767141644
 31
0.0
  0
LINE
  5
108
100
AcDbEntity
  8
0
 62
256
370
-1
 48
1.0
  6
ByLayer
100
AcDbLine
 10
-158.3011112605659605
 20
67.856291714209533
 30
0.0
 11
-158.4509618943229157
 21
68.2180631465554654
 31
0.0
  0
LINE
  5
109
100
AcDbEntity
  8
0
 62
256
370
-1
 48
1.0
  6
ByLayer
100
AcDbLine
 10
-250.5774068385844089
 20
68.5297201767141644
 30
0.0
 11
-250.8157847724814644
 21
68.8403803484942216
 31
0.0
  0
LINE
  5
10A
100
AcDbEntity
  8
0
 62
256
370
-1
 48
1.0
  6
ByLayer
100
AcDbLine
 10
-158.4509618943229157
 20
68.2180631465554654
 30
0.0
 11
-158.6893398282199712
 21
68.5287233183355227
 31
0.0
  0
LINE
  5
10B
100
AcDbEntity
  8
0
 62
256
370
-1
 48
1.0
  6
ByLayer
100
AcDbLine
 10
-250.8157847724814644
 20
68.8403803484942216
 30
0.0
 11
-251.1264449442614364
 21
69.0787582823911634
 31
0.0
  0
LINE
  5
10C
100
AcDbEntity
  8
0
 62
256
370
-1
 48
1.0
  6
ByLayer
100
AcDbLine
 10
-158.6893398282199712
 20
68.5287233183355227
 30
0.0
 11
-158.9999999999999432
 21
68.7671012522324645
 31
0.0
  0
LINE
  5
10D
100
AcDbEntity
  8
0
 62
256
370
-1
 48
1.0
  6
ByLayer
100
AcDbLine
 10
-251.1264449442614364
 20
69.0787582823911634
 30
0.0
 11
-251.4882163766073973
 21
69.2286089161482039
 31
0.0
  0
LINE
  5
10E
100
AcDbEntity
  8
0
 62
256
370
-1
 48
1.0
  6
ByLayer
100
AcDbLine
 10
-158.9999999999999432
 20
68.7671012522324645
 30
0.0
 11
-159.361771432345904
 21
68.9169518859895049
 31
0.0
  0
LINE
  5
10F
100
AcDbEntity
  8
0
 62
256
370
-1
 48
1.0
  6
ByLayer
100
AcDbLine
 10
-251.4882163766073973
 20
69.2286089161482039
 30
0.0
 11
-251.8764449442614364
 21
69.2797201767141928
 31
0.0
  0
LINE
  5
110
100
AcDbEntity
  8
0
 62
256
370
-1
 48
1.0
  6
ByLayer
100
AcDbLine
 10
-159.361771432345904
 20
68.9169518859895049
 30
0.0
 11
-159.7499999999999432
 21
68.9680631465554939
 31
0.0
  0
LINE
  5
111
100
AcDbEntity
  8
0
 62
256
370
-1
 48
1.0
  6
ByLayer
100
AcDbLine
 10
-251.8764449442614364
 20
131.3435938836032051
 30
0.0
 11
-251.4882163766074541
 21
131.3947051441701888
 31
0.0
  0
LINE
  5
112
100
AcDbEntity
  8
0
 62
256
370
-1
 48
1.0
  6
ByLayer
100
AcDbLine
 10
-159.7499999999999432
 20
131.0319368534445061
 30
0.0
 11
-159.3617714323459609
 21
131.0830481140114898
 31
0.0
  0
LINE
  5
113
100
AcDbEntity
  8
0
 62
256
370
-1
 48
1.0
  6
ByLayer
100
AcDbLine
 10
-251.4882163766074541
 20
131.3947051441701888
 30
0.0
 11
-251.1264449442614364
 21
131.5445557779272008
 31
0.0
  0
LINE
  5
114
100
AcDbEntity
  8
0
 62
256
370
-1
 48
1.0
  6
ByLayer
100
AcDbLine
 10
-159.3617714323459609
 20
131.0830481140114898
 30
0.0
 11
-158.9999999999999432
 21
131.2328987477685018
 31
0.0
  0
LINE
  5
115
100
AcDbEntity
  8
0
 62
256
370
-1
 48
1.0
  6
ByLayer
100
AcDbLine
 10
-251.1264449442614364
 20
131.5445557779272008
 30
0.0
 11
-250.815784772481436
 21
131.7829337118242279
 31
0.0
  0
LINE
  5
116
100
AcDbEntity
  8
0
 62
256
370
-1
 48
1.0
  6
ByLayer
100
AcDbLine
 10
-158.9999999999999432
 20
131.2328987477685018
 30
0.0
 11
-158.6893398282199428
 21
131.4712766816655289
 31
0.0
  0
LINE
  5
117
100
AcDbEntity
  8
0
 62
256
370
-1
 48
1.0
  6
ByLayer
100
AcDbLine
 10
-250.815784772481436
 20
131.7829337118242279
 30
0.0
 11
-250.5774068385844373
 21
132.0935938836032051
 31
0.0
  0
LINE
  5
118
100
AcDbEntity
  8
0
 62
256
370
-1
 48
1.0
  6
ByLayer
100
AcDbLine
 10
-158.6893398282199428
 20
131.4712766816655289
 30
0.0
 11
-158.4509618943229441
 21
131.7819368534445061
 31
0.0
  0
LINE
  5
119
100
AcDbEntity
  8
0
 62
256
370
-1
 48
1.0
  6
ByLayer
100
AcDbLine
 10
-250.5774068385844373
 20
132.0935938836032051
 30
0.0
 11
-250.4275562048274537
 21
132.4553653159502176
 31
0.0
  0
LINE
  5
11A
100
AcDbEntity
  8
0
 62
256
370
-1
 48
1.0
  6
ByLayer
100
AcDbLine
 10
-158.4509618943229441
 20
131.7819368534445061
 30
0.0
 11
-158.3011112605659605
 21
132.1437082857915186
 31
0.0
  0
LINE
  5
11B
100
AcDbEntity
  8
0
 62
256
370
-1
 48
1.0
  6
ByLayer
100
AcDbLine
 10
-250.4275562048274537
 20
132.4553653159502176
 30
0.0
 11
-250.3764449442614364
 21
132.8435938836032051
 31
0.0
  0
LINE
  5
11C
100
AcDbEntity
  8
0
 62
256
370
-1
 48
1.0
  6
ByLayer
100
AcDbLine
 10
-158.3011112605659605
 20
132.1437082857915186
 30
0.0
 11
-158.2499999999999432
 21
132.5319368534445061
 31
0.0
  0
LINE
  5
11D
100
AcDbEntity
  8
0
 62
256
370
-1
 48
1.0
  6
ByLayer
100
AcDbLine
 10
-250.3764449442614364
 20
132.8435938836032051
 30
0.0
 11
-250.4275562048274537
 21
133.2318224512571874
 31
0.0
  0
LINE
  5
11E
100
AcDbEntity
  8
0
 62
256
370
-1
 48
1.0
  6
ByLayer
100
AcDbLine
 10
-158.2499999999999432
 20
132.5319368534445061
 30
0.0
 11
-158.3011112605659605
 21
132.9201654210984884
 31
0.0
  0
LINE
  5
11F
100
AcDbEntity
  8
0
 62
256
370
-1
 48
1.0
  6
ByLayer
100
AcDbLine
 10
-250.4275562048274537
 20
133.2318224512571874
 30
0.0
 11
-250.5774068385844373
 21
133.5935938836032051
 31
0.0
  0
LINE
  5
120
100
AcDbEntity
  8
0
 62
256
370
-1
 48
1.0
  6
ByLayer
100
AcDbLine
 10
-158.3011112605659605
 20
132.9201654210984884
 30
0.0
 11
-158.4509618943229441
 21
133.2819368534445061
 31
0.0
  0
LINE
  5
121
100
AcDbEntity
  8
0
 62
256
370
-1
 48
1.0
  6
ByLayer
100
AcDbLine
 10
-250.5774068385844373
 20
133.5935938836032051
 30
0.0
 11
-250.815784772481436
 21
133.9042540553832055
 31
0.0
  0
LINE
  5
122
100
AcDbEntity
  8
0
 62
256
370
-1
 48
1.0
  6
ByLayer
100
AcDbLine
 10
-158.4509618943229441
 20
133.2819368534445061
 30
0.0
 11
-158.6893398282199428
 21
133.5925970252245065
 31
0.0
  0
LINE
  5
123
100
AcDbEntity
  8
0
 62
256
370
-1
 48
1.0
  6
ByLayer
100
AcDbLine
 10
-250.815784772481436
 20
133.9042540553832055
 30
0.0
 11
-251.1264449442614364
 21
134.1426319892801757
 31
0.0
  0
LINE
  5
124
100
AcDbEntity
  8
0
 62
256
370
-1
 48
1.0
  6
ByLayer
100
AcDbLine
 10
-158.6893398282199428
 20
133.5925970252245065
 30
0.0
 11
-158.9999999999999432
 21
133.8309749591214768
 31
0.0
  0
LINE
  5
125
100
AcDbEntity
  8
0
 62
256
370
-1
 48
1.0
  6
ByLayer
100
AcDbLine
 10
-251.1264449442614364
 20
134.1426319892801757
 30
0.0
 11
-251.4882163766074541
 21
134.2924826230371878
 31
0.0
  0
LINE
  5
126
100
AcDbEntity
  8
0
 62
256
370
-1
 48
1.0
  6
ByLayer
100
AcDbLine
 10
-158.9999999999999432
 20
133.8309749591214768
 30
0.0
 11
-159.3617714323459609
 21
133.9808255928784888
 31
0.0
  0
LINE
  5
127
100
AcDbEntity
  8
0
 62
256
370
-1
 48
1.0
  6
ByLayer
100
AcDbLine
 10
-251.4882163766074541
 20
134.2924826230371878
 30
0.0
 11
-251.8764449442614364
 21
134.3435938836032335
 31
0.0
  0
LINE
  5
128
100
AcDbEntity
  8
0
 62
256
370
-1
 48
1.0
  6
ByLayer
100
AcDbLine
 10
-159.3617714323459609
 20
133.9808255928784888
 30
0.0
 11
-159.7499999999999432
 21
134.0319368534445346
 31
0.0
  0
LINE
  5
129
100
AcDbEntity
  8
0
 62
256
370
-1
 48
1.0
  6
ByLayer
100
AcDbLine
 10
-251.8764449442614364
 20
134.3435938836032335
 30
0.0
 11
-252.2646735119154187
 21
134.2924826230371878
 31
0.0
  0
LINE
  5
12A
100
AcDbEntity
  8
0
 62
256
370
-1
 48
1.0
  6
ByLayer
100
AcDbLine
 10
-159.7499999999999432
 20
134.0319368534445346
 30
0.0
 11
-160.1382285676539254
 21
133.9808255928784888
 31
0.0
  0
LINE
  5
12B
100
AcDbEntity
  8
0
 62
256
370
-1
 48
1.0
  6
ByLayer
100
AcDbLine
 10
-252.2646735119154187
 20
134.2924826230371878
 30
0.0
 11
-252.6264449442614364
 21
134.1426319892801757
 31
0.0
  0
LINE
  5
12C
100
AcDbEntity
  8
0
 62
256
370
-1
 48
1.0
  6
ByLayer
100
AcDbLine
 10
-160.1382285676539254
 20
133.9808255928784888
 30
0.0
 11
-160.4999999999999432
 21
133.8309749591214768
 31
0.0
  0
LINE
  5
12D
100
AcDbEntity
  8
0
 62
256
370
-1
 48
1.0
  6
ByLayer
100
AcDbLine
 10
-252.6264449442614364
 20
134.1426319892801757
 30
0.0
 11
-252.9371051160414368
 21
133.9042540553832055
 31
0.0
  0
LINE
  5
12E
100
AcDbEntity
  8
0
 62
256
370
-1
 48
1.0
  6
ByLayer
100
AcDbLine
 10
-160.4999999999999432
 20
133.8309749591214768
 30
0.0
 11
-160.8106601717799435
 21
133.5925970252245065
 31
0.0
  0
LINE
  5
12F
100
AcDbEntity
  8
0
 62
256
370
-1
 48
1.0
  6
ByLayer
100
AcDbLine
 10
-252.9371051160414368
 20
133.9042540553832055
 30
0.0
 11
-253.1754830499384354
 21
133.5935938836032051
 31
0.0
  0
LINE
  5
130
100
AcDbEntity
  8
0
 62
256
370
-1
 48
1.0
  6
ByLayer
100
AcDbLine
 10
-160.8106601717799435
 20
133.5925970252245065
 30
0.0
 11
-161.0490381056769422
 21
133.2819368534445061
 31
0.0
  0
LINE
  5
131
100
AcDbEntity
  8
0
 62
256
370
-1
 48
1.0
  6
ByLayer
100
AcDbLine
 10
-253.1754830499384354
 20
133.5935938836032051
 30
0.0
 11
-253.325333683695419
 21
133.2318224512571874
 31
0.0
  0
LINE
  5
132
100
AcDbEntity
  8
0
 62
256
370
-1
 48
1.0
  6
ByLayer
100
AcDbLine
 10
-161.0490381056769422
 20
133.2819368534445061
 30
0.0
 11
-161.1988887394339258
 21
132.9201654210984884
 31
0.0
  0
LINE
  5
133
100
AcDbEntity
  8
0
 62
256
370
-1
 48
1.0
  6
ByLayer
100
AcDbLine
 10
-253.325333683695419
 20
133.2318224512571874
 30
0.0
 11
-253.3764449442614364
 21
132.8435938836032051
 31
0.0
  0
LINE
  5
134
100
AcDbEntity
  8
0
 62
256
370
-1
 48
1.0
  6
ByLayer
100
AcDbLine
 10
-161.1988887394339258
 20
132.9201654210984884
 30
0.0
 11
-161.2499999999999432
 21
132.5319368534445061
 31
0.0
  0
LINE
  5
135
100
AcDbEntity
  8
0
 62
256
370
-1
 48
1.0
  6
ByLayer
100
AcDbLine
 10
-253.3764449442614364
 20
132.8435938836032051
 30
0.0
 11
-253.325333683695419
 21
132.4553653159501891
 31
0.0
  0
LINE
  5
136
100
AcDbEntity
  8
0
 62
256
370
-1
 48
1.0
  6
ByLayer
100
AcDbLine
 10
-161.2499999999999432
 20
132.5319368534445061
 30
0.0
 11
-161.1988887394339258
 21
132.1437082857914902
 31
0.0
  0
LINE
  5
137
100
AcDbEntity
  8
0
 62
256
370
-1
 48
1.0
  6
ByLayer
100
AcDbLine
 10
-253.325333683695419
 20
132.4553653159501891
 30
0.0
 11
-253.1754830499384354
 21
132.0935938836032051
 31
0.0
  0
LINE
  5
138
100
AcDbEntity
  8
0
 62
256
370
-1
 48
1.0
  6
ByLayer
100
AcDbLine
 10
-161.1988887394339258
 20
132.1437082857914902
 30
0.0
 11
-161.0490381056769422
 21
131.7819368534445061
 31
0.0
  0
LINE
  5
139
100
AcDbEntity
  8
0
 62
256
370
-1
 48
1.0
  6
ByLayer
100
AcDbLine
 10
-253.1754830499384354
 20
132.0935938836032051
 30
0.0
 11
-252.9371051160414368
 21
131.7829337118241995
 31
0.0
  0
LINE
  5
13A
100
AcDbEntity
  8
0
 62
256
370
-1
 48
1.0
  6
ByLayer
100
AcDbLine
 10
-161.0490381056769422
 20
131.7819368534445061
 30
0.0
 11
-160.8106601717799435
 21
131.4712766816655005
 31
0.0
  0
LINE
  5
13B
100
AcDbEntity
  8
0
 62
256
370
-1
 48
1.0
  6
ByLayer
100
AcDbLine
 10
-252.9371051160414368
 20
131.7829337118241995
 30
0.0
 11
-252.6264449442614364
 21
131.5445557779272008
 31
0.0
  0
LINE
  5
13C
100
AcDbEntity
  8
0
 62
256
370
-1
 48
1.0
  6
ByLayer
100
AcDbLine
 10
-160.8106601717799435
 20
131.4712766816655005
 30
0.0
 11
-160.4999999999999432
 21
131.2328987477685018
 31
0.0
  0
LINE
  5
13D
100
AcDbEntity
  8
0
 62
256
370
-1
 48
1.0
  6
ByLayer
100
AcDbLine
 10
-252.6264449442614364
 20
131.5445557779272008
 30
0.0
 11
-252.2646735119154187
 21
131.3947051441701888
 31
0.0
  0
LINE
  5
13E
100
AcDbEntity
  8
0
 62
256
370
-1
 48
1.0
  6
ByLayer
100
AcDbLine
 10
-160.4999999999999432
 20
131.2328987477685018
 30
0.0
 11
-160.1382285676539254
 21
131.0830481140114898
 31
0.0
  0
LINE
  5
13F
100
AcDbEntity
  8
0
 62
256
370
-1
 48
1.0
  6
ByLayer
100
AcDbLine
 10
-252.2646735119154187
 20
131.3947051441701888
 30
0.0
 11
-251.8764449442614364
 21
131.3435938836032051
 31
0.0
  0
LINE
  5
140
100
AcDbEntity
  8
0
 62
256
370
-1
 48
1.0
  6
ByLayer
100
AcDbLine
 10
-160.1382285676539254
 20
131.0830481140114898
 30
0.0
 11
-159.7499999999999432
 21
131.0319368534445061
 31
0.0
  0
LINE
  5
141
100
AcDbEntity
  8
0
 62
256
370
-1
 48
1.0
  6
ByLayer
100
AcDbLine
 10
-172.3764449442615501
 20
131.3435938836032051
 30
0.0
 11
-171.9882163766077383
 21
131.3947051441701603
 31
0.0
  0
LINE
  5
142
100
AcDbEntity
  8
0
 62
256
370
-1
 48
1.0
  6
ByLayer
100
AcDbLine
 10
-80.2500000000000568
 20
131.0319368534445061
 30
0.0
 11
-79.8617714323462451
 21
131.0830481140114614
 31
0.0
  0
LINE
  5
143
100
AcDbEntity
  8
0
 62
256
370
-1
 48
1.0
  6
ByLayer
100
AcDbLine
 10
-171.9882163766077383
 20
131.3947051441701603
 30
0.0
 11
-171.6264449442615501
 21
131.5445557779271724
 31
0.0
  0
LINE
  5
144
100
AcDbEntity
  8
0
 62
256
370
-1
 48
1.0
  6
ByLayer
100
AcDbLine
 10
-79.8617714323462451
 20
131.0830481140114614
 30
0.0
 11
-79.5000000000000568
 21
131.2328987477684734
 31
0.0
  0
LINE
  5
145
100
AcDbEntity
  8
0
 62
256
370
-1
 48
1.0
  6
ByLayer
100
AcDbLine
 10
-171.6264449442615501
 20
131.5445557779271724
 30
0.0
 11
-171.3157847724816349
 21
131.782933711824171
 31
0.0
  0
LINE
  5
146
100
AcDbEntity
  8
0
 62
256
370
-1
 48
1.0
  6
ByLayer
100
AcDbLine
 10
-79.5000000000000568
 20
131.2328987477684734
 30
0.0
 11
-79.1893398282201417
 21
131.4712766816654721
 31
0.0
  0
LINE
  5
147
100
AcDbEntity
  8
0
 62
256
370
-1
 48
1.0
  6
ByLayer
100
AcDbLine
 10
-171.3157847724816349
 20
131.782933711824171
 30
0.0
 11
-171.0774068385848352
 21
132.0935938836032051
 31
0.0
  0
LINE
  5
148
100
AcDbEntity
  8
0
 62
256
370
-1
 48
1.0
  6
ByLayer
100
AcDbLine
 10
-79.1893398282201417
 20
131.4712766816654721
 30
0.0
 11
-78.950961894323342
 21
131.7819368534445061
 31
0.0
  0
LINE
  5
149
100
AcDbEntity
  8
0
 62
256
370
-1
 48
1.0
  6
ByLayer
100
AcDbLine
 10
-171.0774068385848352
 20
132.0935938836032051
 30
0.0
 11
-170.9275562048279369
 21
132.4553653159501891
 31
0.0
  0
LINE
  5
14A
100
AcDbEntity
  8
0
 62
256
370
-1
 48
1.0
  6
ByLayer
100
AcDbLine
 10
-78.950961894323342
 20
131.7819368534445061
 30
0.0
 11
-78.8011112605664437
 21
132.1437082857914902
 31
0.0
  0
LINE
  5
14B
100
AcDbEntity
  8
0
 62
256
370
-1
 48
1.0
  6
ByLayer
100
AcDbLine
 10
-170.9275562048279369
 20
132.4553653159501891
 30
0.0
 11
-170.8764449442615501
 21
132.8435938836032051
 31
0.0
  0
LINE
  5
14C
100
AcDbEntity
  8
0
 62
256
370
-1
 48
1.0
  6
ByLayer
100
AcDbLine
 10
-78.8011112605664437
 20
132.1437082857914902
 30
0.0
 11
-78.7500000000000568
 21
132.5319368534445061
 31
0.0
  0
LINE
  5
14D
100
AcDbEntity
  8
0
 62
256
370
-1
 48
1.0
  6
ByLayer
100
AcDbLine
 10
-170.8764449442615501
 20
132.8435938836032051
 30
0.0
 11
-170.9275562048279369
 21
133.2318224512571874
 31
0.0
  0
LINE
  5
14E
100
AcDbEntity
  8
0
 62
256
370
-1
 48
1.0
  6
ByLayer
100
AcDbLine
 10
-78.7500000000000568
 20
132.5319368534445061
 30
0.0
 11
-78.8011112605664437
 21
132.9201654210984884
 31
0.0
  0
LINE
  5
14F
100
AcDbEntity
  8
0
 62
256
370
-1
 48
1.0
  6
ByLayer
100
AcDbLine
 10
-170.9275562048279369
 20
133.2318224512571874
 30
0.0
 11
-171.0774068385848352
 21
133.5935938836032051
 31
0.0
  0
LINE
  5
150
100
AcDbEntity
  8
0
 62
256
370
-1
 48
1.0
  6
ByLayer
100
AcDbLine
 10
-78.8011112605664437
 20
132.9201654210984884
 30
0.0
 11
-78.950961894323342
 21
133.2819368534445061
 31
0.0
  0
LINE
  5
151
100
AcDbEntity
  8
0
 62
256
370
-1
 48
1.0
  6
ByLayer
100
AcDbLine
 10
-171.0774068385848352
 20
133.5935938836032051
 30
0.0
 11
-171.3157847724816349
 21
133.9042540553832055
 31
0.0
  0
LINE
  5
152
100
AcDbEntity
  8
0
 62
256
370
-1
 48
1.0
  6
ByLayer
100
AcDbLine
 10
-78.950961894323342
 20
133.2819368534445061
 30
0.0
 11
-79.1893398282201417
 21
133.5925970252245065
 31
0.0
  0
LINE
  5
153
100
AcDbEntity
  8
0
 62
256
370
-1
 48
1.0
  6
ByLayer
100
AcDbLine
 10
-171.3157847724816349
 20
133.9042540553832055
 30
0.0
 11
-171.6264449442615216
 21
134.1426319892801473
 31
0.0
  0
LINE
  5
154
100
AcDbEntity
  8
0
 62
256
370
-1
 48
1.0
  6
ByLayer
100
AcDbLine
 10
-79.1893398282201417
 20
133.5925970252245065
 30
0.0
 11
-79.5000000000000284
 21
133.8309749591214484
 31
0.0
  0
LINE
  5
155
100
AcDbEntity
  8
0
 62
256
370
-1
 48
1.0
  6
ByLayer
100
AcDbLine
 10
-171.6264449442615216
 20
134.1426319892801473
 30
0.0
 11
-171.9882163766077383
 21
134.2924826230371878
 31
0.0
  0
LINE
  5
156
100
AcDbEntity
  8
0
 62
256
370
-1
 48
1.0
  6
ByLayer
100
AcDbLine
 10
-79.5000000000000284
 20
133.8309749591214484
 30
0.0
 11
-79.8617714323462451
 21
133.9808255928784888
 31
0.0
  0
LINE
  5
157
100
AcDbEntity
  8
0
 62
256
370
-1
 48
1.0
  6
ByLayer
100
AcDbLine
 10
-171.9882163766077383
 20
134.2924826230371878
 30
0.0
 11
-172.3764449442615216
 21
134.3435938836032051
 31
0.0
  0
LINE
  5
158
100
AcDbEntity
  8
0
 62
256
370
-1
 48
1.0
  6
ByLayer
100
AcDbLine
 10
-79.8617714323462451
 20
133.9808255928784888
 30
0.0
 11
-80.2500000000000284
 21
134.0319368534445061
 31
0.0
  0
LINE
  5
159
100
AcDbEntity
  8
0
 62
256
370
-1
 48
1.0
  6
ByLayer
100
AcDbLine
 10
-172.3764449442615216
 20
134.3435938836032051
 30
0.0
 11
-172.7646735119152481
 21
134.2924826230371878
 31
0.0
  0
LINE
  5
15A
100
AcDbEntity
  8
0
 62
256
370
-1
 48
1.0
  6
ByLayer
100
AcDbLine
 10
-80.2500000000000284
 20
134.0319368534445061
 30
0.0
 11
-80.6382285676537549
 21
133.9808255928784888
 31
0.0
  0
LINE
  5
15B
100
AcDbEntity
  8
0
 62
256
370
-1
 48
1.0
  6
ByLayer
100
AcDbLine
 10
-172.7646735119152481
 20
134.2924826230371878
 30
0.0
 11
-173.1264449442615501
 21
134.1426319892801757
 31
0.0
  0
LINE
  5
15C
100
AcDbEntity
  8
0
 62
256
370
-1
 48
1.0
  6
ByLayer
100
AcDbLine
 10
-80.6382285676537549
 20
133.9808255928784888
 30
0.0
 11
-81.0000000000000568
 21
133.8309749591214768
 31
0.0
  0
LINE
  5
15D
100
AcDbEntity
  8
0
 62
256
370
-1
 48
1.0
  6
ByLayer
100
AcDbLine
 10
-173.1264449442615501
 20
134.1426319892801757
 30
0.0
 11
-173.4371051160413231
 21
133.9042540553832055
 31
0.0
  0
LINE
  5
15E
100
AcDbEntity
  8
0
 62
256
370
-1
 48
1.0
  6
ByLayer
100
AcDbLine
 10
-81.0000000000000568
 20
133.8309749591214768
 30
0.0
 11
-81.3106601717798299
 21
133.5925970252245065
 31
0.0
  0
LINE
  5
15F
100
AcDbEntity
  8
0
 62
256
370
-1
 48
1.0
  6
ByLayer
100
AcDbLine
 10
-173.4371051160413231
 20
133.9042540553832055
 30
0.0
 11
-173.6754830499381228
 21
133.5935938836031767
 31
0.0
  0
LINE
  5
160
100
AcDbEntity
  8
0
 62
256
370
-1
 48
1.0
  6
ByLayer
100
AcDbLine
 10
-81.3106601717798299
 20
133.5925970252245065
 30
0.0
 11
-81.5490381056766296
 21
133.2819368534444777
 31
0.0
  0
LINE
  5
161
100
AcDbEntity
  8
0
 62
256
370
-1
 48
1.0
  6
ByLayer
100
AcDbLine
 10
-173.6754830499381228
 20
133.5935938836031767
 30
0.0
 11
-173.8253336836951348
 21
133.2318224512571874
 31
0.0
  0
LINE
  5
162
100
AcDbEntity
  8
0
 62
256
370
-1
 48
1.0
  6
ByLayer
100
AcDbLine
 10
-81.5490381056766296
 20
133.2819368534444777
 30
0.0
 11
-81.6988887394336416
 21
132.9201654210984884
 31
0.0
  0
LINE
  5
163
100
AcDbEntity
  8
0
 62
256
370
-1
 48
1.0
  6
ByLayer
100
AcDbLine
 10
-173.8253336836951348
 20
133.2318224512571874
 30
0.0
 11
-173.8764449442615216
 21
132.8435938836031767
 31
0.0
  0
LINE
  5
164
100
AcDbEntity
  8
0
 62
256
370
-1
 48
1.0
  6
ByLayer
100
AcDbLine
 10
-81.6988887394336416
 20
132.9201654210984884
 30
0.0
 11
-81.7500000000000284
 21
132.5319368534444777
 31
0.0
  0
LINE
  5
165
100
AcDbEntity
  8
0
 62
256
370
-1
 48
1.0
  6
ByLayer
100
AcDbLine
 10
-173.8764449442615216
 20
132.8435938836031767
 30
0.0
 11
-173.8253336836951348
 21
132.4553653159501891
 31
0.0
  0
LINE
  5
166
100
AcDbEntity
  8
0
 62
256
370
-1
 48
1.0
  6
ByLayer
100
AcDbLine
 10
-81.7500000000000284
 20
132.5319368534444777
 30
0.0
 11
-81.6988887394336416
 21
132.1437082857914902
 31
0.0
  0
LINE
  5
167
100
AcDbEntity
  8
0
 62
256
370
-1
 48
1.0
  6
ByLayer
100
AcDbLine
 10
-173.8253336836951348
 20
132.4553653159501891
 30
0.0
 11
-173.6754830499381228
 21
132.0935938836032051
 31
0.0
  0
LINE
  5
168
100
AcDbEntity
  8
0
 62
256
370
-1
 48
1.0
  6
ByLayer
100
AcDbLine
 10
-81.6988887394336416
 20
132.1437082857914902
 30
0.0
 11
-81.5490381056766296
 21
131.7819368534445061
 31
0.0
  0
LINE
  5
169
100
AcDbEntity
  8
0
 62
256
370
-1
 48
1.0
  6
ByLayer
100
AcDbLine
 10
-173.6754830499381228
 20
132.0935938836032051
 30
0.0
 11
-173.4371051160413231
 21
131.7829337118241995
 31
0.0
  0
LINE
  5
16A
100
AcDbEntity
  8
0
 62
256
370
-1
 48
1.0
  6
ByLayer
100
AcDbLine
 10
-81.5490381056766296
 20
131.7819368534445061
 30
0.0
 11
-81.3106601717798299
 21
131.4712766816655005
 31
0.0
  0
LINE
  5
16B
100
AcDbEntity
  8
0
 62
256
370
-1
 48
1.0
  6
ByLayer
100
AcDbLine
 10
-173.4371051160413231
 20
131.7829337118241995
 30
0.0
 11
-173.1264449442615501
 21
131.5445557779272008
 31
0.0
  0
LINE
  5
16C
100
AcDbEntity
  8
0
 62
256
370
-1
 48
1.0
  6
ByLayer
100
AcDbLine
 10
-81.3106601717798299
 20
131.4712766816655005
 30
0.0
 11
-81.0000000000000568
 21
131.2328987477685018
 31
0.0
  0
LINE
  5
16D
100
AcDbEntity
  8
0
 62
256
370
-1
 48
1.0
  6
ByLayer
100
AcDbLine
 10
-173.1264449442615501
 20
131.5445557779272008
 30
0.0
 11
-172.7646735119152481
 21
131.3947051441701603
 31
0.0
  0
LINE
  5
16E
100
AcDbEntity
  8
0
 62
256
370
-1
 48
1.0
  6
ByLayer
100
AcDbLine
 10
-81.0000000000000568
 20
131.2328987477685018
 30
0.0
 11
-80.6382285676537549
 21
131.0830481140114614
 31
0.0
  0
LINE
  5
16F
100
AcDbEntity
  8
0
 62
256
370
-1
 48
1.0
  6
ByLayer
100
AcDbLine
 10
-172.7646735119152481
 20
131.3947051441701603
 30
0.0
 11
-172.3764449442615501
 21
131.3435938836032051
 31
0.0
  0
LINE
  5
170
100
AcDbEntity
  8
0
 62
256
370
-1
 48
1.0
  6
ByLayer
100
AcDbLine
 10
-80.6382285676537549
 20
131.0830481140114614
 30
0.0
 11
-80.2500000000000568
 21
131.0319368534445061
 31
0.0
  0
LINE
  5
171
100
AcDbEntity
  8
0
 62
256
370
-1
 48
1.0
  6
ByLayer
100
AcDbLine
 10
-173.8764449442615501
 20
67.7797201767141786
 30
0.0
 11
-173.8253336836951917
 21
67.3914916090601395
 31
0.0
  0
LINE
  5
172
100
AcDbEntity
  8
0
 62
256
370
-1
 48
1.0
  6
ByLayer
100
AcDbLine
 10
-81.7500000000000568
 20
67.4680631465554796
 30
0.0
 11
-81.6988887394336984
 21
67.0798345789014405
 31
0.0
  0
LINE
  5
173
100
AcDbEntity
  8
0
 62
256
370
-1
 48
1.0
  6
ByLayer
100
AcDbLine
 10
-173.8253336836951917
 20
67.3914916090601395
 30
0.0
 11
-173.6754830499381228
 21
67.0297201767141928
 31
0.0
  0
LINE
  5
174
100
AcDbEntity
  8
0
 62
256
370
-1
 48
1.0
  6
ByLayer
100
AcDbLine
 10
-81.6988887394336984
 20
67.0798345789014405
 30
0.0
 11
-81.5490381056766296
 21
66.7180631465554939
 31
0.0
  0
LINE
  5
175
100
AcDbEntity
  8
0
 62
256
370
-1
 48
1.0
  6
ByLayer
100
AcDbLine
 10
-173.6754830499381228
 20
67.0297201767141928
 30
0.0
 11
-173.4371051160413799
 21
66.7190600049341782
 31
0.0
  0
LINE
  5
176
100
AcDbEntity
  8
0
 62
256
370
-1
 48
1.0
  6
ByLayer
100
AcDbLine
 10
-81.5490381056766296
 20
66.7180631465554939
 30
0.0
 11
-81.3106601717798867
 21
66.4074029747754793
 31
0.0
  0
LINE
  5
177
100
AcDbEntity
  8
0
 62
256
370
-1
 48
1.0
  6
ByLayer
100
AcDbLine
 10
-173.4371051160413799
 20
66.7190600049341782
 30
0.0
 11
-173.1264449442615785
 21
66.4806820710372079
 31
0.0
  0
LINE
  5
178
100
AcDbEntity
  8
0
 62
256
370
-1
 48
1.0
  6
ByLayer
100
AcDbLine
 10
-81.3106601717798867
 20
66.4074029747754793
 30
0.0
 11
-81.0000000000000853
 21
66.169025040878509
 31
0.0
  0
LINE
  5
179
100
AcDbEntity
  8
0
 62
256
370
-1
 48
1.0
  6
ByLayer
100
AcDbLine
 10
-173.1264449442615785
 20
66.4806820710372079
 30
0.0
 11
-172.7646735119153334
 21
66.3308314372801533
 31
0.0
  0
LINE
  5
17A
100
AcDbEntity
  8
0
 62
256
370
-1
 48
1.0
  6
ByLayer
100
AcDbLine
 10
-81.0000000000000853
 20
66.169025040878509
 30
0.0
 11
-80.6382285676538402
 21
66.0191744071214544
 31
0.0
  0
LINE
  5
17B
100
AcDbEntity
  8
0
 62
256
370
-1
 48
1.0
  6
ByLayer
100
AcDbLine
 10
-172.7646735119153334
 20
66.3308314372801533
 30
0.0
 11
-172.3764449442615785
 21
66.2797201767141644
 31
0.0
  0
LINE
  5
17C
100
AcDbEntity
  8
0
 62
256
370
-1
 48
1.0
  6
ByLayer
100
AcDbLine
 10
-80.6382285676538402
 20
66.0191744071214544
 30
0.0
 11
-80.2500000000000853
 21
65.9680631465554654
 31
0.0
  0
LINE
  5
17D
100
AcDbEntity
  8
0
 62
256
370
-1
 48
1.0
  6
ByLayer
100
AcDbLine
 10
-172.3764449442615785
 20
66.2797201767141644
 30
0.0
 11
-171.9882163766077667
 21
66.3308314372801249
 31
0.0
  0
LINE
  5
17E
100
AcDbEntity
  8
0
 62
256
370
-1
 48
1.0
  6
ByLayer
100
AcDbLine
 10
-80.2500000000000853
 20
65.9680631465554654
 30
0.0
 11
-79.8617714323462735
 21
66.0191744071214259
 31
0.0
  0
LINE
  5
17F
100
AcDbEntity
  8
0
 62
256
370
-1
 48
1.0
  6
ByLayer
100
AcDbLine
 10
-171.9882163766077667
 20
66.3308314372801249
 30
0.0
 11
-171.6264449442615216
 21
66.4806820710372222
 31
0.0
  0
LINE
  5
180
100
AcDbEntity
  8
0
 62
256
370
-1
 48
1.0
  6
ByLayer
100
AcDbLine
 10
-79.8617714323462735
 20
66.0191744071214259
 30
0.0
 11
-79.5000000000000284
 21
66.1690250408785232
 31
0.0
  0
LINE
  5
181
100
AcDbEntity
  8
0
 62
256
370
-1
 48
1.0
  6
ByLayer
100
AcDbLine
 10
-171.6264449442615216
 20
66.4806820710372222
 30
0.0
 11
-171.3157847724818055
 21
66.719060004934164
 31
0.0
  0
LINE
  5
182
100
AcDbEntity
  8
0
 62
256
370
-1
 48
1.0
  6
ByLayer
100
AcDbLine
 10
-79.5000000000000284
 20
66.1690250408785232
 30
0.0
 11
-79.1893398282203123
 21
66.4074029747754651
 31
0.0
  0
LINE
  5
183
100
AcDbEntity
  8
0
 62
256
370
-1
 48
1.0
  6
ByLayer
100
AcDbLine
 10
-171.3157847724818055
 20
66.719060004934164
 30
0.0
 11
-171.0774068385848352
 21
67.0297201767141928
 31
0.0
  0
LINE
  5
184
100
AcDbEntity
  8
0
 62
256
370
-1
 48
1.0
  6
ByLayer
100
AcDbLine
 10
-79.1893398282203123
 20
66.4074029747754651
 30
0.0
 11
-78.950961894323342
 21
66.7180631465554939
 31
0.0
  0
LINE
  5
185
100
AcDbEntity
  8
0
 62
256
370
-1
 48
1.0
  6
ByLayer
100
AcDbLine
 10
-171.0774068385848352
 20
67.0297201767141928
 30
0.0
 11
-170.9275562048279369
 21
67.3914916090601537
 31
0.0
  0
LINE
  5
186
100
AcDbEntity
  8
0
 62
256
370
-1
 48
1.0
  6
ByLayer
100
AcDbLine
 10
-78.950961894323342
 20
66.7180631465554939
 30
0.0
 11
-78.8011112605664437
 21
67.0798345789014547
 31
0.0
  0
LINE
  5
187
100
AcDbEntity
  8
0
 62
256
370
-1
 48
1.0
  6
ByLayer
100
AcDbLine
 10
-170.9275562048279369
 20
67.3914916090601537
 30
0.0
 11
-170.8764449442615501
 21
67.7797201767141928
 31
0.0
  0
LINE
  5
188
100
AcDbEntity
  8
0
 62
256
370
-1
 48
1.0
  6
ByLayer
100
AcDbLine
 10
-78.8011112605664437
 20
67.0798345789014547
 30
0.0
 11
-78.7500000000000568
 21
67.4680631465554939
 31
0.0
  0
LINE
  5
189
100
AcDbEntity
  8
0
 62
256
370
-1
 48
1.0
  6
ByLayer
100
AcDbLine
 10
-170.8764449442615501
 20
67.7797201767141928
 30
0.0
 11
-170.9275562048279653
 21
68.1679487443682319
 31
0.0
  0
LINE
  5
18A
100
AcDbEntity
  8
0
 62
256
370
-1
 48
1.0
  6
ByLayer
100
AcDbLine
 10
-78.7500000000000568
 20
67.4680631465554939
 30
0.0
 11
-78.8011112605664721
 21
67.856291714209533
 31
0.0
  0
LINE
  5
18B
100
AcDbEntity
  8
0
 62
256
370
-1
 48
1.0
  6
ByLayer
100
AcDbLine
 10
-170.9275562048279653
 20
68.1679487443682319
 30
0.0
 11
-171.0774068385848068
 21
68.5297201767141928
 31
0.0
  0
LINE
  5
18C
100
AcDbEntity
  8
0
 62
256
370
-1
 48
1.0
  6
ByLayer
100
AcDbLine
 10
-78.8011112605664721
 20
67.856291714209533
 30
0.0
 11
-78.9509618943233136
 21
68.2180631465554939
 31
0.0
  0
LINE
  5
18D
100
AcDbEntity
  8
0
 62
256
370
-1
 48
1.0
  6
ByLayer
100
AcDbLine
 10
-171.0774068385848068
 20
68.5297201767141928
 30
0.0
 11
-171.3157847724817202
 21
68.8403803484941932
 31
0.0
  0
LINE
  5
18E
100
AcDbEntity
  8
0
 62
256
370
-1
 48
1.0
  6
ByLayer
100
AcDbLine
 10
-78.9509618943233136
 20
68.2180631465554939
 30
0.0
 11
-79.189339828220227
 21
68.5287233183354942
 31
0.0
  0
LINE
  5
18F
100
AcDbEntity
  8
0
 62
256
370
-1
 48
1.0
  6
ByLayer
100
AcDbLine
 10
-171.3157847724817202
 20
68.8403803484941932
 30
0.0
 11
-171.6264449442615216
 21
69.0787582823911634
 31
0.0
  0
LINE
  5
190
100
AcDbEntity
  8
0
 62
256
370
-1
 48
1.0
  6
ByLayer
100
AcDbLine
 10
-79.189339828220227
 20
68.5287233183354942
 30
0.0
 11
-79.5000000000000284
 21
68.7671012522324645
 31
0.0
  0
LINE
  5
191
100
AcDbEntity
  8
0
 62
256
370
-1
 48
1.0
  6
ByLayer
100
AcDbLine
 10
-171.6264449442615216
 20
69.0787582823911634
 30
0.0
 11
-171.9882163766077667
 21
69.2286089161482323
 31
0.0
  0
LINE
  5
192
100
AcDbEntity
  8
0
 62
256
370
-1
 48
1.0
  6
ByLayer
100
AcDbLine
 10
-79.5000000000000284
 20
68.7671012522324645
 30
0.0
 11
-79.8617714323462735
 21
68.9169518859895334
 31
0.0
  0
LINE
  5
193
100
AcDbEntity
  8
0
 62
256
370
-1
 48
1.0
  6
ByLayer
100
AcDbLine
 10
-171.9882163766077667
 20
69.2286089161482323
 30
0.0
 11
-172.3764449442615501
 21
69.2797201767141786
 31
0.0
  0
LINE
  5
194
100
AcDbEntity
  8
0
 62
256
370
-1
 48
1.0
  6
ByLayer
100
AcDbLine
 10
-79.8617714323462735
 20
68.9169518859895334
 30
0.0
 11
-80.2500000000000568
 21
68.9680631465554796
 31
0.0
  0
LINE
  5
195
100
AcDbEntity
  8
0
 62
256
370
-1
 48
1.0
  6
ByLayer
100
AcDbLine
 10
-172.3764449442615501
 20
69.2797201767141786
 30
0.0
 11
-172.7646735119154187
 21
69.2286089161482039
 31
0.0
  0
LINE
  5
196
100
AcDbEntity
  8
0
 62
256
370
-1
 48
1.0
  6
ByLayer
100
AcDbLine
 10
-80.2500000000000568
 20
68.9680631465554796
 30
0.0
 11
-80.6382285676539254
 21
68.9169518859895049
 31
0.0
  0
LINE
  5
197
100
AcDbEntity
  8
0
 62
256
370
-1
 48
1.0
  6
ByLayer
100
AcDbLine
 10
-172.7646735119154187
 20
69.2286089161482039
 30
0.0
 11
-173.1264449442615501
 21
69.0787582823911492
 31
0.0
  0
LINE
  5
198
100
AcDbEntity
  8
0
 62
256
370
-1
 48
1.0
  6
ByLayer
100
AcDbLine
 10
-80.6382285676539254
 20
68.9169518859895049
 30
0.0
 11
-81.0000000000000568
 21
68.7671012522324503
 31
0.0
  0
LINE
  5
199
100
AcDbEntity
  8
0
 62
256
370
-1
 48
1.0
  6
ByLayer
100
AcDbLine
 10
-173.1264449442615501
 20
69.0787582823911492
 30
0.0
 11
-173.4371051160413799
 21
68.840380348494179
 31
0.0
  0
LINE
  5
19A
100
AcDbEntity
  8
0
 62
256
370
-1
 48
1.0
  6
ByLayer
100
AcDbLine
 10
-81.0000000000000568
 20
68.7671012522324503
 30
0.0
 11
-81.3106601717798867
 21
68.52872331833548
 31
0.0
  0
LINE
  5
19B
100
AcDbEntity
  8
0
 62
256
370
-1
 48
1.0
  6
ByLayer
100
AcDbLine
 10
-173.4371051160413799
 20
68.840380348494179
 30
0.0
 11
-173.6754830499381512
 21
68.5297201767141928
 31
0.0
  0
LINE
  5
19C
100
AcDbEntity
  8
0
 62
256
370
-1
 48
1.0
  6
ByLayer
100
AcDbLine
 10
-81.3106601717798867
 20
68.52872331833548
 30
0.0
 11
-81.549038105676658
 21
68.2180631465554939
 31
0.0
  0
LINE
  5
19D
100
AcDbEntity
  8
0
 62
256
370
-1
 48
1.0
  6
ByLayer
100
AcDbLine
 10
-173.6754830499381512
 20
68.5297201767141928
 30
0.0
 11
-173.8253336836951632
 21
68.1679487443682319
 31
0.0
  0
LINE
  5
19E
100
AcDbEntity
  8
0
 62
256
370
-1
 48
1.0
  6
ByLayer
100
AcDbLine
 10
-81.549038105676658
 20
68.2180631465554939
 30
0.0
 11
-81.69888873943367
 21
67.856291714209533
 31
0.0
  0
LINE
  5
19F
100
AcDbEntity
  8
0
 62
256
370
-1
 48
1.0
  6
ByLayer
100
AcDbLine
 10
-173.8253336836951632
 20
68.1679487443682319
 30
0.0
 11
-173.8764449442615501
 21
67.7797201767141786
 31
0.0
  0
LINE
  5
1A0
100
AcDbEntity
  8
0
 62
256
370
-1
 48
1.0
  6
ByLayer
100
AcDbLine
 10
-81.69888873943367
 20
67.856291714209533
 30
0.0
 11
-81.7500000000000568
 21
67.4680631465554796
 31
0.0
  0
LINE
  5
1A1
100
AcDbEntity
  8
0
 62
256
370
-1
 48
1.0
  6
ByLayer
100
AcDbLine
 10
-230.2764449442615557
 20
72.1797201767142411
 30
0.0
 11
-230.2764449442615842
 21
69.3797201767141871
 31
0.0
  0
LINE
  5
1A2
100
AcDbEntity
  8
0
 62
256
370
-1
 48
1.0
  6
ByLayer
100
AcDbLine
 10
-138.1500000000000625
 20
71.8680631465555422
 30
0.0
 11
-138.1500000000000909
 21
69.0680631465554882
 31
0.0
  0
LINE
  5
1A3
100
AcDbEntity
  8
0
 62
256
370
-1
 48
1.0
  6
ByLayer
100
AcDbLine
 10
-230.2764449442615557
 20
72.1920126361128496
 30
0.0
 11
-230.2764449442615557
 21
69.112012636112766
 31
0.0
  0
LINE
  5
1A4
100
AcDbEntity
  8
0
 62
256
370
-1
 48
1.0
  6
ByLayer
100
AcDbLine
 10
-138.1500000000000625
 20
71.8803556059541506
 30
0.0
 11
-138.1500000000000625
 21
68.8003556059540671
 31
0.0
  0
LINE
  5
1A5
100
AcDbEntity
  8
0
 62
256
370
-1
 48
1.0
  6
ByLayer
100
AcDbLine
 10
-230.2764449442615557
 20
69.112012636112766
 30
0.0
 11
-193.9764449442615728
 21
69.1120126361127518
 31
0.0
  0
LINE
  5
1A6
100
AcDbEntity
  8
0
 62
256
370
-1
 48
1.0
  6
ByLayer
100
AcDbLine
 10
-138.1500000000000625
 20
68.8003556059540671
 30
0.0
 11
-101.8500000000000796
 21
68.8003556059540529
 31
0.0
  0
LINE
  5
1A7
100
AcDbEntity
  8
0
 62
256
370
-1
 48
1.0
  6
ByLayer
100
AcDbLine
 10
-193.9764449442615728
 20
69.3797201767141587
 30
0.0
 11
-193.9764449442615728
 21
72.1797201767142269
 31
0.0
  0
LINE
  5
1A8
100
AcDbEntity
  8
0
 62
256
370
-1
 48
1.0
  6
ByLayer
100
AcDbLine
 10
-101.8500000000000796
 20
69.0680631465554598
 30
0.0
 11
-101.8500000000000796
 21
71.868063146555528
 31
0.0
  0
LINE
  5
1A9
100
AcDbEntity
  8
0
 62
256
370
-1
 48
1.0
  6
ByLayer
100
AcDbLine
 10
-193.9764449442615728
 20
69.1120126361127518
 30
0.0
 11
-193.9764449442614875
 21
72.1920126361128496
 31
0.0
  0
LINE
  5
1AA
100
AcDbEntity
  8
0
 62
256
370
-1
 48
1.0
  6
ByLayer
100
AcDbLine
 10
-101.8500000000000796
 20
68.8003556059540529
 30
0.0
 11
-101.8499999999999943
 21
71.8803556059541506
 31
0.0
  0
LINE
  5
1AB
100
AcDbEntity
  8
0
 62
256
370
-1
 48
1.0
  6
ByLayer
100
AcDbLine
 10
-193.9764449442615728
 20
72.1797201767142269
 30
0.0
 11
-230.2764449442615557
 21
72.1797201767142411
 31
0.0
  0
LINE
  5
1AC
100
AcDbEntity
  8
0
 62
256
370
-1
 48
1.0
  6
ByLayer
100
AcDbLine
 10
-101.8500000000000796
 20
71.868063146555528
 30
0.0
 11
-138.1500000000000625
 21
71.8680631465555422
 31
0.0
  0
LINE
  5
1AD
100
AcDbEntity
  8
0
 62
256
370
-1
 48
1.0
  6
ByLayer
100
AcDbLine
 10
-193.9764449442614875
 20
72.1920126361128496
 30
0.0
 11
-230.2764449442615557
 21
72.1920126361128496
 31
0.0
  0
LINE
  5
1AE
100
AcDbEntity
  8
0
 62
256
370
-1
 48
1.0
  6
ByLayer
100
AcDbLine
 10
-101.8499999999999943
 20
71.8803556059541506
 30
0.0
 11
-138.1500000000000625
 21
71.8803556059541506
 31
0.0
  0
LINE
  5
1AF
100
AcDbEntity
  8
0
 62
256
370
-1
 48
1.0
  6
ByLayer
100
AcDbLine
 10
-176.7764449442615273
 20
116.1797201767141985
 30
0.0
 11
-176.7764449442615557
 21
84.3797201767141729
 31
0.0
  0
LINE
  5
1B0
100
AcDbEntity
  8
0
 62
256
370
-1
 48
1.0
  6
ByLayer
100
AcDbLine
 10
-84.6500000000000341
 20
115.8680631465554995
 30
0.0
 11
-84.6500000000000625
 21
84.068063146555474
 31
0.0
  0
LINE
  5
1B1
100
AcDbEntity
  8
0
 62
256
370
-1
 48
1.0
  6
ByLayer
100
AcDbLine
 10
-176.7764449442615557
 20
84.3797201767141729
 30
0.0
 11
-173.6964449442615432
 21
84.3797201767141871
 31
0.0
  0
LINE
  5
1B2
100
AcDbEntity
  8
0
 62
256
370
-1
 48
1.0
  6
ByLayer
100
AcDbLine
 10
-84.6500000000000625
 20
84.068063146555474
 30
0.0
 11
-81.57000000000005
 21
84.0680631465554882
 31
0.0
  0
LINE
  5
1B3
100
AcDbEntity
  8
0
 62
256
370
-1
 48
1.0
  6
ByLayer
100
AcDbLine
 10
-173.6964449442615432
 20
84.3797201767141871
 30
0.0
 11
-173.6964449442615432
 21
116.1797201767141985
 31
0.0
  0
LINE
  5
1B4
100
AcDbEntity
  8
0
 62
256
370
-1
 48
1.0
  6
ByLayer
100
AcDbLine
 10
-81.57000000000005
 20
84.0680631465554882
 30
0.0
 11
-81.57000000000005
 21
115.8680631465554995
 31
0.0
  0
LINE
  5
1B5
100
AcDbEntity
  8
0
 62
256
370
-1
 48
1.0
  6
ByLayer
100
AcDbLine
 10
-173.6964449442615432
 20
116.1797201767141985
 30
0.0
 11
-176.7764449442615273
 21
116.1797201767141985
 31
0.0
  0
LINE
  5
1B6
100
AcDbEntity
  8
0
 62
256
370
-1
 48
1.0
  6
ByLayer
100
AcDbLine
 10
-81.57000000000005
 20
115.8680631465554995
 30
0.0
 11
-84.6500000000000341
 21
115.8680631465554995
 31
0.0
  0
LINE
  5
1B7
100
AcDbEntity
  8
0
 62
256
370
-1
 48
1.0
  6
ByLayer
100
AcDbLine
 10
-230.2764449442615273
 20
128.4435938836031994
 30
0.0
 11
-193.9764449442615444
 21
128.4435938836031994
 31
0.0
  0
LINE
  5
1B8
100
AcDbEntity
  8
0
 62
256
370
-1
 48
1.0
  6
ByLayer
100
AcDbLine
 10
-138.1500000000000341
 20
128.1319368534445005
 30
0.0
 11
-101.8500000000000512
 21
128.1319368534445005
 31
0.0
  0
LINE
  5
1B9
100
AcDbEntity
  8
0
 62
256
370
-1
 48
1.0
  6
ByLayer
100
AcDbLine
 10
-193.9764449442615444
 20
128.4435938836031994
 30
0.0
 11
-193.9764449442615444
 21
131.5235938836031835
 31
0.0
  0
LINE
  5
1BA
100
AcDbEntity
  8
0
 62
256
370
-1
 48
1.0
  6
ByLayer
100
AcDbLine
 10
-101.8500000000000512
 20
128.1319368534445005
 30
0.0
 11
-101.8500000000000512
 21
131.2119368534444845
 31
0.0
  0
LINE
  5
1BB
100
AcDbEntity
  8
0
 62
256
370
-1
 48
1.0
  6
ByLayer
100
AcDbLine
 10
-193.9764449442615444
 20
131.5235938836031835
 30
0.0
 11
-230.2764449442615273
 21
131.5235938836031835
 31
0.0
  0
LINE
  5
1BC
100
AcDbEntity
  8
0
 62
256
370
-1
 48
1.0
  6
ByLayer
100
AcDbLine
 10
-101.8500000000000512
 20
131.2119368534444845
 30
0.0
 11
-138.1500000000000341
 21
131.2119368534444845
 31
0.0
  0
LINE
  5
1BD
100
AcDbEntity
  8
0
 62
256
370
-1
 48
1.0
  6
ByLayer
100
AcDbLine
 10
-230.2764449442615273
 20
131.5235938836031835
 30
0.0
 11
-230.2764449442615273
 21
128.4435938836031994
 31
0.0
  0
LINE
  5
1BE
100
AcDbEntity
  8
0
 62
256
370
-1
 48
1.0
  6
ByLayer
100
AcDbLine
 10
-138.1500000000000341
 20
131.2119368534444845
 30
0.0
 11
-138.1500000000000341
 21
128.1319368534445005
 31
0.0
  0
LINE
  5
1BF
100
AcDbEntity
  8
0
 62
256
370
-1
 48
1.0
  6
ByLayer
100
AcDbLine
 10
-247.4764449442614307
 20
84.3797201767141871
 30
0.0
 11
-247.4764449442614307
 21
116.1797201767142127
 31
0.0
  0
LINE
  5
1C0
100
AcDbEntity
  8
0
 62
256
370
-1
 48
1.0
  6
ByLayer
100
AcDbLine
 10
-155.3499999999999375
 20
84.0680631465554882
 30
0.0
 11
-155.3499999999999375
 21
115.8680631465555138
 31
0.0
  0
LINE
  5
1C1
100
AcDbEntity
  8
0
 62
256
370
-1
 48
1.0
  6
ByLayer
100
AcDbLine
 10
-247.4764449442614307
 20
116.1797201767142127
 30
0.0
 11
-250.5564449442614148
 21
116.1797201767141843
 31
0.0
  0
LINE
  5
1C2
100
AcDbEntity
  8
0
 62
256
370
-1
 48
1.0
  6
ByLayer
100
AcDbLine
 10
-155.3499999999999375
 20
115.8680631465555138
 30
0.0
 11
-158.4299999999999216
 21
115.8680631465554853
 31
0.0
  0
LINE
  5
1C3
100
AcDbEntity
  8
0
 62
256
370
-1
 48
1.0
  6
ByLayer
100
AcDbLine
 10
-250.5564449442614148
 20
116.1797201767141843
 30
0.0
 11
-250.5564449442614148
 21
84.3797201767141871
 31
0.0
  0
LINE
  5
1C4
100
AcDbEntity
  8
0
 62
256
370
-1
 48
1.0
  6
ByLayer
100
AcDbLine
 10
-158.4299999999999216
 20
115.8680631465554853
 30
0.0
 11
-158.4299999999999216
 21
84.0680631465554882
 31
0.0
  0
LINE
  5
1C5
100
AcDbEntity
  8
0
 62
256
370
-1
 48
1.0
  6
ByLayer
100
AcDbLine
 10
-250.5564449442614148
 20
84.3797201767141871
 30
0.0
 11
-247.4764449442614307
 21
84.3797201767141871
 31
0.0
  0
LINE
  5
1C6
100
AcDbEntity
  8
0
 62
256
370
-1
 48
1.0
  6
ByLayer
100
AcDbLine
 10
-158.4299999999999216
 20
84.0680631465554882
 30
0.0
 11
-155.3499999999999375
 21
84.0680631465554882
 31
0.0
  0
LINE
  5
1C7
100
AcDbEntity
  8
0
 62
256
370
-1
 48
1.0
  6
ByLayer
100
AcDbLine
 10
-95.851898779663415
 20
145.2022985201461154
 30
0.0
 11
-95.8518987796634292
 21
142.2022985201461722
 31
0.0
  0
LINE
  5
1C8
100
AcDbEntity
  8
0
 62
256
370
-1
 48
1.0
  6
ByLayer
100
AcDbLine
 10
-132.3518987796634292
 20
142.2022985201461722
 30
0.0
 11
-95.8518987796634292
 21
142.2022985201461722
 31
0.0
  0
LINE
  5
1C9
100
AcDbEntity
  8
0
 62
256
370
-1
 48
1.0
  6
ByLayer
100
AcDbLine
 10
-132.3518987796634292
 20
145.2022985201461438
 30
0.0
 11
-132.3518987796634292
 21
142.2022985201461722
 31
0.0
  0
LINE
  5
1CA
100
AcDbEntity
  8
0
 62
256
370
-1
 48
1.0
  6
ByLayer
100
AcDbLine
 10
-149.3518987796634292
 20
145.2022985201461438
 30
0.0
 11
-132.3518987796634292
 21
145.2022985201461438
 31
0.0
  0
LINE
  5
1CB
100
AcDbEntity
  8
0
 62
256
370
-1
 48
1.0
  6
ByLayer
100
AcDbLine
 10
-149.3518987796634008
 20
183.2974820550191737
 30
0.0
 11
-149.3518987796634292
 21
173.2974820550191453
 31
0.0
  0
LINE
  5
1CC
100
AcDbEntity
  8
0
 62
256
370
-1
 48
1.0
  6
ByLayer
100
AcDbLine
 10
-95.851898779663415
 20
183.2974820550192021
 30
0.0
 11
-95.8518987796634008
 21
186.2974820550191737
 31
0.0
  0
LINE
  5
1CD
100
AcDbEntity
  8
0
 62
256
370
-1
 48
1.0
  6
ByLayer
100
AcDbLine
 10
-95.851898779663415
 20
183.2974820550192021
 30
0.0
 11
-75.8518987796634008
 21
183.2974820550191453
 31
0.0
  0
LINE
  5
1CE
100
AcDbEntity
  8
0
 62
256
370
-1
 48
1.0
  6
ByLayer
100
AcDbLine
 10
-75.8518987796634008
 20
183.2974820550191453
 30
0.0
 11
-75.8518987796634434
 21
173.1974820550191794
 31
0.0
  0
LINE
  5
1CF
100
AcDbEntity
  8
0
 62
256
370
-1
 48
1.0
  6
ByLayer
100
AcDbLine
 10
-75.851898779663415
 20
155.3022985201461381
 30
0.0
 11
-75.8518987796634008
 21
145.2022985201460585
 31
0.0
  0
LINE
  5
1D0
100
AcDbEntity
  8
0
 62
256
370
-1
 48
1.0
  6
ByLayer
100
AcDbLine
 10
-149.3518987796634292
 20
145.2022985201461438
 30
0.0
 11
-149.3518987796634292
 21
155.2022985201461438
 31
0.0
  0
LINE
  5
1D1
100
AcDbEntity
  8
0
 62
256
370
-1
 48
1.0
  6
ByLayer
100
AcDbLine
 10
-149.3518987796634008
 20
183.2974820550191737
 30
0.0
 11
-132.3518987796634292
 21
183.2974820550191453
 31
0.0
  0
LINE
  5
1D2
100
AcDbEntity
  8
0
 62
256
370
-1
 48
1.0
  6
ByLayer
100
AcDbLine
 10
-132.3518987796634292
 20
183.2974820550191453
 30
0.0
 11
-132.3518987796634292
 21
186.2974820550191453
 31
0.0
  0
LINE
  5
1D3
100
AcDbEntity
  8
0
 62
256
370
-1
 48
1.0
  6
ByLayer
100
AcDbLine
 10
-132.3518987796634292
 20
186.2974820550191453
 30
0.0
 11
-95.8518987796634008
 21
186.2974820550191737
 31
0.0
  0
LINE
  5
1D4
100
AcDbEntity
  8
0
 62
256
370
-1
 48
1.0
  6
ByLayer
100
AcDbLine
 10
-75.8518987796634008
 20
145.2022985201460585
 30
0.0
 11
-95.851898779663415
 21
145.2022985201461154
 31
0.0
  0
LINE
  5
1D5
100
AcDbEntity
  8
0
 62
256
370
-1
 48
1.0
  6
ByLayer
100
AcDbLine
 10
-75.851898779663415
 20
155.3022985201461381
 30
0.0
 11
-78.8518987796634008
 21
155.3022985201461097
 31
0.0
  0
LINE
  5
1D6
100
AcDbEntity
  8
0
 62
256
370
-1
 48
1.0
  6
ByLayer
100
AcDbLine
 10
-78.8518987796634008
 20
155.3022985201461097
 30
0.0
 11
-78.8518987796634292
 21
173.1974820550191794
 31
0.0
  0
LINE
  5
1D7
100
AcDbEntity
  8
0
 62
256
370
-1
 48
1.0
  6
ByLayer
100
AcDbLine
 10
-75.8518987796634434
 20
173.1974820550191794
 30
0.0
 11
-78.8518987796634292
 21
173.1974820550191794
 31
0.0
  0
LINE
  5
1D8
100
AcDbEntity
  8
0
 62
256
370
-1
 48
1.0
  6
ByLayer
100
AcDbLine
 10
-152.3518987796634292
 20
155.2022985201461722
 30
0.0
 11
-149.3518987796634292
 21
155.2022985201461438
 31
0.0
  0
LINE
  5
1D9
100
AcDbEntity
  8
0
 62
256
370
-1
 48
1.0
  6
ByLayer
100
AcDbLine
 10
-152.3518987796634008
 20
173.2974820550191453
 30
0.0
 11
-149.3518987796634292
 21
173.2974820550191453
 31
0.0
  0
LINE
  5
1DA
100
AcDbEntity
  8
0
 62
256
370
-1
 48
1.0
  6
ByLayer
100
AcDbLine
 10
-152.3518987796634008
 20
173.2974820550191453
 30
0.0
 11
-152.3518987796634292
 21
155.2022985201461722
 31
0.0
  0
LINE
  5
1DB
100
AcDbEntity
  8
0
 62
256
370
-1
 48
1.0
  6
ByLayer
100
AcDbLine
 10
-174.8933364278297518
 20
145.7965950438165237
 30
0.0
 11
-174.8933364278297518
 21
142.7965950438165521
 31
0.0
  0
LINE
  5
1DC
100
AcDbEntity
  8
0
 62
256
370
-1
 48
1.0
  6
ByLayer
100
AcDbLine
 10
-211.3933364278297518
 20
142.7965950438165521
 30
0.0
 11
-174.8933364278297518
 21
142.7965950438165521
 31
0.0
  0
LINE
  5
1DD
100
AcDbEntity
  8
0
 62
256
370
-1
 48
1.0
  6
ByLayer
100
AcDbLine
 10
-211.3933364278297518
 20
145.7965950438165521
 30
0.0
 11
-211.3933364278297518
 21
142.7965950438165521
 31
0.0
  0
LINE
  5
1DE
100
AcDbEntity
  8
0
 62
256
370
-1
 48
1.0
  6
ByLayer
100
AcDbLine
 10
-228.3933364278297518
 20
145.7965950438165521
 30
0.0
 11
-211.3933364278297518
 21
145.7965950438165521
 31
0.0
  0
LINE
  5
1DF
100
AcDbEntity
  8
0
 62
256
370
-1
 48
1.0
  6
ByLayer
100
AcDbLine
 10
-228.3933364278297518
 20
183.8917785786895536
 30
0.0
 11
-228.3933364278297518
 21
173.8917785786895536
 31
0.0
  0
LINE
  5
1E0
100
AcDbEntity
  8
0
 62
256
370
-1
 48
1.0
  6
ByLayer
100
AcDbLine
 10
-174.8933364278297518
 20
183.8917785786895536
 30
0.0
 11
-174.8933364278297233
 21
186.8917785786895536
 31
0.0
  0
LINE
  5
1E1
100
AcDbEntity
  8
0
 62
256
370
-1
 48
1.0
  6
ByLayer
100
AcDbLine
 10
-174.8933364278297518
 20
183.8917785786895536
 30
0.0
 11
-154.8933364278297233
 21
183.8917785786895251
 31
0.0
  0
LINE
  5
1E2
100
AcDbEntity
  8
0
 62
256
370
-1
 48
1.0
  6
ByLayer
100
AcDbLine
 10
-154.8933364278297233
 20
183.8917785786895251
 30
0.0
 11
-154.8933364278297518
 21
173.7917785786895308
 31
0.0
  0
LINE
  5
1E3
100
AcDbEntity
  8
0
 62
256
370
-1
 48
1.0
  6
ByLayer
100
AcDbLine
 10
-154.8933364278297518
 20
155.8965950438165748
 30
0.0
 11
-154.8933364278297518
 21
145.7965950438165237
 31
0.0
  0
LINE
  5
1E4
100
AcDbEntity
  8
0
 62
256
370
-1
 48
1.0
  6
ByLayer
100
AcDbLine
 10
-228.3933364278297518
 20
145.7965950438165521
 30
0.0
 11
-228.3933364278297518
 21
155.7965950438165521
 31
0.0
  0
LINE
  5
1E5
100
AcDbEntity
  8
0
 62
256
370
-1
 48
1.0
  6
ByLayer
100
AcDbLine
 10
-228.3933364278297518
 20
183.8917785786895536
 30
0.0
 11
-211.3933364278297233
 21
183.8917785786895536
 31
0.0
  0
LINE
  5
1E6
100
AcDbEntity
  8
0
 62
256
370
-1
 48
1.0
  6
ByLayer
100
AcDbLine
 10
-211.3933364278297233
 20
183.8917785786895536
 30
0.0
 11
-211.3933364278297518
 21
186.8917785786895536
 31
0.0
  0
LINE
  5
1E7
100
AcDbEntity
  8
0
 62
256
370
-1
 48
1.0
  6
ByLayer
100
AcDbLine
 10
-211.3933364278297518
 20
186.8917785786895536
 30
0.0
 11
-174.8933364278297233
 21
186.8917785786895536
 31
0.0
  0
LINE
  5
1E8
100
AcDbEntity
  8
0
 62
256
370
-1
 48
1.0
  6
ByLayer
100
AcDbLine
 10
-154.8933364278297518
 20
145.7965950438165237
 30
0.0
 11
-174.8933364278297518
 21
145.7965950438165237
 31
0.0
  0
LINE
  5
1E9
100
AcDbEntity
  8
0
 62
256
370
-1
 48
1.0
  6
ByLayer
100
AcDbLine
 10
-154.8933364278297518
 20
155.8965950438165748
 30
0.0
 11
-157.8933364278297518
 21
155.8965950438165748
 31
0.0
  0
LINE
  5
1EA
100
AcDbEntity
  8
0
 62
256
370
-1
 48
1.0
  6
ByLayer
100
AcDbLine
 10
-157.8933364278297518
 20
155.8965950438165748
 30
0.0
 11
-157.8933364278297518
 21
173.7917785786895308
 31
0.0
  0
LINE
  5
1EB
100
AcDbEntity
  8
0
 62
256
370
-1
 48
1.0
  6
ByLayer
100
AcDbLine
 10
-154.8933364278297518
 20
173.7917785786895308
 30
0.0
 11
-157.8933364278297518
 21
173.7917785786895308
 31
0.0
  0
LINE
  5
1EC
100
AcDbEntity
  8
0
 62
256
370
-1
 48
1.0
  6
ByLayer
100
AcDbLine
 10
-231.3933364278297518
 20
155.7965950438165521
 30
0.0
 11
-228.3933364278297518
 21
155.7965950438165521
 31
0.0
  0
LINE
  5
1ED
100
AcDbEntity
  8
0
 62
256
370
-1
 48
1.0
  6
ByLayer
100
AcDbLine
 10
-231.3933364278297518
 20
173.8917785786895536
 30
0.0
 11
-228.3933364278297518
 21
173.8917785786895536
 31
0.0
  0
LINE
  5
1EE
100
AcDbEntity
  8
0
 62
256
370
-1
 48
1.0
  6
ByLayer
100
AcDbLine
 10
-231.3933364278297518
 20
173.8917785786895536
 30
0.0
 11
-231.3933364278297518
 21
155.7965950438165521
 31
0.0
  0
LINE
  5
1EF
100
AcDbEntity
  8
0
 62
256
370
-1
 48
1.0
  6
ByLayer
100
AcDbLine
 10
-265.3749821566518676
 20
78.6808703301913397
 30
0.0
 11
-265.3749821566518676
 21
63.6808703301913397
 31
0.0
  0
LINE
  5
1F0
100
AcDbEntity
  8
0
 62
256
370
-1
 48
1.0
  6
ByLayer
100
AcDbLine
 10
-293.3701656915248464
 20
63.6808703301913539
 30
0.0
 11
-303.4701656915248122
 21
63.6808703301913255
 31
0.0
  0
LINE
  5
1F1
100
AcDbEntity
  8
0
 62
256
370
-1
 48
1.0
  6
ByLayer
100
AcDbLine
 10
-303.4701656915248122
 20
63.6808703301913255
 30
0.0
 11
-303.4701656915248691
 21
78.6808703301913681
 31
0.0
  0
LINE
  5
1F2
100
AcDbEntity
  8
0
 62
256
370
-1
 48
1.0
  6
ByLayer
100
AcDbLine
 10
-303.4701656915248691
 20
78.6808703301913681
 30
0.0
 11
-306.4701656915248691
 21
78.6808703301913539
 31
0.0
  0
LINE
  5
1F3
100
AcDbEntity
  8
0
 62
256
370
-1
 48
1.0
  6
ByLayer
100
AcDbLine
 10
-303.4701656915248122
 20
125.6808703301913539
 30
0.0
 11
-303.4701656915248122
 21
110.6808703301913539
 31
0.0
  0
LINE
  5
1F4
100
AcDbEntity
  8
0
 62
256
370
-1
 48
1.0
  6
ByLayer
100
AcDbLine
 10
-293.3701656915248464
 20
125.6808703301913113
 30
0.0
 11
-303.4701656915248122
 21
125.6808703301913539
 31
0.0
  0
LINE
  5
1F5
100
AcDbEntity
  8
0
 62
256
370
-1
 48
1.0
  6
ByLayer
100
AcDbLine
 10
-265.3749821566518108
 20
125.6808703301913397
 30
0.0
 11
-265.3749821566518676
 21
110.6808703301913397
 31
0.0
  0
LINE
  5
1F6
100
AcDbEntity
  8
0
 62
256
370
-1
 48
1.0
  6
ByLayer
100
AcDbLine
 10
-265.3749821566518676
 20
110.6808703301913397
 30
0.0
 11
-262.3749821566518676
 21
110.6808703301913539
 31
0.0
  0
LINE
  5
1F7
100
AcDbEntity
  8
0
 62
256
370
-1
 48
1.0
  6
ByLayer
100
AcDbLine
 10
-262.3749821566518108
 20
78.6808703301913397
 30
0.0
 11
-262.3749821566518676
 21
110.6808703301913539
 31
0.0
  0
LINE
  5
1F8
100
AcDbEntity
  8
0
 62
256
370
-1
 48
1.0
  6
ByLayer
100
AcDbLine
 10
-265.3749821566518676
 20
78.6808703301913397
 30
0.0
 11
-262.3749821566518108
 21
78.6808703301913397
 31
0.0
  0
LINE
  5
1F9
100
AcDbEntity
  8
0
 62
256
370
-1
 48
1.0
  6
ByLayer
100
AcDbLine
 10
-265.3749821566518108
 20
125.6808703301913397
 30
0.0
 11
-275.4749821566518335
 21
125.6808703301913397
 31
0.0
  0
LINE
  5
1FA
100
AcDbEntity
  8
0
 62
256
370
-1
 48
1.0
  6
ByLayer
100
AcDbLine
 10
-265.3749821566518676
 20
63.6808703301913397
 30
0.0
 11
-275.4749821566518335
 21
63.6808703301913255
 31
0.0
  0
LINE
  5
1FB
100
AcDbEntity
  8
0
 62
256
370
-1
 48
1.0
  6
ByLayer
100
AcDbLine
 10
-306.4701656915248691
 20
78.6808703301913539
 30
0.0
 11
-306.4701656915248122
 21
110.6808703301913113
 31
0.0
  0
LINE
  5
1FC
100
AcDbEntity
  8
0
 62
256
370
-1
 48
1.0
  6
ByLayer
100
AcDbLine
 10
-306.4701656915248122
 20
110.6808703301913113
 30
0.0
 11
-303.4701656915248122
 21
110.6808703301913539
 31
0.0
  0
LINE
  5
1FD
100
AcDbEntity
  8
0
 62
256
370
-1
 48
1.0
  6
ByLayer
100
AcDbLine
 10
-275.4749821566518335
 20
63.6808703301913255
 30
0.0
 11
-275.4749821566518335
 21
66.6808703301913539
 31
0.0
  0
LINE
  5
1FE
100
AcDbEntity
  8
0
 62
256
370
-1
 48
1.0
  6
ByLayer
100
AcDbLine
 10
-293.3701656915248464
 20
63.6808703301913539
 30
0.0
 11
-293.3701656915248464
 21
66.6808703301913539
 31
0.0
  0
LINE
  5
1FF
100
AcDbEntity
  8
0
 62
256
370
-1
 48
1.0
  6
ByLayer
100
AcDbLine
 10
-293.3701656915248464
 20
66.6808703301913539
 30
0.0
 11
-275.4749821566518335
 21
66.6808703301913539
 31
0.0
  0
LINE
  5
200
100
AcDbEntity
  8
0
 62
256
370
-1
 48
1.0
  6
ByLayer
100
AcDbLine
 10
-275.4749821566518335
 20
125.6808703301913397
 30
0.0
 11
-275.4749821566518335
 21
122.6808703301913539
 31
0.0
  0
LINE
  5
201
100
AcDbEntity
  8
0
 62
256
370
-1
 48
1.0
  6
ByLayer
100
AcDbLine
 10
-275.4749821566518335
 20
122.6808703301913539
 30
0.0
 11
-293.3701656915248464
 21
122.6808703301913397
 31
0.0
  0
LINE
  5
202
100
AcDbEntity
  8
0
 62
256
370
-1
 48
1.0
  6
ByLayer
100
AcDbLine
 10
-293.3701656915248464
 20
125.6808703301913113
 30
0.0
 11
-293.3701656915248464
 21
122.6808703301913397
 31
0.0
  0
LINE
  5
203
100
AcDbEntity
  8
0
 62
256
370
-1
 48
1.0
  6
ByLayer
100
AcDbLine
 10
-290.0
 20
164.9951835348730356
 30
0.0
 11
-290.0
 21
176.995183534873064
 31
0.0
  0
LINE
  5
204
100
AcDbEntity
  8
0
 62
256
370
-1
 48
1.0
  6
ByLayer
100
AcDbLine
 10
-282.0
 20
143.0
 30
0.0
 11
-294.063873706889467
 21
143.0
 31
0.0
  0
LINE
  5
205
100
AcDbEntity
  8
0
 62
256
370
-1
 48
1.0
  6
ByLayer
100
AcDbLine
 10
-282.0
 20
181.0951835348730015
 30
0.0
 11
-294.063873706889467
 21
181.0951835348730299
 31
0.0
  0
LINE
  5
206
100
AcDbEntity
  8
0
 62
256
370
-1
 48
1.0
  6
ByLayer
100
AcDbLine
 10
-294.063873706889467
 20
181.0951835348730299
 30
0.0
 11
-294.063873706889467
 21
171.0951835348730299
 31
0.0
  0
LINE
  5
207
100
AcDbEntity
  8
0
 62
256
370
-1
 48
1.0
  6
ByLayer
100
AcDbLine
 10
-282.0
 20
140.0000000000000284
 30
0.0
 11
-250.0
 21
140.0
 31
0.0
  0
LINE
  5
208
100
AcDbEntity
  8
0
 62
256
370
-1
 48
1.0
  6
ByLayer
100
AcDbLine
 10
-261.0
 20
176.9951835348730356
 30
0.0
 11
-261.0
 21
164.995183534873064
 31
0.0
  0
LINE
  5
209
100
AcDbEntity
  8
0
 62
256
370
-1
 48
1.0
  6
ByLayer
100
AcDbLine
 10
-290.0
 20
176.995183534873064
 30
0.0
 11
-280.0
 21
176.9951835348730071
 31
0.0
  0
LINE
  5
20A
100
AcDbEntity
  8
0
 62
256
370
-1
 48
1.0
  6
ByLayer
100
AcDbLine
 10
-238.0
 20
143.0
 30
0.0
 11
-250.0
 21
143.0
 31
0.0
  0
LINE
  5
20B
100
AcDbEntity
  8
0
 62
256
370
-1
 48
1.0
  6
ByLayer
100
AcDbLine
 10
-238.0
 20
181.0951835348730015
 30
0.0
 11
-238.0
 21
176.0951835348730015
 31
0.0
  0
LINE
  5
20C
100
AcDbEntity
  8
0
 62
256
370
-1
 48
1.0
  6
ByLayer
100
AcDbLine
 10
-248.0
 20
164.9951835348730356
 30
0.0
 11
-248.0
 21
176.9951835348730356
 31
0.0
  0
LINE
  5
20D
100
AcDbEntity
  8
0
 62
256
370
-1
 48
1.0
  6
ByLayer
100
AcDbLine
 10
-280.0
 20
176.9951835348730071
 30
0.0
 11
-280.0
 21
164.9951835348730356
 31
0.0
  0
LINE
  5
20E
100
AcDbEntity
  8
0
 62
256
370
-1
 48
1.0
  6
ByLayer
100
AcDbLine
 10
-282.0
 20
143.0
 30
0.0
 11
-282.0
 21
140.0000000000000284
 31
0.0
  0
LINE
  5
20F
100
AcDbEntity
  8
0
 62
256
370
-1
 48
1.0
  6
ByLayer
100
AcDbLine
 10
-238.0
 20
181.0951835348730015
 30
0.0
 11
-250.0
 21
181.0951835348730015
 31
0.0
  0
LINE
  5
210
100
AcDbEntity
  8
0
 62
256
370
-1
 48
1.0
  6
ByLayer
100
AcDbLine
 10
-250.0
 20
143.0
 30
0.0
 11
-250.0
 21
140.0
 31
0.0
  0
LINE
  5
211
100
AcDbEntity
  8
0
 62
256
370
-1
 48
1.0
  6
ByLayer
100
AcDbLine
 10
-280.0
 20
164.9951835348730356
 30
0.0
 11
-290.0
 21
164.9951835348730356
 31
0.0
  0
LINE
  5
212
100
AcDbEntity
  8
0
 62
256
370
-1
 48
1.0
  6
ByLayer
100
AcDbLine
 10
-261.0
 20
164.995183534873064
 30
0.0
 11
-248.0
 21
164.9951835348730356
 31
0.0
  0
LINE
  5
213
100
AcDbEntity
  8
0
 62
256
370
-1
 48
1.0
  6
ByLayer
100
AcDbLine
 10
-282.0
 20
181.0951835348730015
 30
0.0
 11
-282.0
 21
184.0951835348730015
 31
0.0
  0
LINE
  5
214
100
AcDbEntity
  8
0
 62
256
370
-1
 48
1.0
  6
ByLayer
100
AcDbLine
 10
-294.063873706889467
 20
143.0
 30
0.0
 11
-294.063873706889467
 21
153.0
 31
0.0
  0
LINE
  5
215
100
AcDbEntity
  8
0
 62
256
370
-1
 48
1.0
  6
ByLayer
100
AcDbLine
 10
-238.0
 20
143.0
 30
0.0
 11
-238.0
 21
153.0
 31
0.0
  0
LINE
  5
216
100
AcDbEntity
  8
0
 62
256
370
-1
 48
1.0
  6
ByLayer
100
AcDbLine
 10
-248.0
 20
176.9951835348730356
 30
0.0
 11
-261.0
 21
176.9951835348730356
 31
0.0
  0
LINE
  5
217
100
AcDbEntity
  8
0
 62
256
370
-1
 48
1.0
  6
ByLayer
100
AcDbLine
 10
-250.0
 20
184.0951835348730015
 30
0.0
 11
-250.0
 21
181.0951835348730015
 31
0.0
  0
LINE
  5
218
100
AcDbEntity
  8
0
 62
256
370
-1
 48
1.0
  6
ByLayer
100
AcDbLine
 10
-282.0
 20
184.0951835348730015
 30
0.0
 11
-250.0
 21
184.0951835348730015
 31
0.0
  0
LINE
  5
219
100
AcDbEntity
  8
0
 62
256
370
-1
 48
1.0
  6
ByLayer
100
AcDbLine
 10
-235.0
 20
171.0951835348730015
 30
0.0
 11
-238.0
 21
171.0951835348730015
 31
0.0
  0
LINE
  5
21A
100
AcDbEntity
  8
0
 62
256
370
-1
 48
1.0
  6
ByLayer
100
AcDbLine
 10
-235.0
 20
171.0951835348730015
 30
0.0
 11
-235.0
 21
153.0
 31
0.0
  0
LINE
  5
21B
100
AcDbEntity
  8
0
 62
256
370
-1
 48
1.0
  6
ByLayer
100
AcDbLine
 10
-235.0
 20
153.0
 30
0.0
 11
-238.0
 21
153.0
 31
0.0
  0
LINE
  5
21C
100
AcDbEntity
  8
0
 62
256
370
-1
 48
1.0
  6
ByLayer
100
AcDbLine
 10
-297.0000000000002842
 20
171.0951835348729446
 30
0.0
 11
-294.063873706889467
 21
171.0951835348730299
 31
0.0
  0
LINE
  5
21D
100
AcDbEntity
  8
0
 62
256
370
-1
 48
1.0
  6
ByLayer
100
AcDbLine
 10
-297.0000000000002842
 20
171.0951835348729446
 30
0.0
 11
-297.0000000000002842
 21
152.9999999999999716
 31
0.0
  0
LINE
  5
21E
100
AcDbEntity
  8
0
 62
256
370
-1
 48
1.0
  6
ByLayer
100
AcDbLine
 10
-297.0000000000002842
 20
152.9999999999999716
 30
0.0
 11
-294.063873706889467
 21
153.0
 31
0.0
  0
LINE
  5
21F
100
AcDbEntity
  8
0
 62
256
370
-1
 48
1.0
  6
ByLayer
100
AcDbLine
 10
-238.0
 20
176.0951835348730015
 30
0.0
 11
-238.0
 21
171.0951835348730015
 31
0.0
  0
CIRCLE
  5
220
100
AcDbEntity
  8
0
 62
256
370
-1
 48
1.0
  6
ByLayer
100
AcDbCircle
 10
-104.5861870452987432
 20
97.739910121449725
 30
0.0
 40
11.6545080012273914
  0
MTEXT
  5
221
100
AcDbEntity
  8
Grabado
 62
256
370
-1
 48
1.0
  6
ByLayer
100
AcDbMText
 10
-140.0
 20
120.0
 30
0.0
 40
1.0
 41
0.0
 71
1
 72
1
  1
\fLiberation Sans|b1|i0|c0|p0;\C1;\H5;Hotspot 1D
  7
textstyle2
 50
270.0
 73
2
 44
1.0
  0
MTEXT
  5
222
100
AcDbEntity
  8
Grabado
 62
256
370
-1
 48
1.0
  6
ByLayer
100
AcDbMText
 10
-248.4540536376362638
 20
159.1076798885420942
 30
0.0
 40
1.0
 41
0.0
 71
1
 72
1
  1
\fLiberation Sans|b1|i0|c0|p0;\C1;\H4;USB\P
  7
textstyle1
 50
180.0
 73
2
 44
1.0
  0
MTEXT
  5
223
100
AcDbEntity
  8
Grabado
 62
256
370
-1
 48
1.0
  6
ByLayer
100
AcDbMText
 10
-277.5686398991663282
 20
159.1076798885420942
 30
0.0
 40
1.0
 41
0.0
 71
1
 72
1
  1
\fLiberation Sans|b1|i0|c0|p0;\C1;\H4;9-24V\P
  7
textstyle0
 50
180.0
 73
2
 44
1.0
  0
CIRCLE
  5
224
100
AcDbEntity
  8
0
 62
256
370
-1
 48
1.0
  6
ByLayer
100
AcDbCircle
 10
-284.1688866362218278
 20
95.2548977746030801
 30
0.0
 40
6.5
  0
DIMENSION
  5
225
100
AcDbEntity
  8
Dimensions
 62
256
370
-1
 48
1.0
  6
ByLayer
100
AcDbDimension
 10
-113.2707766190482062
 20
89.9678151216317588
 30
0.0
 11
-105.83657686210816
 21
99.1371038467502927
 31
0.0
 70
3
 71
8
 72
2
 74
0
 75
0
 41
1.0
 42
0.0
  1

  3
Standard
100
AcDbDiametricDimension
 15
-95.9015974715492803
 25
105.5120051212676913
 35
0.0
 40
0.0
1001
ACAD
1000
DSTYLE
1002
{
1070
144
1040
1.0
1070
40
1040
1.0
1002
}
  0
DIMENSION
  5
226
100
AcDbEntity
  8
Dimensions
 62
256
370
-1
 48
1.0
  6
ByLayer
100
AcDbDimension
 10
-277.6688867379582462
 20
95.2537477425762802
 30
0.0
 11
-284.1685548962141183
 21
97.1298977452560308
 31
0.0
 70
3
 71
8
 72
2
 74
0
 75
0
 41
1.0
 42
0.0
  1

  3
Standard
100
AcDbDiametricDimension
 15
-290.6688865344854094
 25
95.2560478066298799
 35
0.0
 40
0.0
1001
ACAD
1000
DSTYLE
1002
{
1070
144
1040
1.0
1070
40
1040
1.0
1002
}
  0
ENDSEC
  0
SECTION
  2
OBJECTS
  0
DICTIONARY
  5
C
100
AcDbDictionary
280
0
281
1
  3
ACAD_GROUP
350
D
  3
ACAD_LAYOUT
350
1A
  3
ACAD_MLINESTYLE
350
17
  3
ACAD_PLOTSETTINGS
350
19
  3
ACAD_PLOTSTYLENAME
350
E
  3
AcDbVariableDictionary
350
227
  3
QCAD_OBJECTS
350
228
  0
DICTIONARY
  5
D
100
AcDbDictionary
280
0
281
1
  0
ACDBDICTIONARYWDFLT
  5
E
100
AcDbDictionary
281
1
  3
Normal
350
F
100
AcDbDictionaryWithDefault
340
F
  0
ACDBPLACEHOLDER
  5
F
  0
DICTIONARY
  5
17
100
AcDbDictionary
280
0
281
1
  3
Standard
350
18
  0
MLINESTYLE
  5
18
100
AcDbMlineStyle
  2
STANDARD
 70
0
  3

 62
256
 51
90.0
 52
90.0
 71
2
 49
0.5
 62
256
  6
BYLAYER
 49
-0.5
 62
256
  6
BYLAYER
  0
DICTIONARY
  5
19
100
AcDbDictionary
280
0
281
1
  0
DICTIONARY
  5
1A
100
AcDbDictionary
281
1
  3
Layout1
350
1E
  3
Layout2
350
26
  3
Model
350
22
  0
LAYOUT
  5
1E
100
AcDbPlotSettings
  1

  2
none_device
  4

  6

 40
0.0
 41
0.0
 42
0.0
 43
0.0
 44
0.0
 45
0.0
 46
0.0
 47
0.0
 48
0.0
 49
0.0
140
0.0
141
0.0
142
1.0
143
1.0
 70
688
 72
0
 73
0
 74
5
  7

 75
16
147
1.0
148
0.0
149
0.0
100
AcDbLayout
  1
Layout1
 70
1
 71
1
 10
0.0
 20
0.0
 11
420.0
 21
297.0
 12
0.0
 22
0.0
 32
0.0
 14
100000000000000000000.0
 24
100000000000000000000.0
 34
100000000000000000000.0
 15
-100000000000000000000.0
 25
-100000000000000000000.0
 35
-100000000000000000000.0
146
0.0
 13
0.0
 23
0.0
 33
0.0
 16
1.0
 26
0.0
 36
0.0
 17
0.0
 27
1.0
 37
0.0
 76
0
330
1B
  0
LAYOUT
  5
22
100
AcDbPlotSettings
  1

  2
none_device
  4

  6

 40
0.0
 41
0.0
 42
0.0
 43
0.0
 44
0.0
 45
0.0
 46
0.0
 47
0.0
 48
0.0
 49
0.0
140
0.0
141
0.0
142
1.0
143
1.0
 70
1712
 72
0
 73
0
 74
0
  7

 75
0
147
1.0
148
0.0
149
0.0
100
AcDbLayout
  1
Model
 70
1
 71
0
 10
0.0
 20
0.0
 11
12.0
 21
9.0
 12
0.0
 22
0.0
 32
0.0
 14
0.0
 24
0.0
 34
0.0
 15
0.0
 25
0.0
 35
0.0
146
0.0
 13
0.0
 23
0.0
 33
0.0
 16
1.0
 26
0.0
 36
0.0
 17
0.0
 27
1.0
 37
0.0
 76
0
330
1F
  0
LAYOUT
  5
26
100
AcDbPlotSettings
  1

  2
none_device
  4

  6

 40
0.0
 41
0.0
 42
0.0
 43
0.0
 44
0.0
 45
0.0
 46
0.0
 47
0.0
 48
0.0
 49
0.0
140
0.0
141
0.0
142
1.0
143
1.0
 70
688
 72
0
 73
0
 74
5
  7

 75
16
147
1.0
148
0.0
149
0.0
100
AcDbLayout
  1
Layout2
 70
1
 71
2
 10
0.0
 20
0.0
 11
12.0
 21
9.0
 12
0.0
 22
0.0
 32
0.0
 14
0.0
 24
0.0
 34
0.0
 15
0.0
 25
0.0
 35
0.0
146
0.0
 13
0.0
 23
0.0
 33
0.0
 16
1.0
 26
0.0
 36
0.0
 17
0.0
 27
1.0
 37
0.0
 76
0
330
23
  0
DICTIONARY
  5
227
100
AcDbDictionary
281
1
  3
DIMASSOC
350
22A
  3
HIDETEXT
350
229
  0
DICTIONARYVAR
  5
229
100
DictionaryVariables
280
0
  1
2
  0
DICTIONARYVAR
  5
22A
100
DictionaryVariables
280
0
  1
1
  0
DICTIONARY
  5
228
100
AcDbDictionary
281
1
  3
ColorSettings/BackgroundColor
350
22B
  3
ColorSettings/ColorMode
350
22C
  3
DimensionSettings/AngularFormat
350
22D
  3
DimensionSettings/AngularPrecision
350
22E
  3
DimensionSettings/DecimalPoint
350
22F
  3
DimensionSettings/DimensionFont
350
230
  3
DimensionSettings/KeepProportions
350
231
  3
DimensionSettings/LinearFormat
350
232
  3
DimensionSettings/LinearPrecision
350
233
  3
Grid/DisplayGrid00
350
234
  3
Grid/DisplayGrid01
350
235
  3
Grid/DisplayGrid02
350
236
  3
Grid/DisplayGrid03
350
237
  3
Grid/GridSpacingX00
350
238
  3
Grid/GridSpacingX01
350
239
  3
Grid/GridSpacingX02
350
23A
  3
Grid/GridSpacingX03
350
23B
  3
Grid/GridSpacingY00
350
23C
  3
Grid/GridSpacingY01
350
23D
  3
Grid/GridSpacingY02
350
23E
  3
Grid/GridSpacingY03
350
23F
  3
Grid/IsometricGrid00
350
240
  3
Grid/IsometricGrid01
350
241
  3
Grid/IsometricGrid02
350
242
  3
Grid/IsometricGrid03
350
243
  3
Grid/IsometricProjection00
350
244
  3
Grid/IsometricProjection01
350
245
  3
Grid/IsometricProjection02
350
246
  3
Grid/IsometricProjection03
350
247
  3
Grid/MetaGridSpacingX00
350
248
  3
Grid/MetaGridSpacingX01
350
249
  3
Grid/MetaGridSpacingX02
350
24A
  3
Grid/MetaGridSpacingX03
350
24B
  3
Grid/MetaGridSpacingY00
350
24C
  3
Grid/MetaGridSpacingY01
350
24D
  3
Grid/MetaGridSpacingY02
350
24E
  3
Grid/MetaGridSpacingY03
350
24F
  3
LinetypeSettings/PSLTSCALE
350
250
  3
MultiPageSettings/Columns
350
251
  3
MultiPageSettings/GlueMarginsBottom
350
252
  3
MultiPageSettings/GlueMarginsLeft
350
253
  3
MultiPageSettings/GlueMarginsRight
350
254
  3
MultiPageSettings/GlueMarginsTop
350
255
  3
MultiPageSettings/PrintCropMarks
350
256
  3
MultiPageSettings/Rows
350
257
  3
PageSettings/OffsetX
350
258
  3
PageSettings/OffsetY
350
259
  3
PageSettings/PageOrientation
350
25A
  3
PageSettings/PaperHeight
350
25B
  3
PageSettings/PaperWidth
350
25C
  3
PageSettings/Scale
350
25D
  3
PageSettings/ShowPaperBorders
350
25E
  3
QCADVersion
350
25F
  3
UnitSettings/PaperUnit
350
260
  3
ViewportCenter
350
261
  3
ViewportHeight
350
262
  3
ViewportWidth
350
263
  0
XRECORD
  5
22B
330
228
100
AcDbXrecord
280
1
1000
Blanca
  0
XRECORD
  5
22C
330
228
100
AcDbXrecord
280
1
1000
FullColor
  0
XRECORD
  5
22D
330
228
100
AcDbXrecord
280
1
 90
0
  0
XRECORD
  5
22E
330
228
100
AcDbXrecord
280
1
 90
0
  0
XRECORD
  5
22F
330
228
100
AcDbXrecord
280
1
 90
46
  0
XRECORD
  5
230
330
228
100
AcDbXrecord
280
1
1000
DejaVu Sans
  0
XRECORD
  5
231
330
228
100
AcDbXrecord
280
1
290
1
  0
XRECORD
  5
232
330
228
100
AcDbXrecord
280
1
 90
2
  0
XRECORD
  5
233
330
228
100
AcDbXrecord
280
1
 90
4
  0
XRECORD
  5
234
330
228
100
AcDbXrecord
280
1
290
1
  0
XRECORD
  5
235
330
228
100
AcDbXrecord
280
1
290
1
  0
XRECORD
  5
236
330
228
100
AcDbXrecord
280
1
290
1
  0
XRECORD
  5
237
330
228
100
AcDbXrecord
280
1
290
1
  0
XRECORD
  5
238
330
228
100
AcDbXrecord
280
1
1000
auto
  0
XRECORD
  5
239
330
228
100
AcDbXrecord
280
1
1000
auto
  0
XRECORD
  5
23A
330
228
100
AcDbXrecord
280
1
1000
auto
  0
XRECORD
  5
23B
330
228
100
AcDbXrecord
280
1
1000
auto
  0
XRECORD
  5
23C
330
228
100
AcDbXrecord
280
1
1000
auto
  0
XRECORD
  5
23D
330
228
100
AcDbXrecord
280
1
1000
auto
  0
XRECORD
  5
23E
330
228
100
AcDbXrecord
280
1
1000
auto
  0
XRECORD
  5
23F
330
228
100
AcDbXrecord
280
1
1000
auto
  0
XRECORD
  5
240
330
228
100
AcDbXrecord
280
1
290
0
  0
XRECORD
  5
241
330
228
100
AcDbXrecord
280
1
290
0
  0
XRECORD
  5
242
330
228
100
AcDbXrecord
280
1
290
0
  0
XRECORD
  5
243
330
228
100
AcDbXrecord
280
1
290
0
  0
XRECORD
  5
244
330
228
100
AcDbXrecord
280
1
 90
65537
  0
XRECORD
  5
245
330
228
100
AcDbXrecord
280
1
 90
65537
  0
XRECORD
  5
246
330
228
100
AcDbXrecord
280
1
 90
65537
  0
XRECORD
  5
247
330
228
100
AcDbXrecord
280
1
 90
65537
  0
XRECORD
  5
248
330
228
100
AcDbXrecord
280
1
1000
auto
  0
XRECORD
  5
249
330
228
100
AcDbXrecord
280
1
1000
auto
  0
XRECORD
  5
24A
330
228
100
AcDbXrecord
280
1
1000
auto
  0
XRECORD
  5
24B
330
228
100
AcDbXrecord
280
1
1000
auto
  0
XRECORD
  5
24C
330
228
100
AcDbXrecord
280
1
1000
auto
  0
XRECORD
  5
24D
330
228
100
AcDbXrecord
280
1
1000
auto
  0
XRECORD
  5
24E
330
228
100
AcDbXrecord
280
1
1000
auto
  0
XRECORD
  5
24F
330
228
100
AcDbXrecord
280
1
1000
auto
  0
XRECORD
  5
250
330
228
100
AcDbXrecord
280
1
290
1
  0
XRECORD
  5
251
330
228
100
AcDbXrecord
280
1
 90
1
  0
XRECORD
  5
252
330
228
100
AcDbXrecord
280
1
 40
10.0
  0
XRECORD
  5
253
330
228
100
AcDbXrecord
280
1
 40
10.0
  0
XRECORD
  5
254
330
228
100
AcDbXrecord
280
1
 40
10.0
  0
XRECORD
  5
255
330
228
100
AcDbXrecord
280
1
 40
10.0
  0
XRECORD
  5
256
330
228
100
AcDbXrecord
280
1
290
0
  0
XRECORD
  5
257
330
228
100
AcDbXrecord
280
1
 90
1
  0
XRECORD
  5
258
330
228
100
AcDbXrecord
280
1
 40
-309.9513964978312401
  0
XRECORD
  5
259
330
228
100
AcDbXrecord
280
1
 40
-27.3389677644058722
  0
XRECORD
  5
25A
330
228
100
AcDbXrecord
280
1
1000
Portrait
  0
XRECORD
  5
25B
330
228
100
AcDbXrecord
280
1
 40
297.0
  0
XRECORD
  5
25C
330
228
100
AcDbXrecord
280
1
 40
210.0
  0
XRECORD
  5
25D
330
228
100
AcDbXrecord
280
1
1000
1:1
  0
XRECORD
  5
25E
330
228
100
AcDbXrecord
280
1
290
1
  0
XRECORD
  5
25F
330
228
100
AcDbXrecord
280
1
1000
3.23.0
  0
XRECORD
  5
260
330
228
100
AcDbXrecord
280
1
 90
4
  0
XRECORD
  5
262
330
228
100
AcDbXrecord
280
1
 40
56.4515330070907737
  0
XRECORD
  5
263
330
228
100
AcDbXrecord
280
1
 40
123.381308799720415
  0
ENDSEC
  0
EOF
